%TF.GenerationSoftware,KiCad,Pcbnew,7.0.2*%
%TF.CreationDate,2023-05-15T21:15:08+01:00*%
%TF.ProjectId,quizbuzzer,7175697a-6275-47a7-9a65-722e6b696361,V0.1.2*%
%TF.SameCoordinates,Original*%
%TF.FileFunction,Copper,L1,Top*%
%TF.FilePolarity,Positive*%
%FSLAX46Y46*%
G04 Gerber Fmt 4.6, Leading zero omitted, Abs format (unit mm)*
G04 Created by KiCad (PCBNEW 7.0.2) date 2023-05-15 21:15:08*
%MOMM*%
%LPD*%
G01*
G04 APERTURE LIST*
G04 Aperture macros list*
%AMRoundRect*
0 Rectangle with rounded corners*
0 $1 Rounding radius*
0 $2 $3 $4 $5 $6 $7 $8 $9 X,Y pos of 4 corners*
0 Add a 4 corners polygon primitive as box body*
4,1,4,$2,$3,$4,$5,$6,$7,$8,$9,$2,$3,0*
0 Add four circle primitives for the rounded corners*
1,1,$1+$1,$2,$3*
1,1,$1+$1,$4,$5*
1,1,$1+$1,$6,$7*
1,1,$1+$1,$8,$9*
0 Add four rect primitives between the rounded corners*
20,1,$1+$1,$2,$3,$4,$5,0*
20,1,$1+$1,$4,$5,$6,$7,0*
20,1,$1+$1,$6,$7,$8,$9,0*
20,1,$1+$1,$8,$9,$2,$3,0*%
G04 Aperture macros list end*
%TA.AperFunction,ComponentPad*%
%ADD10C,1.600000*%
%TD*%
%TA.AperFunction,ComponentPad*%
%ADD11R,2.200000X2.200000*%
%TD*%
%TA.AperFunction,ComponentPad*%
%ADD12O,2.200000X2.200000*%
%TD*%
%TA.AperFunction,ComponentPad*%
%ADD13R,1.800000X1.800000*%
%TD*%
%TA.AperFunction,ComponentPad*%
%ADD14C,1.800000*%
%TD*%
%TA.AperFunction,ComponentPad*%
%ADD15R,1.700000X1.700000*%
%TD*%
%TA.AperFunction,ComponentPad*%
%ADD16O,1.700000X1.700000*%
%TD*%
%TA.AperFunction,ComponentPad*%
%ADD17R,3.500000X3.500000*%
%TD*%
%TA.AperFunction,ComponentPad*%
%ADD18RoundRect,0.750000X1.000000X-0.750000X1.000000X0.750000X-1.000000X0.750000X-1.000000X-0.750000X0*%
%TD*%
%TA.AperFunction,ComponentPad*%
%ADD19RoundRect,0.875000X0.875000X-0.875000X0.875000X0.875000X-0.875000X0.875000X-0.875000X-0.875000X0*%
%TD*%
%TA.AperFunction,ComponentPad*%
%ADD20RoundRect,0.249999X-0.620001X-0.845001X0.620001X-0.845001X0.620001X0.845001X-0.620001X0.845001X0*%
%TD*%
%TA.AperFunction,ComponentPad*%
%ADD21O,1.740000X2.190000*%
%TD*%
%TA.AperFunction,ComponentPad*%
%ADD22C,3.000000*%
%TD*%
%TA.AperFunction,ComponentPad*%
%ADD23C,2.500000*%
%TD*%
%TA.AperFunction,ComponentPad*%
%ADD24R,1.500000X1.500000*%
%TD*%
%TA.AperFunction,ComponentPad*%
%ADD25C,1.500000*%
%TD*%
%TA.AperFunction,ComponentPad*%
%ADD26O,1.600000X1.600000*%
%TD*%
%TA.AperFunction,ComponentPad*%
%ADD27R,1.905000X2.000000*%
%TD*%
%TA.AperFunction,ComponentPad*%
%ADD28O,1.905000X2.000000*%
%TD*%
%TA.AperFunction,ComponentPad*%
%ADD29C,1.676400*%
%TD*%
%TA.AperFunction,ComponentPad*%
%ADD30C,5.600000*%
%TD*%
%TA.AperFunction,ComponentPad*%
%ADD31R,2.400000X1.600000*%
%TD*%
%TA.AperFunction,ComponentPad*%
%ADD32O,2.400000X1.600000*%
%TD*%
%TA.AperFunction,ViaPad*%
%ADD33C,0.800000*%
%TD*%
%TA.AperFunction,Conductor*%
%ADD34C,0.250000*%
%TD*%
G04 APERTURE END LIST*
D10*
%TO.P,C2,1*%
%TO.N,+12V*%
X121251000Y-99939000D03*
%TO.P,C2,2*%
%TO.N,GND*%
X126251000Y-99939000D03*
%TD*%
%TO.P,C3,1*%
%TO.N,+5V*%
X135351000Y-99939000D03*
%TO.P,C3,2*%
%TO.N,GND*%
X130351000Y-99939000D03*
%TD*%
D11*
%TO.P,D1,1,K*%
%TO.N,+12V*%
X123601000Y-103459000D03*
D12*
%TO.P,D1,2,A*%
%TO.N,+5V*%
X133761000Y-103459000D03*
%TD*%
D11*
%TO.P,D2,1,K*%
%TO.N,+5V*%
X47470000Y-55080000D03*
D12*
%TO.P,D2,2,A*%
%TO.N,Net-(D2-A)*%
X37310000Y-55080000D03*
%TD*%
D11*
%TO.P,D4,1,K*%
%TO.N,+5V*%
X81470000Y-55080000D03*
D12*
%TO.P,D4,2,A*%
%TO.N,Net-(D4-A)*%
X71310000Y-55080000D03*
%TD*%
D11*
%TO.P,D5,1,K*%
%TO.N,+5V*%
X98470000Y-55080000D03*
D12*
%TO.P,D5,2,A*%
%TO.N,Net-(D5-A)*%
X88310000Y-55080000D03*
%TD*%
D13*
%TO.P,D6,1,K*%
%TO.N,Net-(D6-K)*%
X45990000Y-48670000D03*
D14*
%TO.P,D6,2,A*%
%TO.N,Net-(D6-A)*%
X48530000Y-48670000D03*
%TD*%
D13*
%TO.P,D7,1,K*%
%TO.N,Net-(D7-K)*%
X62990000Y-48670000D03*
D14*
%TO.P,D7,2,A*%
%TO.N,Net-(D7-A)*%
X65530000Y-48670000D03*
%TD*%
D13*
%TO.P,D8,1,K*%
%TO.N,Net-(D8-K)*%
X79990000Y-48670000D03*
D14*
%TO.P,D8,2,A*%
%TO.N,Net-(D8-A)*%
X82530000Y-48670000D03*
%TD*%
D13*
%TO.P,D9,1,K*%
%TO.N,Net-(D9-K)*%
X96990000Y-48670000D03*
D14*
%TO.P,D9,2,A*%
%TO.N,Net-(D9-A)*%
X99530000Y-48670000D03*
%TD*%
D11*
%TO.P,D10,1,K*%
%TO.N,+5V*%
X115470000Y-55080000D03*
D12*
%TO.P,D10,2,A*%
%TO.N,Net-(D10-A)*%
X105310000Y-55080000D03*
%TD*%
D11*
%TO.P,D11,1,K*%
%TO.N,+5V*%
X132470000Y-55080000D03*
D12*
%TO.P,D11,2,A*%
%TO.N,Net-(D11-A)*%
X122310000Y-55080000D03*
%TD*%
D11*
%TO.P,D12,1,K*%
%TO.N,+5V*%
X149470000Y-55080000D03*
D12*
%TO.P,D12,2,A*%
%TO.N,Net-(D12-A)*%
X139310000Y-55080000D03*
%TD*%
D11*
%TO.P,D13,1,K*%
%TO.N,+5V*%
X166470000Y-55080000D03*
D12*
%TO.P,D13,2,A*%
%TO.N,Net-(D13-A)*%
X156310000Y-55080000D03*
%TD*%
D13*
%TO.P,D14,1,K*%
%TO.N,Net-(D14-K)*%
X113990000Y-48670000D03*
D14*
%TO.P,D14,2,A*%
%TO.N,Net-(D14-A)*%
X116530000Y-48670000D03*
%TD*%
D13*
%TO.P,D15,1,K*%
%TO.N,Net-(D15-K)*%
X130990000Y-48670000D03*
D14*
%TO.P,D15,2,A*%
%TO.N,Net-(D15-A)*%
X133530000Y-48670000D03*
%TD*%
D13*
%TO.P,D16,1,K*%
%TO.N,Net-(D16-K)*%
X147990000Y-48670000D03*
D14*
%TO.P,D16,2,A*%
%TO.N,Net-(D16-A)*%
X150530000Y-48670000D03*
%TD*%
D13*
%TO.P,D17,1,K*%
%TO.N,Net-(D17-K)*%
X164990000Y-48670000D03*
D14*
%TO.P,D17,2,A*%
%TO.N,Net-(D17-A)*%
X167530000Y-48670000D03*
%TD*%
D11*
%TO.P,D18,1,K*%
%TO.N,+5V*%
X183470000Y-55080000D03*
D12*
%TO.P,D18,2,A*%
%TO.N,Net-(D18-A)*%
X173310000Y-55080000D03*
%TD*%
D13*
%TO.P,D19,1,K*%
%TO.N,Net-(D19-K)*%
X181990000Y-48670000D03*
D14*
%TO.P,D19,2,A*%
%TO.N,Net-(D19-A)*%
X184530000Y-48670000D03*
%TD*%
D11*
%TO.P,D20,1,K*%
%TO.N,+5V*%
X200470000Y-55080000D03*
D12*
%TO.P,D20,2,A*%
%TO.N,Net-(D20-A)*%
X190310000Y-55080000D03*
%TD*%
D13*
%TO.P,D21,1,K*%
%TO.N,Net-(D21-K)*%
X198990000Y-48670000D03*
D14*
%TO.P,D21,2,A*%
%TO.N,Net-(D21-A)*%
X201530000Y-48670000D03*
%TD*%
D15*
%TO.P,J1,1,Pin_1*%
%TO.N,+5V*%
X88981000Y-108429000D03*
D16*
%TO.P,J1,2,Pin_2*%
%TO.N,Net-(J1-Pin_2)*%
X91521000Y-108429000D03*
%TO.P,J1,3,Pin_3*%
%TO.N,Net-(J1-Pin_3)*%
X94061000Y-108429000D03*
%TO.P,J1,4,Pin_4*%
%TO.N,Net-(J1-Pin_4)*%
X96601000Y-108429000D03*
%TO.P,J1,5,Pin_5*%
%TO.N,Net-(J1-Pin_5)*%
X99141000Y-108429000D03*
%TO.P,J1,6,Pin_6*%
%TO.N,Net-(J1-Pin_6)*%
X101681000Y-108429000D03*
%TO.P,J1,7,Pin_7*%
%TO.N,Net-(J1-Pin_7)*%
X104221000Y-108429000D03*
%TO.P,J1,8,Pin_8*%
%TO.N,Net-(J1-Pin_8)*%
X106761000Y-108429000D03*
%TO.P,J1,9,Pin_9*%
%TO.N,Net-(J1-Pin_9)*%
X109301000Y-108429000D03*
%TO.P,J1,10,Pin_10*%
%TO.N,GND*%
X111841000Y-108429000D03*
%TD*%
D15*
%TO.P,J3,1,Pin_1*%
%TO.N,+5V*%
X101321000Y-102549000D03*
D16*
%TO.P,J3,2,Pin_2*%
%TO.N,GND*%
X103861000Y-102549000D03*
%TO.P,J3,3,Pin_3*%
%TO.N,SDA*%
X106401000Y-102549000D03*
%TO.P,J3,4,Pin_4*%
%TO.N,SCL*%
X108941000Y-102549000D03*
%TD*%
D17*
%TO.P,J4,1*%
%TO.N,+12V*%
X143781000Y-99219000D03*
D18*
%TO.P,J4,2*%
%TO.N,GND*%
X143781000Y-105219000D03*
D19*
%TO.P,J4,3*%
X148481000Y-102219000D03*
%TD*%
D20*
%TO.P,J15,1,Pin_1*%
%TO.N,Net-(J15-Pin_1)*%
X41800000Y-18110000D03*
D21*
%TO.P,J15,2,Pin_2*%
%TO.N,GND*%
X44340000Y-18110000D03*
%TD*%
D20*
%TO.P,J16,1,Pin_1*%
%TO.N,Net-(J16-Pin_1)*%
X58800000Y-18110000D03*
D21*
%TO.P,J16,2,Pin_2*%
%TO.N,GND*%
X61340000Y-18110000D03*
%TD*%
D20*
%TO.P,J18,1,Pin_1*%
%TO.N,Net-(J18-Pin_1)*%
X92800000Y-18110000D03*
D21*
%TO.P,J18,2,Pin_2*%
%TO.N,GND*%
X95340000Y-18110000D03*
%TD*%
D20*
%TO.P,J19,1,Pin_1*%
%TO.N,Net-(J19-Pin_1)*%
X109800000Y-18110000D03*
D21*
%TO.P,J19,2,Pin_2*%
%TO.N,GND*%
X112340000Y-18110000D03*
%TD*%
D20*
%TO.P,J20,1,Pin_1*%
%TO.N,Net-(J20-Pin_1)*%
X126800000Y-18110000D03*
D21*
%TO.P,J20,2,Pin_2*%
%TO.N,GND*%
X129340000Y-18110000D03*
%TD*%
D20*
%TO.P,J21,1,Pin_1*%
%TO.N,Net-(J21-Pin_1)*%
X143800000Y-18110000D03*
D21*
%TO.P,J21,2,Pin_2*%
%TO.N,GND*%
X146340000Y-18110000D03*
%TD*%
D20*
%TO.P,J22,1,Pin_1*%
%TO.N,Net-(J22-Pin_1)*%
X160800000Y-18110000D03*
D21*
%TO.P,J22,2,Pin_2*%
%TO.N,GND*%
X163340000Y-18110000D03*
%TD*%
D20*
%TO.P,J23,1,Pin_1*%
%TO.N,Net-(J23-Pin_1)*%
X177800000Y-18110000D03*
D21*
%TO.P,J23,2,Pin_2*%
%TO.N,GND*%
X180340000Y-18110000D03*
%TD*%
D20*
%TO.P,J24,1,Pin_1*%
%TO.N,Net-(J24-Pin_1)*%
X194800000Y-18110000D03*
D21*
%TO.P,J24,2,Pin_2*%
%TO.N,GND*%
X197340000Y-18110000D03*
%TD*%
D22*
%TO.P,K1,1*%
%TO.N,+12V*%
X43230000Y-42110000D03*
D23*
%TO.P,K1,2*%
%TO.N,+5V*%
X49280000Y-40160000D03*
D22*
%TO.P,K1,3*%
%TO.N,Net-(J15-Pin_1)*%
X49280000Y-27960000D03*
D23*
%TO.P,K1,5*%
%TO.N,Net-(D2-A)*%
X37280000Y-40160000D03*
%TD*%
D22*
%TO.P,K2,1*%
%TO.N,+12V*%
X60230000Y-42110000D03*
D23*
%TO.P,K2,2*%
%TO.N,+5V*%
X66280000Y-40160000D03*
D22*
%TO.P,K2,3*%
%TO.N,Net-(J16-Pin_1)*%
X66280000Y-27960000D03*
D23*
%TO.P,K2,5*%
%TO.N,Net-(D3-A)*%
X54280000Y-40160000D03*
%TD*%
D22*
%TO.P,K3,1*%
%TO.N,+12V*%
X77230000Y-42110000D03*
D23*
%TO.P,K3,2*%
%TO.N,+5V*%
X83280000Y-40160000D03*
D22*
%TO.P,K3,3*%
%TO.N,Net-(J17-Pin_1)*%
X83280000Y-27960000D03*
D23*
%TO.P,K3,5*%
%TO.N,Net-(D4-A)*%
X71280000Y-40160000D03*
%TD*%
D22*
%TO.P,K4,1*%
%TO.N,+12V*%
X94230000Y-42110000D03*
D23*
%TO.P,K4,2*%
%TO.N,+5V*%
X100280000Y-40160000D03*
D22*
%TO.P,K4,3*%
%TO.N,Net-(J18-Pin_1)*%
X100280000Y-27960000D03*
D23*
%TO.P,K4,5*%
%TO.N,Net-(D5-A)*%
X88280000Y-40160000D03*
%TD*%
D22*
%TO.P,K5,1*%
%TO.N,+12V*%
X111230000Y-42110000D03*
D23*
%TO.P,K5,2*%
%TO.N,+5V*%
X117280000Y-40160000D03*
D22*
%TO.P,K5,3*%
%TO.N,Net-(J19-Pin_1)*%
X117280000Y-27960000D03*
D23*
%TO.P,K5,5*%
%TO.N,Net-(D10-A)*%
X105280000Y-40160000D03*
%TD*%
D22*
%TO.P,K6,1*%
%TO.N,+12V*%
X128230000Y-42110000D03*
D23*
%TO.P,K6,2*%
%TO.N,+5V*%
X134280000Y-40160000D03*
D22*
%TO.P,K6,3*%
%TO.N,Net-(J20-Pin_1)*%
X134280000Y-27960000D03*
D23*
%TO.P,K6,5*%
%TO.N,Net-(D11-A)*%
X122280000Y-40160000D03*
%TD*%
D22*
%TO.P,K7,1*%
%TO.N,+12V*%
X145230000Y-42110000D03*
D23*
%TO.P,K7,2*%
%TO.N,+5V*%
X151280000Y-40160000D03*
D22*
%TO.P,K7,3*%
%TO.N,Net-(J21-Pin_1)*%
X151280000Y-27960000D03*
D23*
%TO.P,K7,5*%
%TO.N,Net-(D12-A)*%
X139280000Y-40160000D03*
%TD*%
D22*
%TO.P,K8,1*%
%TO.N,+12V*%
X162230000Y-42110000D03*
D23*
%TO.P,K8,2*%
%TO.N,+5V*%
X168280000Y-40160000D03*
D22*
%TO.P,K8,3*%
%TO.N,Net-(J22-Pin_1)*%
X168280000Y-27960000D03*
D23*
%TO.P,K8,5*%
%TO.N,Net-(D13-A)*%
X156280000Y-40160000D03*
%TD*%
D22*
%TO.P,K9,1*%
%TO.N,+12V*%
X179230000Y-42110000D03*
D23*
%TO.P,K9,2*%
%TO.N,+5V*%
X185280000Y-40160000D03*
D22*
%TO.P,K9,3*%
%TO.N,Net-(J23-Pin_1)*%
X185280000Y-27960000D03*
D23*
%TO.P,K9,5*%
%TO.N,Net-(D18-A)*%
X173280000Y-40160000D03*
%TD*%
D22*
%TO.P,K10,1*%
%TO.N,+12V*%
X196230000Y-42110000D03*
D23*
%TO.P,K10,2*%
%TO.N,+5V*%
X202280000Y-40160000D03*
D22*
%TO.P,K10,3*%
%TO.N,Net-(J24-Pin_1)*%
X202280000Y-27960000D03*
D23*
%TO.P,K10,5*%
%TO.N,Net-(D20-A)*%
X190280000Y-40160000D03*
%TD*%
D24*
%TO.P,Q1,1,E*%
%TO.N,GND*%
X41400000Y-47870000D03*
D25*
%TO.P,Q1,2,B*%
%TO.N,Net-(D6-K)*%
X38860000Y-47870000D03*
%TO.P,Q1,3,C*%
%TO.N,Net-(D2-A)*%
X36320000Y-47870000D03*
%TD*%
D24*
%TO.P,Q2,1,E*%
%TO.N,GND*%
X58400000Y-47870000D03*
D25*
%TO.P,Q2,2,B*%
%TO.N,Net-(D7-K)*%
X55860000Y-47870000D03*
%TO.P,Q2,3,C*%
%TO.N,Net-(D3-A)*%
X53320000Y-47870000D03*
%TD*%
D24*
%TO.P,Q3,1,E*%
%TO.N,GND*%
X75400000Y-47870000D03*
D25*
%TO.P,Q3,2,B*%
%TO.N,Net-(D8-K)*%
X72860000Y-47870000D03*
%TO.P,Q3,3,C*%
%TO.N,Net-(D4-A)*%
X70320000Y-47870000D03*
%TD*%
D24*
%TO.P,Q4,1,E*%
%TO.N,GND*%
X92400000Y-47870000D03*
D25*
%TO.P,Q4,2,B*%
%TO.N,Net-(D9-K)*%
X89860000Y-47870000D03*
%TO.P,Q4,3,C*%
%TO.N,Net-(D5-A)*%
X87320000Y-47870000D03*
%TD*%
D24*
%TO.P,Q5,1,E*%
%TO.N,GND*%
X109400000Y-47870000D03*
D25*
%TO.P,Q5,2,B*%
%TO.N,Net-(D14-K)*%
X106860000Y-47870000D03*
%TO.P,Q5,3,C*%
%TO.N,Net-(D10-A)*%
X104320000Y-47870000D03*
%TD*%
D24*
%TO.P,Q6,1,E*%
%TO.N,GND*%
X126400000Y-47870000D03*
D25*
%TO.P,Q6,2,B*%
%TO.N,Net-(D15-K)*%
X123860000Y-47870000D03*
%TO.P,Q6,3,C*%
%TO.N,Net-(D11-A)*%
X121320000Y-47870000D03*
%TD*%
D24*
%TO.P,Q7,1,E*%
%TO.N,GND*%
X143400000Y-47870000D03*
D25*
%TO.P,Q7,2,B*%
%TO.N,Net-(D16-K)*%
X140860000Y-47870000D03*
%TO.P,Q7,3,C*%
%TO.N,Net-(D12-A)*%
X138320000Y-47870000D03*
%TD*%
D24*
%TO.P,Q8,1,E*%
%TO.N,GND*%
X160400000Y-47870000D03*
D25*
%TO.P,Q8,2,B*%
%TO.N,Net-(D17-K)*%
X157860000Y-47870000D03*
%TO.P,Q8,3,C*%
%TO.N,Net-(D13-A)*%
X155320000Y-47870000D03*
%TD*%
D24*
%TO.P,Q9,1,E*%
%TO.N,GND*%
X177400000Y-47870000D03*
D25*
%TO.P,Q9,2,B*%
%TO.N,Net-(D19-K)*%
X174860000Y-47870000D03*
%TO.P,Q9,3,C*%
%TO.N,Net-(D18-A)*%
X172320000Y-47870000D03*
%TD*%
D24*
%TO.P,Q10,1,E*%
%TO.N,GND*%
X194400000Y-47870000D03*
D25*
%TO.P,Q10,2,B*%
%TO.N,Net-(D21-K)*%
X191860000Y-47870000D03*
%TO.P,Q10,3,C*%
%TO.N,Net-(D20-A)*%
X189320000Y-47870000D03*
%TD*%
D10*
%TO.P,R9,1*%
%TO.N,Lamp1*%
X37170000Y-59790000D03*
D26*
%TO.P,R9,2*%
%TO.N,Net-(D6-A)*%
X47330000Y-59790000D03*
%TD*%
D10*
%TO.P,R10,1*%
%TO.N,Lamp3*%
X54090000Y-59800000D03*
D26*
%TO.P,R10,2*%
%TO.N,Net-(D7-A)*%
X64250000Y-59800000D03*
%TD*%
D10*
%TO.P,R11,1*%
%TO.N,Lamp5*%
X72490000Y-59930000D03*
D26*
%TO.P,R11,2*%
%TO.N,Net-(D8-A)*%
X82650000Y-59930000D03*
%TD*%
D10*
%TO.P,R12,1*%
%TO.N,Lamp7*%
X88360000Y-59930000D03*
D26*
%TO.P,R12,2*%
%TO.N,Net-(D9-A)*%
X98520000Y-59930000D03*
%TD*%
D10*
%TO.P,R13,1*%
%TO.N,Lamp2*%
X105260000Y-63440000D03*
D26*
%TO.P,R13,2*%
%TO.N,Net-(D14-A)*%
X115420000Y-63440000D03*
%TD*%
D10*
%TO.P,R14,1*%
%TO.N,Lamp4*%
X122040000Y-63180000D03*
D26*
%TO.P,R14,2*%
%TO.N,Net-(D15-A)*%
X132200000Y-63180000D03*
%TD*%
D10*
%TO.P,R15,1*%
%TO.N,Lamp6*%
X139340000Y-63570000D03*
D26*
%TO.P,R15,2*%
%TO.N,Net-(D16-A)*%
X149500000Y-63570000D03*
%TD*%
D10*
%TO.P,R16,1*%
%TO.N,Lamp8*%
X157270000Y-62920000D03*
D26*
%TO.P,R16,2*%
%TO.N,Net-(D17-A)*%
X167430000Y-62920000D03*
%TD*%
D10*
%TO.P,R17,1*%
%TO.N,Lamp9*%
X173410000Y-62530000D03*
D26*
%TO.P,R17,2*%
%TO.N,Net-(D19-A)*%
X183570000Y-62530000D03*
%TD*%
D10*
%TO.P,R18,1*%
%TO.N,Lamp10*%
X190220000Y-62490000D03*
D26*
%TO.P,R18,2*%
%TO.N,Net-(D21-A)*%
X200380000Y-62490000D03*
%TD*%
D27*
%TO.P,U1,1,IN*%
%TO.N,+12V*%
X125941000Y-109249000D03*
D28*
%TO.P,U1,2,GND*%
%TO.N,GND*%
X128481000Y-109249000D03*
%TO.P,U1,3,OUT*%
%TO.N,+5V*%
X131021000Y-109249000D03*
%TD*%
D29*
%TO.P,XA1,3V3,3.3V*%
%TO.N,unconnected-(XA1-3.3V-Pad3V3)*%
X42724000Y-97785000D03*
X42724000Y-100325000D03*
%TO.P,XA1,5V1,5V*%
%TO.N,+5V*%
X40184000Y-97785000D03*
%TO.P,XA1,5V2,SPI_5V*%
X40184000Y-100325000D03*
%TO.P,XA1,5V3,5V*%
X85904000Y-82545000D03*
%TO.P,XA1,A0,A0*%
%TO.N,AUX-HEAD-5*%
X47804000Y-64765000D03*
%TO.P,XA1,A1,A1*%
%TO.N,AUX-HEAD-6*%
X47804000Y-67305000D03*
%TO.P,XA1,A2,A2*%
%TO.N,AUX-HEAD-7*%
X50344000Y-64765000D03*
%TO.P,XA1,A3,A3*%
%TO.N,AUX-HEAD-8*%
X50344000Y-67305000D03*
%TO.P,XA1,A4,A4*%
%TO.N,AUX-HEAD-9*%
X52884000Y-64765000D03*
%TO.P,XA1,A5,A5*%
%TO.N,AUX-HEAD-10*%
X52884000Y-67305000D03*
%TO.P,XA1,A6,A6*%
%TO.N,AUX-HEAD-11*%
X55424000Y-64765000D03*
%TO.P,XA1,A7,A7*%
%TO.N,AUX-HEAD-12*%
X55424000Y-67305000D03*
%TO.P,XA1,A8,A8*%
%TO.N,AUX-HEAD-13*%
X57964000Y-64765000D03*
%TO.P,XA1,A9,A9*%
%TO.N,AUX-HEAD-14*%
X57964000Y-67305000D03*
%TO.P,XA1,A10,A10*%
%TO.N,AUX-HEAD-15*%
X60504000Y-64765000D03*
%TO.P,XA1,A11,A11*%
%TO.N,AUX-HEAD-16*%
X60504000Y-67305000D03*
%TO.P,XA1,A12,A12*%
%TO.N,AUX-HEAD-17*%
X63044000Y-64765000D03*
%TO.P,XA1,A13,A13*%
%TO.N,AUX-HEAD-18*%
X63044000Y-67305000D03*
%TO.P,XA1,A14,A14*%
%TO.N,AUX-HEAD-19*%
X65584000Y-64765000D03*
%TO.P,XA1,A15,A15*%
%TO.N,AUX-HEAD-20*%
X65584000Y-67305000D03*
%TO.P,XA1,AREF,AREF*%
%TO.N,unconnected-(XA1-PadAREF)*%
X45264000Y-97785000D03*
%TO.P,XA1,D0,D0_RX0*%
%TO.N,unconnected-(XA1-D0_RX0-PadD0)*%
X47804000Y-97785000D03*
%TO.P,XA1,D1,D1_TX0*%
%TO.N,unconnected-(XA1-D1_TX0-PadD1)*%
X47804000Y-100325000D03*
%TO.P,XA1,D2,D2_INT0*%
%TO.N,MP3_EN*%
X50344000Y-97785000D03*
%TO.P,XA1,D3,D3_INT1*%
%TO.N,AUX-HEAD-24*%
X50344000Y-100325000D03*
%TO.P,XA1,D4,D4*%
%TO.N,PORTB_1*%
X52884000Y-97785000D03*
%TO.P,XA1,D5,D5*%
%TO.N,PORTB_2*%
X52884000Y-100325000D03*
%TO.P,XA1,D6,D6*%
%TO.N,PORTB_3*%
X55424000Y-97785000D03*
%TO.P,XA1,D7,D7*%
%TO.N,PORTB_4*%
X55424000Y-100325000D03*
%TO.P,XA1,D8,D8*%
%TO.N,AUX-HEAD-25*%
X57964000Y-97785000D03*
%TO.P,XA1,D9,D9*%
%TO.N,AUX-HEAD-26*%
X57964000Y-100325000D03*
%TO.P,XA1,D10,D10*%
%TO.N,AUX-HEAD-27*%
X60504000Y-97785000D03*
%TO.P,XA1,D11,D11*%
%TO.N,Lamp1*%
X60504000Y-100325000D03*
%TO.P,XA1,D12,D12*%
%TO.N,Lamp2*%
X63044000Y-97785000D03*
%TO.P,XA1,D13,D13*%
%TO.N,Lamp3*%
X63044000Y-100325000D03*
%TO.P,XA1,D14,D14_TX3*%
%TO.N,AUX-HEAD-4*%
X65584000Y-97785000D03*
%TO.P,XA1,D15,D15_RX3*%
%TO.N,AUX-HEAD-3*%
X65584000Y-100325000D03*
%TO.P,XA1,D16,D16_TX2*%
%TO.N,AUX-HEAD-2*%
X68124000Y-97785000D03*
%TO.P,XA1,D17,D17_RX2*%
%TO.N,AUX-HEAD-1*%
X68124000Y-100325000D03*
%TO.P,XA1,D18,D18_TX1*%
%TO.N,DMX-TX*%
X70664000Y-97785000D03*
%TO.P,XA1,D19,D19_RX1*%
%TO.N,DMX-RX*%
X70664000Y-100325000D03*
%TO.P,XA1,D20,D20_SDA*%
%TO.N,SDA*%
X73204000Y-97785000D03*
%TO.P,XA1,D21,D21_SCL*%
%TO.N,SCL*%
X73204000Y-100325000D03*
%TO.P,XA1,D22,D22*%
%TO.N,Lamp4*%
X75744000Y-97785000D03*
%TO.P,XA1,D23,D23*%
%TO.N,Lamp5*%
X75744000Y-100325000D03*
%TO.P,XA1,D24,D24*%
%TO.N,Lamp6*%
X78284000Y-97785000D03*
%TO.P,XA1,D25,D25*%
%TO.N,Lamp7*%
X78284000Y-100325000D03*
%TO.P,XA1,D26,D26*%
%TO.N,Lamp8*%
X80824000Y-97785000D03*
%TO.P,XA1,D27,D27*%
%TO.N,Lamp9*%
X80824000Y-100325000D03*
%TO.P,XA1,D28,D28*%
%TO.N,Lamp10*%
X83364000Y-97785000D03*
%TO.P,XA1,D29,D29*%
%TO.N,Net-(J1-Pin_2)*%
X83364000Y-100325000D03*
%TO.P,XA1,D30,D30*%
%TO.N,Net-(J1-Pin_3)*%
X85904000Y-97785000D03*
%TO.P,XA1,D31,D31*%
%TO.N,Net-(J1-Pin_4)*%
X85904000Y-100325000D03*
%TO.P,XA1,D32,D32*%
%TO.N,Net-(J1-Pin_5)*%
X68124000Y-64765000D03*
%TO.P,XA1,D33,D33*%
%TO.N,Net-(J1-Pin_6)*%
X68124000Y-67305000D03*
%TO.P,XA1,D34,D34*%
%TO.N,Net-(J1-Pin_7)*%
X70664000Y-64765000D03*
%TO.P,XA1,D35,D35*%
%TO.N,Net-(J1-Pin_8)*%
X70664000Y-67305000D03*
%TO.P,XA1,D36,D36*%
%TO.N,Net-(J1-Pin_9)*%
X73204000Y-64765000D03*
%TO.P,XA1,D37,D37*%
%TO.N,Rec1*%
X73204000Y-67305000D03*
%TO.P,XA1,D38,D38*%
%TO.N,Rec2*%
X75744000Y-64765000D03*
%TO.P,XA1,D39,D39*%
%TO.N,Rec3*%
X75744000Y-67305000D03*
%TO.P,XA1,D40,D40*%
%TO.N,Rec4*%
X78284000Y-64765000D03*
%TO.P,XA1,D41,D41*%
%TO.N,Rec5*%
X78284000Y-67305000D03*
%TO.P,XA1,D42,D42*%
%TO.N,Rec6*%
X80824000Y-64765000D03*
%TO.P,XA1,D43,D43*%
%TO.N,Rec7*%
X80824000Y-67305000D03*
%TO.P,XA1,D44,D44*%
%TO.N,Rec8*%
X83364000Y-64765000D03*
%TO.P,XA1,D45,D45*%
%TO.N,Rec9*%
X83364000Y-67305000D03*
%TO.P,XA1,D46,D46*%
%TO.N,Rec10*%
X85904000Y-64765000D03*
%TO.P,XA1,D47,D47*%
%TO.N,AUX-HEAD-21*%
X85904000Y-67305000D03*
%TO.P,XA1,D48,D48*%
%TO.N,AUX-HEAD-22*%
X85904000Y-69845000D03*
%TO.P,XA1,D49,D49*%
%TO.N,AUX-HEAD-23*%
X83364000Y-69845000D03*
%TO.P,XA1,D50,D50*%
%TO.N,PORTB_5*%
X85904000Y-72385000D03*
%TO.P,XA1,D51,D51*%
%TO.N,PORTB_6*%
X83364000Y-72385000D03*
%TO.P,XA1,D52,D52*%
%TO.N,PORTB_7*%
X85904000Y-74925000D03*
%TO.P,XA1,D53,D53_SS*%
%TO.N,PORTB_8*%
X83364000Y-74925000D03*
%TO.P,XA1,GND1,GND*%
%TO.N,GND*%
X37644000Y-97785000D03*
%TO.P,XA1,GND2,GND*%
X37644000Y-100325000D03*
%TO.P,XA1,GND3,GND*%
X85904000Y-87625000D03*
%TO.P,XA1,MISO,SPI_MISO*%
%TO.N,unconnected-(XA1-SPI_MISO-PadMISO)*%
X83364000Y-82545000D03*
%TO.P,XA1,MOSI,SPI_MOSI*%
%TO.N,unconnected-(XA1-SPI_MOSI-PadMOSI)*%
X85904000Y-85085000D03*
%TO.P,XA1,RST,RESET*%
%TO.N,unconnected-(XA1-RESET-PadRST)*%
X45264000Y-100325000D03*
%TO.P,XA1,RST1,RESET*%
%TO.N,unconnected-(XA1-RESET-PadRST1)*%
X83364000Y-87625000D03*
%TO.P,XA1,SCK,SPI_SCK*%
%TO.N,unconnected-(XA1-SPI_SCK-PadSCK)*%
X83364000Y-85085000D03*
%TO.P,XA1,VIN,VIN*%
%TO.N,unconnected-(XA1-PadVIN)*%
X35104000Y-97785000D03*
X35104000Y-100325000D03*
%TD*%
D10*
%TO.P,C1,1*%
%TO.N,GND*%
X40864000Y-107358000D03*
%TO.P,C1,2*%
%TO.N,+5V*%
X45864000Y-107358000D03*
%TD*%
D15*
%TO.P,J2,1,Pin_1*%
%TO.N,GND*%
X200449000Y-71991000D03*
D16*
%TO.P,J2,2,Pin_2*%
%TO.N,+5V*%
X197909000Y-71991000D03*
%TO.P,J2,3,Pin_3*%
%TO.N,PORTB_1*%
X195369000Y-71991000D03*
%TO.P,J2,4,Pin_4*%
%TO.N,PORTB_2*%
X192829000Y-71991000D03*
%TO.P,J2,5,Pin_5*%
%TO.N,PORTB_3*%
X190289000Y-71991000D03*
%TO.P,J2,6,Pin_6*%
%TO.N,PORTB_4*%
X187749000Y-71991000D03*
%TO.P,J2,7,Pin_7*%
%TO.N,PORTB_5*%
X185209000Y-71991000D03*
%TO.P,J2,8,Pin_8*%
%TO.N,PORTB_6*%
X182669000Y-71991000D03*
%TO.P,J2,9,Pin_9*%
%TO.N,PORTB_7*%
X180129000Y-71991000D03*
%TO.P,J2,10,Pin_10*%
%TO.N,PORTB_8*%
X177589000Y-71991000D03*
%TO.P,J2,11,Pin_11*%
%TO.N,MP3_EN*%
X175049000Y-71991000D03*
%TO.P,J2,12,Pin_12*%
%TO.N,GND*%
X172509000Y-71991000D03*
%TD*%
D30*
%TO.P,H1,1,1*%
%TO.N,GND*%
X35950000Y-107940000D03*
%TD*%
%TO.P,H2,1,1*%
%TO.N,GND*%
X193970000Y-107940000D03*
%TD*%
%TO.P,H3,1,1*%
%TO.N,GND*%
X35950000Y-16410000D03*
%TD*%
%TO.P,H4,1,1*%
%TO.N,GND*%
X203970000Y-16410000D03*
%TD*%
D11*
%TO.P,D3,1,K*%
%TO.N,+5V*%
X64470000Y-55080000D03*
D12*
%TO.P,D3,2,A*%
%TO.N,Net-(D3-A)*%
X54310000Y-55080000D03*
%TD*%
D20*
%TO.P,J17,1,Pin_1*%
%TO.N,Net-(J17-Pin_1)*%
X75800000Y-18110000D03*
D21*
%TO.P,J17,2,Pin_2*%
%TO.N,GND*%
X78340000Y-18110000D03*
%TD*%
D15*
%TO.P,J9,1,Pin_1*%
%TO.N,GND*%
X157269000Y-69861000D03*
D16*
%TO.P,J9,2,Pin_2*%
%TO.N,+5V*%
X157269000Y-72401000D03*
%TO.P,J9,3,Pin_3*%
%TO.N,unconnected-(J9-Pin_3-Pad3)*%
X157269000Y-74941000D03*
%TO.P,J9,4,Pin_4*%
%TO.N,unconnected-(J9-Pin_4-Pad4)*%
X157269000Y-77481000D03*
%TO.P,J9,5,Pin_5*%
%TO.N,unconnected-(J9-Pin_5-Pad5)*%
X157269000Y-80021000D03*
%TO.P,J9,6,Pin_6*%
%TO.N,Rec9*%
X157269000Y-82561000D03*
%TO.P,J9,7,Pin_7*%
%TO.N,unconnected-(J9-Pin_7-Pad7)*%
X157269000Y-85101000D03*
%TD*%
D15*
%TO.P,J6,1,Pin_1*%
%TO.N,GND*%
X101269000Y-69861000D03*
D16*
%TO.P,J6,2,Pin_2*%
%TO.N,+5V*%
X101269000Y-72401000D03*
%TO.P,J6,3,Pin_3*%
%TO.N,unconnected-(J6-Pin_3-Pad3)*%
X101269000Y-74941000D03*
%TO.P,J6,4,Pin_4*%
%TO.N,unconnected-(J6-Pin_4-Pad4)*%
X101269000Y-77481000D03*
%TO.P,J6,5,Pin_5*%
%TO.N,unconnected-(J6-Pin_5-Pad5)*%
X101269000Y-80021000D03*
%TO.P,J6,6,Pin_6*%
%TO.N,Rec2*%
X101269000Y-82561000D03*
%TO.P,J6,7,Pin_7*%
%TO.N,unconnected-(J6-Pin_7-Pad7)*%
X101269000Y-85101000D03*
%TD*%
D15*
%TO.P,J11,1,Pin_1*%
%TO.N,GND*%
X133269000Y-69861000D03*
D16*
%TO.P,J11,2,Pin_2*%
%TO.N,+5V*%
X133269000Y-72401000D03*
%TO.P,J11,3,Pin_3*%
%TO.N,unconnected-(J11-Pin_3-Pad3)*%
X133269000Y-74941000D03*
%TO.P,J11,4,Pin_4*%
%TO.N,unconnected-(J11-Pin_4-Pad4)*%
X133269000Y-77481000D03*
%TO.P,J11,5,Pin_5*%
%TO.N,unconnected-(J11-Pin_5-Pad5)*%
X133269000Y-80021000D03*
%TO.P,J11,6,Pin_6*%
%TO.N,Rec6*%
X133269000Y-82561000D03*
%TO.P,J11,7,Pin_7*%
%TO.N,unconnected-(J11-Pin_7-Pad7)*%
X133269000Y-85101000D03*
%TD*%
D15*
%TO.P,J12,1,Pin_1*%
%TO.N,GND*%
X141269000Y-69861000D03*
D16*
%TO.P,J12,2,Pin_2*%
%TO.N,+5V*%
X141269000Y-72401000D03*
%TO.P,J12,3,Pin_3*%
%TO.N,unconnected-(J12-Pin_3-Pad3)*%
X141269000Y-74941000D03*
%TO.P,J12,4,Pin_4*%
%TO.N,unconnected-(J12-Pin_4-Pad4)*%
X141269000Y-77481000D03*
%TO.P,J12,5,Pin_5*%
%TO.N,unconnected-(J12-Pin_5-Pad5)*%
X141269000Y-80021000D03*
%TO.P,J12,6,Pin_6*%
%TO.N,Rec7*%
X141269000Y-82561000D03*
%TO.P,J12,7,Pin_7*%
%TO.N,unconnected-(J12-Pin_7-Pad7)*%
X141269000Y-85101000D03*
%TD*%
D15*
%TO.P,J10,1,Pin_1*%
%TO.N,GND*%
X125269000Y-69861000D03*
D16*
%TO.P,J10,2,Pin_2*%
%TO.N,+5V*%
X125269000Y-72401000D03*
%TO.P,J10,3,Pin_3*%
%TO.N,unconnected-(J10-Pin_3-Pad3)*%
X125269000Y-74941000D03*
%TO.P,J10,4,Pin_4*%
%TO.N,unconnected-(J10-Pin_4-Pad4)*%
X125269000Y-77481000D03*
%TO.P,J10,5,Pin_5*%
%TO.N,unconnected-(J10-Pin_5-Pad5)*%
X125269000Y-80021000D03*
%TO.P,J10,6,Pin_6*%
%TO.N,Rec5*%
X125269000Y-82561000D03*
%TO.P,J10,7,Pin_7*%
%TO.N,unconnected-(J10-Pin_7-Pad7)*%
X125269000Y-85101000D03*
%TD*%
D15*
%TO.P,J5,1,Pin_1*%
%TO.N,GND*%
X93269000Y-69861000D03*
D16*
%TO.P,J5,2,Pin_2*%
%TO.N,+5V*%
X93269000Y-72401000D03*
%TO.P,J5,3,Pin_3*%
%TO.N,unconnected-(J5-Pin_3-Pad3)*%
X93269000Y-74941000D03*
%TO.P,J5,4,Pin_4*%
%TO.N,unconnected-(J5-Pin_4-Pad4)*%
X93269000Y-77481000D03*
%TO.P,J5,5,Pin_5*%
%TO.N,unconnected-(J5-Pin_5-Pad5)*%
X93269000Y-80021000D03*
%TO.P,J5,6,Pin_6*%
%TO.N,Rec1*%
X93269000Y-82561000D03*
%TO.P,J5,7,Pin_7*%
%TO.N,unconnected-(J5-Pin_7-Pad7)*%
X93269000Y-85101000D03*
%TD*%
D15*
%TO.P,J13,1,Pin_1*%
%TO.N,GND*%
X149269000Y-69861000D03*
D16*
%TO.P,J13,2,Pin_2*%
%TO.N,+5V*%
X149269000Y-72401000D03*
%TO.P,J13,3,Pin_3*%
%TO.N,unconnected-(J13-Pin_3-Pad3)*%
X149269000Y-74941000D03*
%TO.P,J13,4,Pin_4*%
%TO.N,unconnected-(J13-Pin_4-Pad4)*%
X149269000Y-77481000D03*
%TO.P,J13,5,Pin_5*%
%TO.N,unconnected-(J13-Pin_5-Pad5)*%
X149269000Y-80021000D03*
%TO.P,J13,6,Pin_6*%
%TO.N,Rec8*%
X149269000Y-82561000D03*
%TO.P,J13,7,Pin_7*%
%TO.N,unconnected-(J13-Pin_7-Pad7)*%
X149269000Y-85101000D03*
%TD*%
D15*
%TO.P,J8,1,Pin_1*%
%TO.N,GND*%
X117269000Y-69861000D03*
D16*
%TO.P,J8,2,Pin_2*%
%TO.N,+5V*%
X117269000Y-72401000D03*
%TO.P,J8,3,Pin_3*%
%TO.N,unconnected-(J8-Pin_3-Pad3)*%
X117269000Y-74941000D03*
%TO.P,J8,4,Pin_4*%
%TO.N,unconnected-(J8-Pin_4-Pad4)*%
X117269000Y-77481000D03*
%TO.P,J8,5,Pin_5*%
%TO.N,unconnected-(J8-Pin_5-Pad5)*%
X117269000Y-80021000D03*
%TO.P,J8,6,Pin_6*%
%TO.N,Rec4*%
X117269000Y-82561000D03*
%TO.P,J8,7,Pin_7*%
%TO.N,unconnected-(J8-Pin_7-Pad7)*%
X117269000Y-85101000D03*
%TD*%
D15*
%TO.P,J7,1,Pin_1*%
%TO.N,GND*%
X109269000Y-69861000D03*
D16*
%TO.P,J7,2,Pin_2*%
%TO.N,+5V*%
X109269000Y-72401000D03*
%TO.P,J7,3,Pin_3*%
%TO.N,unconnected-(J7-Pin_3-Pad3)*%
X109269000Y-74941000D03*
%TO.P,J7,4,Pin_4*%
%TO.N,unconnected-(J7-Pin_4-Pad4)*%
X109269000Y-77481000D03*
%TO.P,J7,5,Pin_5*%
%TO.N,unconnected-(J7-Pin_5-Pad5)*%
X109269000Y-80021000D03*
%TO.P,J7,6,Pin_6*%
%TO.N,Rec3*%
X109269000Y-82561000D03*
%TO.P,J7,7,Pin_7*%
%TO.N,unconnected-(J7-Pin_7-Pad7)*%
X109269000Y-85101000D03*
%TD*%
D15*
%TO.P,J14,1,Pin_1*%
%TO.N,GND*%
X164023000Y-69746000D03*
D16*
%TO.P,J14,2,Pin_2*%
%TO.N,+5V*%
X164023000Y-72286000D03*
%TO.P,J14,3,Pin_3*%
%TO.N,unconnected-(J14-Pin_3-Pad3)*%
X164023000Y-74826000D03*
%TO.P,J14,4,Pin_4*%
%TO.N,unconnected-(J14-Pin_4-Pad4)*%
X164023000Y-77366000D03*
%TO.P,J14,5,Pin_5*%
%TO.N,unconnected-(J14-Pin_5-Pad5)*%
X164023000Y-79906000D03*
%TO.P,J14,6,Pin_6*%
%TO.N,Rec10*%
X164023000Y-82446000D03*
%TO.P,J14,7,Pin_7*%
%TO.N,unconnected-(J14-Pin_7-Pad7)*%
X164023000Y-84986000D03*
%TD*%
D15*
%TO.P,J25,1,Pin_1*%
%TO.N,AUX-HEAD-1*%
X51590000Y-108480000D03*
D16*
%TO.P,J25,2,Pin_2*%
%TO.N,AUX-HEAD-14*%
X51590000Y-105940000D03*
%TO.P,J25,3,Pin_3*%
%TO.N,AUX-HEAD-2*%
X54130000Y-108480000D03*
%TO.P,J25,4,Pin_4*%
%TO.N,AUX-HEAD-15*%
X54130000Y-105940000D03*
%TO.P,J25,5,Pin_5*%
%TO.N,AUX-HEAD-3*%
X56670000Y-108480000D03*
%TO.P,J25,6,Pin_6*%
%TO.N,AUX-HEAD-16*%
X56670000Y-105940000D03*
%TO.P,J25,7,Pin_7*%
%TO.N,AUX-HEAD-4*%
X59210000Y-108480000D03*
%TO.P,J25,8,Pin_8*%
%TO.N,AUX-HEAD-17*%
X59210000Y-105940000D03*
%TO.P,J25,9,Pin_9*%
%TO.N,AUX-HEAD-5*%
X61750000Y-108480000D03*
%TO.P,J25,10,Pin_10*%
%TO.N,AUX-HEAD-18*%
X61750000Y-105940000D03*
%TO.P,J25,11,Pin_11*%
%TO.N,AUX-HEAD-6*%
X64290000Y-108480000D03*
%TO.P,J25,12,Pin_12*%
%TO.N,AUX-HEAD-19*%
X64290000Y-105940000D03*
%TO.P,J25,13,Pin_13*%
%TO.N,AUX-HEAD-7*%
X66830000Y-108480000D03*
%TO.P,J25,14,Pin_14*%
%TO.N,AUX-HEAD-21*%
X66830000Y-105940000D03*
%TO.P,J25,15,Pin_15*%
%TO.N,AUX-HEAD-8*%
X69370000Y-108480000D03*
%TO.P,J25,16,Pin_16*%
%TO.N,AUX-HEAD-20*%
X69370000Y-105940000D03*
%TO.P,J25,17,Pin_17*%
%TO.N,AUX-HEAD-9*%
X71910000Y-108480000D03*
%TO.P,J25,18,Pin_18*%
%TO.N,AUX-HEAD-22*%
X71910000Y-105940000D03*
%TO.P,J25,19,Pin_19*%
%TO.N,AUX-HEAD-10*%
X74450000Y-108480000D03*
%TO.P,J25,20,Pin_20*%
%TO.N,AUX-HEAD-23*%
X74450000Y-105940000D03*
%TO.P,J25,21,Pin_21*%
%TO.N,AUX-HEAD-11*%
X76990000Y-108480000D03*
%TO.P,J25,22,Pin_22*%
%TO.N,AUX-HEAD-24*%
X76990000Y-105940000D03*
%TO.P,J25,23,Pin_23*%
%TO.N,AUX-HEAD-12*%
X79530000Y-108480000D03*
%TO.P,J25,24,Pin_24*%
%TO.N,AUX-HEAD-25*%
X79530000Y-105940000D03*
%TO.P,J25,25,Pin_25*%
%TO.N,AUX-HEAD-13*%
X82070000Y-108480000D03*
%TO.P,J25,26,Pin_26*%
%TO.N,AUX-HEAD-26*%
X82070000Y-105940000D03*
%TO.P,J25,27,Pin_27*%
%TO.N,GND*%
X84610000Y-108480000D03*
%TO.P,J25,28,Pin_28*%
%TO.N,+5V*%
X84610000Y-105940000D03*
%TD*%
D15*
%TO.P,J26,1,Pin_1*%
%TO.N,GND*%
X160450000Y-108140000D03*
D16*
%TO.P,J26,2,Pin_2*%
%TO.N,Net-(J26-Pin_2)*%
X157910000Y-108140000D03*
%TO.P,J26,3,Pin_3*%
%TO.N,Net-(J26-Pin_3)*%
X155370000Y-108140000D03*
%TD*%
D31*
%TO.P,U2,1,RO*%
%TO.N,unconnected-(U2-RO-Pad1)*%
X154315000Y-92280000D03*
D32*
%TO.P,U2,2,~{RE}*%
%TO.N,+5V*%
X154315000Y-94820000D03*
%TO.P,U2,3,DE*%
X154315000Y-97360000D03*
%TO.P,U2,4,DI*%
%TO.N,DMX-TX*%
X154315000Y-99900000D03*
%TO.P,U2,5,GND*%
%TO.N,GND*%
X161935000Y-99900000D03*
%TO.P,U2,6,A*%
%TO.N,Net-(J26-Pin_3)*%
X161935000Y-97360000D03*
%TO.P,U2,7,B*%
%TO.N,Net-(J26-Pin_2)*%
X161935000Y-94820000D03*
%TO.P,U2,8,VCC*%
%TO.N,+5V*%
X161935000Y-92280000D03*
%TD*%
D33*
%TO.N,Rec3*%
X88327400Y-81385700D03*
%TO.N,Rec8*%
X146882500Y-67299700D03*
%TO.N,Rec10*%
X147902500Y-66241100D03*
%TO.N,Lamp1*%
X56480300Y-80183000D03*
%TO.N,Lamp3*%
X59592900Y-70444200D03*
X61774000Y-95993900D03*
%TO.N,Lamp5*%
X71891100Y-72856700D03*
%TO.N,Lamp7*%
X73341800Y-74292200D03*
%TO.N,Lamp2*%
X63848000Y-84100200D03*
%TO.N,Lamp4*%
X72616500Y-74981500D03*
%TO.N,Lamp6*%
X115058400Y-94406400D03*
%TO.N,Lamp8*%
X143159300Y-93572700D03*
%TO.N,Lamp9*%
X164102100Y-90972400D03*
%TO.N,AUX-HEAD-4*%
X61836500Y-101894800D03*
%TO.N,AUX-HEAD-2*%
X61082200Y-102584900D03*
%TO.N,AUX-HEAD-5*%
X44542700Y-95488900D03*
X62864800Y-104931900D03*
%TO.N,AUX-HEAD-7*%
X48615400Y-107304700D03*
%TO.N,AUX-HEAD-8*%
X49861000Y-108567300D03*
%TO.N,AUX-HEAD-10*%
X67280600Y-80912900D03*
%TO.N,AUX-HEAD-9*%
X47957200Y-90540900D03*
%TO.N,AUX-HEAD-12*%
X73590200Y-77015400D03*
%TO.N,AUX-HEAD-13*%
X74097800Y-75706900D03*
%TO.N,AUX-HEAD-17*%
X50033500Y-104209900D03*
%TO.N,AUX-HEAD-21*%
X67433600Y-84526500D03*
%TO.N,AUX-HEAD-22*%
X113990100Y-110319900D03*
%TD*%
D34*
%TO.N,GND*%
X43550600Y-46794700D02*
X42475300Y-47870000D01*
X78340000Y-16688600D02*
X63956700Y-16688600D01*
X179550600Y-46794700D02*
X178475300Y-47870000D01*
X117269000Y-69861000D02*
X109269000Y-69861000D01*
X124383900Y-46794700D02*
X125324700Y-47735500D01*
X108324700Y-47870000D02*
X108324700Y-47735600D01*
X61340000Y-18110000D02*
X62535300Y-18110000D01*
X113526400Y-107918900D02*
X113016300Y-108429000D01*
X127150900Y-107918900D02*
X113526400Y-107918900D01*
X192383800Y-46794700D02*
X179550600Y-46794700D01*
X59694500Y-16688600D02*
X60144700Y-17138800D01*
X144475300Y-47870000D02*
X145550600Y-46794700D01*
X159324700Y-47735500D02*
X159324700Y-47870000D01*
X142324700Y-47735500D02*
X142324700Y-47870000D01*
X163340000Y-18110000D02*
X162144700Y-18110000D01*
X58937700Y-47870000D02*
X59475300Y-47870000D01*
X193324700Y-47735600D02*
X192383800Y-46794700D01*
X92668900Y-47870000D02*
X92937700Y-47870000D01*
X128481000Y-109249000D02*
X127150900Y-107918900D01*
X146340000Y-17820800D02*
X147498900Y-16661900D01*
X73383900Y-46794700D02*
X74324700Y-47735500D01*
X57324700Y-47870000D02*
X57324700Y-47735600D01*
X158383900Y-46794700D02*
X159324700Y-47735500D01*
X177400000Y-47870000D02*
X178475300Y-47870000D01*
X111841000Y-108429000D02*
X113016300Y-108429000D01*
X63956700Y-16688600D02*
X62535300Y-18110000D01*
X94013100Y-46794600D02*
X92937700Y-47870000D01*
X109269000Y-69861000D02*
X101269000Y-69861000D01*
X158559300Y-69746000D02*
X158444300Y-69861000D01*
X125269000Y-69861000D02*
X117269000Y-69861000D01*
X196144700Y-18110000D02*
X196144700Y-17138800D01*
X176324700Y-47735500D02*
X176324700Y-47870000D01*
X196144700Y-17138800D02*
X195667800Y-16661900D01*
X93269000Y-69861000D02*
X101269000Y-69861000D01*
X108862400Y-47870000D02*
X108324700Y-47870000D01*
X125324700Y-47735500D02*
X125324700Y-47870000D01*
X78340000Y-18110000D02*
X78340000Y-16801800D01*
X193324700Y-47870000D02*
X193324700Y-47735600D01*
X161667800Y-16661900D02*
X162144700Y-17138800D01*
X180340000Y-16689700D02*
X180340000Y-16661900D01*
X95340000Y-18110000D02*
X94144700Y-18110000D01*
X143400000Y-47870000D02*
X144475300Y-47870000D01*
X160400000Y-47870000D02*
X159324700Y-47870000D01*
X203970000Y-16410000D02*
X200235300Y-16410000D01*
X60144700Y-17138800D02*
X60144700Y-18110000D01*
X112339800Y-16688600D02*
X97956700Y-16688600D01*
X112340000Y-16801800D02*
X112340000Y-16688800D01*
X197340000Y-18110000D02*
X198535300Y-18110000D01*
X41400000Y-20713400D02*
X40253400Y-20713400D01*
X127475300Y-47870000D02*
X128550600Y-46794700D01*
X112340000Y-18110000D02*
X112340000Y-16801800D01*
X108862400Y-47870000D02*
X109400000Y-47870000D01*
X161475300Y-47870000D02*
X162550600Y-46794700D01*
X171333700Y-71991000D02*
X169088700Y-69746000D01*
X180340000Y-18110000D02*
X180340000Y-16689700D01*
X58400000Y-47870000D02*
X57324700Y-47870000D01*
X92400000Y-47870000D02*
X92668900Y-47870000D01*
X200235300Y-16410000D02*
X198535300Y-18110000D01*
X141269000Y-69861000D02*
X149269000Y-69861000D01*
X162550600Y-46794700D02*
X175383900Y-46794700D01*
X160400000Y-47870000D02*
X161475300Y-47870000D01*
X126400000Y-47870000D02*
X125324700Y-47870000D01*
X43144700Y-19047200D02*
X41478500Y-20713400D01*
X78340000Y-16801800D02*
X78340000Y-16688600D01*
X60550600Y-46794700D02*
X73383900Y-46794700D01*
X126400000Y-47870000D02*
X127475300Y-47870000D01*
X160409700Y-99900000D02*
X158090700Y-102219000D01*
X164023000Y-69746000D02*
X158559300Y-69746000D01*
X58937700Y-47870000D02*
X58400000Y-47870000D01*
X141269000Y-69861000D02*
X133269000Y-69861000D01*
X44340000Y-18110000D02*
X43144700Y-18110000D01*
X59475300Y-47870000D02*
X60550600Y-46794700D01*
X162144700Y-17138800D02*
X162144700Y-18110000D01*
X92668900Y-47870000D02*
X91593600Y-46794700D01*
X142862400Y-47870000D02*
X143400000Y-47870000D01*
X46956700Y-16688600D02*
X59694500Y-16688600D01*
X157269000Y-69861000D02*
X158444300Y-69861000D01*
X129340000Y-18110000D02*
X130535300Y-18110000D01*
X146340000Y-18110000D02*
X146340000Y-17820800D01*
X41400000Y-20713400D02*
X41400000Y-46794700D01*
X43144700Y-18110000D02*
X43144700Y-19047200D01*
X108324700Y-47735600D02*
X107383700Y-46794600D01*
X128550600Y-46794700D02*
X141383900Y-46794700D01*
X44340000Y-18110000D02*
X45535300Y-18110000D01*
X61340000Y-18110000D02*
X60144700Y-18110000D01*
X93694500Y-16688600D02*
X78340000Y-16688600D01*
X56383800Y-46794700D02*
X43550600Y-46794700D01*
X41400000Y-47870000D02*
X42475300Y-47870000D01*
X165983400Y-16661900D02*
X164535300Y-18110000D01*
X112340000Y-16688800D02*
X112340200Y-16688600D01*
X41478500Y-20713400D02*
X41400000Y-20713400D01*
X141383900Y-46794700D02*
X142324700Y-47735500D01*
X180340000Y-16661900D02*
X165983400Y-16661900D01*
X112340000Y-16688800D02*
X112339800Y-16688600D01*
X195667800Y-16661900D02*
X180340000Y-16661900D01*
X41400000Y-47870000D02*
X41400000Y-46794700D01*
X161935000Y-99900000D02*
X160409700Y-99900000D01*
X112340200Y-16688600D02*
X127694500Y-16688600D01*
X75400000Y-47870000D02*
X74324700Y-47870000D01*
X97956700Y-16688600D02*
X96535300Y-18110000D01*
X57324700Y-47735600D02*
X56383800Y-46794700D01*
X95340000Y-18110000D02*
X96535300Y-18110000D01*
X94144700Y-18110000D02*
X94144700Y-17138800D01*
X158090700Y-102219000D02*
X148481000Y-102219000D01*
X175383900Y-46794700D02*
X176324700Y-47735500D01*
X107383700Y-46794600D02*
X94013100Y-46794600D01*
X94144700Y-17138800D02*
X93694500Y-16688600D01*
X172509000Y-71991000D02*
X171333700Y-71991000D01*
X146781000Y-102219000D02*
X143781000Y-105219000D01*
X147498900Y-16661900D02*
X161667800Y-16661900D01*
X128144700Y-17138800D02*
X128144700Y-18110000D01*
X142862400Y-47870000D02*
X142324700Y-47870000D01*
X77550600Y-46794700D02*
X76475300Y-47870000D01*
X163340000Y-18110000D02*
X164535300Y-18110000D01*
X133269000Y-69861000D02*
X125269000Y-69861000D01*
X145154900Y-16635700D02*
X132009600Y-16635700D01*
X148481000Y-102219000D02*
X146781000Y-102219000D01*
X145550600Y-46794700D02*
X158383900Y-46794700D01*
X177400000Y-47870000D02*
X176324700Y-47870000D01*
X40253400Y-20713400D02*
X35950000Y-16410000D01*
X146340000Y-17820800D02*
X145154900Y-16635700D01*
X111550600Y-46794700D02*
X124383900Y-46794700D01*
X130351000Y-99939000D02*
X126251000Y-99939000D01*
X109400000Y-47870000D02*
X110475300Y-47870000D01*
X129340000Y-18110000D02*
X128144700Y-18110000D01*
X75400000Y-47870000D02*
X76475300Y-47870000D01*
X197340000Y-18110000D02*
X196144700Y-18110000D01*
X127694500Y-16688600D02*
X128144700Y-17138800D01*
X45535300Y-18110000D02*
X46956700Y-16688600D01*
X169088700Y-69746000D02*
X164023000Y-69746000D01*
X132009600Y-16635700D02*
X130535300Y-18110000D01*
X74324700Y-47735500D02*
X74324700Y-47870000D01*
X91593600Y-46794700D02*
X77550600Y-46794700D01*
X194400000Y-47870000D02*
X193324700Y-47870000D01*
X149269000Y-69861000D02*
X157269000Y-69861000D01*
X110475300Y-47870000D02*
X111550600Y-46794700D01*
%TO.N,+12V*%
X60230000Y-42110000D02*
X43230000Y-42110000D01*
X94230000Y-42110000D02*
X77230000Y-42110000D01*
X196230000Y-42110000D02*
X179230000Y-42110000D01*
X128230000Y-42110000D02*
X145230000Y-42110000D01*
X145230000Y-42110000D02*
X162230000Y-42110000D01*
X179230000Y-42110000D02*
X162230000Y-42110000D01*
X111230000Y-42110000D02*
X94230000Y-42110000D01*
X77230000Y-42110000D02*
X60230000Y-42110000D01*
X128230000Y-42110000D02*
X111230000Y-42110000D01*
%TO.N,+5V*%
X81470000Y-55080000D02*
X82895300Y-55080000D01*
X146619400Y-53654700D02*
X148044700Y-55080000D01*
X101269000Y-72401000D02*
X93269000Y-72401000D01*
X135320600Y-53654700D02*
X146619400Y-53654700D01*
X166470000Y-55080000D02*
X165044700Y-55080000D01*
X186320600Y-53654700D02*
X184895300Y-55080000D01*
X133269000Y-72401000D02*
X125269000Y-72401000D01*
X80044700Y-55080000D02*
X78619400Y-56505300D01*
X64470000Y-55080000D02*
X63044700Y-55080000D01*
X149470000Y-55080000D02*
X148044700Y-55080000D01*
X199254600Y-69470100D02*
X197909000Y-70815700D01*
X132470000Y-55080000D02*
X133895300Y-55080000D01*
X154315000Y-97360000D02*
X152789700Y-97360000D01*
X149470000Y-55080000D02*
X150895300Y-55080000D01*
X90156300Y-108061700D02*
X95669000Y-102549000D01*
X141269000Y-72401000D02*
X133269000Y-72401000D01*
X197909000Y-71991000D02*
X197909000Y-70815700D01*
X158380300Y-92280000D02*
X161935000Y-92280000D01*
X166470000Y-55080000D02*
X167895300Y-55080000D01*
X63044700Y-55080000D02*
X61619400Y-53654700D01*
X133761000Y-103459000D02*
X133761000Y-104884300D01*
X199262300Y-55080000D02*
X199254600Y-55080000D01*
X114757400Y-55080000D02*
X115470000Y-55080000D01*
X61619400Y-53654700D02*
X50320600Y-53654700D01*
X84320600Y-56505300D02*
X82895300Y-55080000D01*
X132470000Y-55080000D02*
X131044700Y-55080000D01*
X106421300Y-106841300D02*
X130238000Y-106841300D01*
X180619400Y-56505300D02*
X169320600Y-56505300D01*
X118320600Y-53654700D02*
X129619400Y-53654700D01*
X183470000Y-55080000D02*
X182044700Y-55080000D01*
X157269000Y-72401000D02*
X158444300Y-72401000D01*
X154315000Y-94820000D02*
X155840300Y-94820000D01*
X138146400Y-97143600D02*
X135351000Y-99939000D01*
X101321000Y-102549000D02*
X102496300Y-102549000D01*
X169320600Y-56505300D02*
X167895300Y-55080000D01*
X90156300Y-108429000D02*
X90156300Y-108061700D01*
X200470000Y-55080000D02*
X199262300Y-55080000D01*
X114757400Y-55080000D02*
X114044700Y-55080000D01*
X158559300Y-72286000D02*
X158444300Y-72401000D01*
X199044700Y-55080000D02*
X197619400Y-53654700D01*
X163619400Y-53654700D02*
X165044700Y-55080000D01*
X101320600Y-53654700D02*
X99895300Y-55080000D01*
X102496300Y-102916300D02*
X106421300Y-106841300D01*
X152573300Y-97143600D02*
X138146400Y-97143600D01*
X81470000Y-55080000D02*
X80044700Y-55080000D01*
X95669000Y-102549000D02*
X101321000Y-102549000D01*
X130238000Y-106841300D02*
X131021000Y-107624300D01*
X199254600Y-55080000D02*
X199254600Y-69470100D01*
X129619400Y-53654700D02*
X131044700Y-55080000D01*
X98470000Y-55080000D02*
X97044700Y-55080000D01*
X112619400Y-53654700D02*
X101320600Y-53654700D01*
X133761000Y-104884300D02*
X131021000Y-107624300D01*
X67320600Y-56505300D02*
X65895300Y-55080000D01*
X150895300Y-55080000D02*
X152320600Y-53654700D01*
X197619400Y-53654700D02*
X186320600Y-53654700D01*
X109269000Y-72401000D02*
X101269000Y-72401000D01*
X114044700Y-55080000D02*
X112619400Y-53654700D01*
X64470000Y-55080000D02*
X65895300Y-55080000D01*
X141269000Y-72401000D02*
X149269000Y-72401000D01*
X199254600Y-55080000D02*
X199044700Y-55080000D01*
X115470000Y-55080000D02*
X116895300Y-55080000D01*
X117269000Y-72401000D02*
X125269000Y-72401000D01*
X116895300Y-55080000D02*
X118320600Y-53654700D01*
X152320600Y-53654700D02*
X163619400Y-53654700D01*
X88981000Y-108429000D02*
X90156300Y-108429000D01*
X164023000Y-72286000D02*
X158559300Y-72286000D01*
X131021000Y-107624300D02*
X131021000Y-109249000D01*
X133895300Y-55080000D02*
X135320600Y-53654700D01*
X184182700Y-55080000D02*
X184895300Y-55080000D01*
X97044700Y-55080000D02*
X95619400Y-56505300D01*
X182044700Y-55080000D02*
X180619400Y-56505300D01*
X102496300Y-102549000D02*
X102496300Y-102916300D01*
X98470000Y-55080000D02*
X99895300Y-55080000D01*
X78619400Y-56505300D02*
X67320600Y-56505300D01*
X50320600Y-53654700D02*
X48895300Y-55080000D01*
X149269000Y-72401000D02*
X157269000Y-72401000D01*
X152789700Y-97360000D02*
X152573300Y-97143600D01*
X95619400Y-56505300D02*
X84320600Y-56505300D01*
X184182700Y-55080000D02*
X183470000Y-55080000D01*
X47470000Y-55080000D02*
X48895300Y-55080000D01*
X155840300Y-94820000D02*
X158380300Y-92280000D01*
%TO.N,Net-(D6-K)*%
X39957000Y-48967000D02*
X44467700Y-48967000D01*
X45990000Y-48670000D02*
X44764700Y-48670000D01*
X38860000Y-47870000D02*
X39957000Y-48967000D01*
X44467700Y-48967000D02*
X44764700Y-48670000D01*
%TO.N,Net-(D7-K)*%
X55860000Y-47870000D02*
X56935400Y-48945400D01*
X61489300Y-48945400D02*
X61764700Y-48670000D01*
X62990000Y-48670000D02*
X61764700Y-48670000D01*
X56935400Y-48945400D02*
X61489300Y-48945400D01*
%TO.N,Net-(D14-K)*%
X107935400Y-48945400D02*
X112489300Y-48945400D01*
X113990000Y-48670000D02*
X112764700Y-48670000D01*
X112489300Y-48945400D02*
X112764700Y-48670000D01*
X106860000Y-47870000D02*
X107935400Y-48945400D01*
%TO.N,Net-(D15-K)*%
X124935400Y-48945400D02*
X129489300Y-48945400D01*
X130990000Y-48670000D02*
X129764700Y-48670000D01*
X129489300Y-48945400D02*
X129764700Y-48670000D01*
X123860000Y-47870000D02*
X124935400Y-48945400D01*
%TO.N,Net-(D16-K)*%
X141935400Y-48945400D02*
X146489300Y-48945400D01*
X147990000Y-48670000D02*
X146764700Y-48670000D01*
X146489300Y-48945400D02*
X146764700Y-48670000D01*
X140860000Y-47870000D02*
X141935400Y-48945400D01*
%TO.N,Net-(D17-K)*%
X158935400Y-48945400D02*
X163489300Y-48945400D01*
X164990000Y-48670000D02*
X163764700Y-48670000D01*
X157860000Y-47870000D02*
X158935400Y-48945400D01*
X163489300Y-48945400D02*
X163764700Y-48670000D01*
%TO.N,Net-(D21-K)*%
X191860000Y-47870000D02*
X192935400Y-48945400D01*
X192935400Y-48945400D02*
X197489300Y-48945400D01*
X197489300Y-48945400D02*
X197764700Y-48670000D01*
X198990000Y-48670000D02*
X197764700Y-48670000D01*
%TO.N,PORTB_1*%
X186573600Y-72288700D02*
X172555900Y-86306400D01*
X194193700Y-71623700D02*
X193348000Y-70778000D01*
X172555900Y-86306400D02*
X64362600Y-86306400D01*
X64362600Y-86306400D02*
X52884000Y-97785000D01*
X195369000Y-71991000D02*
X194193700Y-71991000D01*
X186573600Y-71453200D02*
X186573600Y-72288700D01*
X194193700Y-71991000D02*
X194193700Y-71623700D01*
X187248800Y-70778000D02*
X186573600Y-71453200D01*
X193348000Y-70778000D02*
X187248800Y-70778000D01*
%TO.N,PORTB_2*%
X147785300Y-87921000D02*
X142427300Y-93279000D01*
X60801600Y-93279000D02*
X56694000Y-97386600D01*
X55938000Y-98948600D02*
X54260400Y-98948600D01*
X56694000Y-97386600D02*
X56694000Y-98192600D01*
X192829000Y-71991000D02*
X191653700Y-71991000D01*
X176091000Y-87921000D02*
X147785300Y-87921000D01*
X191653700Y-72358300D02*
X176091000Y-87921000D01*
X56694000Y-98192600D02*
X55938000Y-98948600D01*
X142427300Y-93279000D02*
X60801600Y-93279000D01*
X54260400Y-98948600D02*
X52884000Y-100325000D01*
X191653700Y-71991000D02*
X191653700Y-72358300D01*
%TO.N,PORTB_3*%
X174071800Y-87400200D02*
X92524500Y-87400200D01*
X189113700Y-72358300D02*
X174071800Y-87400200D01*
X190289000Y-71991000D02*
X189113700Y-71991000D01*
X189113700Y-71991000D02*
X189113700Y-72358300D01*
X60380400Y-92828600D02*
X55424000Y-97785000D01*
X87096100Y-92828600D02*
X60380400Y-92828600D01*
X92524500Y-87400200D02*
X87096100Y-92828600D01*
%TO.N,PORTB_4*%
X51668200Y-100756900D02*
X52427100Y-101515800D01*
X53387300Y-98952600D02*
X52591300Y-98952600D01*
X54233200Y-101515800D02*
X55424000Y-100325000D01*
X92232100Y-86943300D02*
X86797200Y-92378200D01*
X52591300Y-98952600D02*
X51668200Y-99875700D01*
X172796700Y-86943300D02*
X92232100Y-86943300D01*
X86797200Y-92378200D02*
X59185300Y-92378200D01*
X54154000Y-97409500D02*
X54154000Y-98185900D01*
X51668200Y-99875700D02*
X51668200Y-100756900D01*
X54154000Y-98185900D02*
X53387300Y-98952600D01*
X52427100Y-101515800D02*
X54233200Y-101515800D01*
X187749000Y-71991000D02*
X172796700Y-86943300D01*
X59185300Y-92378200D02*
X54154000Y-97409500D01*
%TO.N,PORTB_5*%
X83085300Y-68468600D02*
X86829800Y-68468600D01*
X82185600Y-69368300D02*
X83085300Y-68468600D01*
X180522500Y-68112500D02*
X184033700Y-71623700D01*
X184033700Y-71623700D02*
X184033700Y-71991000D01*
X82888000Y-73602800D02*
X82185600Y-72900400D01*
X87185900Y-68112500D02*
X180522500Y-68112500D01*
X86829800Y-68468600D02*
X87185900Y-68112500D01*
X85904000Y-72385000D02*
X85138400Y-72385000D01*
X83920600Y-73602800D02*
X82888000Y-73602800D01*
X82185600Y-72900400D02*
X82185600Y-69368300D01*
X185209000Y-71991000D02*
X184033700Y-71991000D01*
X85138400Y-72385000D02*
X83920600Y-73602800D01*
%TO.N,PORTB_6*%
X83364000Y-72385000D02*
X84634000Y-71115000D01*
X179248600Y-68570600D02*
X182669000Y-71991000D01*
X84634000Y-71115000D02*
X86537100Y-71115000D01*
X86537100Y-71115000D02*
X89081500Y-68570600D01*
X89081500Y-68570600D02*
X179248600Y-68570600D01*
%TO.N,PORTB_7*%
X178953700Y-71991000D02*
X178953700Y-72358300D01*
X175195700Y-76116300D02*
X87095300Y-76116300D01*
X178953700Y-72358300D02*
X175195700Y-76116300D01*
X87095300Y-76116300D02*
X85904000Y-74925000D01*
X180129000Y-71991000D02*
X178953700Y-71991000D01*
%TO.N,PORTB_8*%
X176413700Y-72358300D02*
X174141800Y-74630200D01*
X174141800Y-74630200D02*
X167733200Y-74630200D01*
X84646700Y-73642300D02*
X83364000Y-74925000D01*
X166745300Y-73642300D02*
X84646700Y-73642300D01*
X167733200Y-74630200D02*
X166745300Y-73642300D01*
X177589000Y-71991000D02*
X176413700Y-71991000D01*
X176413700Y-71991000D02*
X176413700Y-72358300D01*
%TO.N,SDA*%
X104417800Y-101373700D02*
X105225700Y-102181600D01*
X73589200Y-102413700D02*
X91530400Y-102413700D01*
X106401000Y-102549000D02*
X105225700Y-102549000D01*
X72025300Y-98963700D02*
X72025300Y-100849800D01*
X91530400Y-102413700D02*
X92570400Y-101373700D01*
X105225700Y-102181600D02*
X105225700Y-102549000D01*
X92570400Y-101373700D02*
X104417800Y-101373700D01*
X73204000Y-97785000D02*
X72025300Y-98963700D01*
X72025300Y-100849800D02*
X73589200Y-102413700D01*
%TO.N,SCL*%
X106476300Y-100892300D02*
X107765700Y-102181700D01*
X73204000Y-100325000D02*
X74842300Y-101963300D01*
X107765700Y-102181700D02*
X107765700Y-102549000D01*
X90859300Y-100892300D02*
X106476300Y-100892300D01*
X74842300Y-101963300D02*
X89788300Y-101963300D01*
X89788300Y-101963300D02*
X90859300Y-100892300D01*
X108941000Y-102549000D02*
X107765700Y-102549000D01*
%TO.N,MP3_EN*%
X181311200Y-72477900D02*
X181311200Y-71494200D01*
X69249400Y-83736500D02*
X69249400Y-83736400D01*
X67734100Y-85251800D02*
X69249400Y-83736500D01*
X50344000Y-97785000D02*
X62877200Y-85251800D01*
X62877200Y-85251800D02*
X67734100Y-85251800D01*
X176231800Y-70808200D02*
X175049000Y-71991000D01*
X180625200Y-70808200D02*
X176231800Y-70808200D01*
X181311200Y-71494200D02*
X180625200Y-70808200D01*
X69249400Y-83736400D02*
X170052700Y-83736400D01*
X170052700Y-83736400D02*
X181311200Y-72477900D01*
%TO.N,Rec3*%
X109269000Y-82561000D02*
X108093700Y-82561000D01*
X108093700Y-82561000D02*
X106918400Y-81385700D01*
X106918400Y-81385700D02*
X88327400Y-81385700D01*
%TO.N,Rec9*%
X152283700Y-78751000D02*
X156093700Y-82561000D01*
X83364000Y-67305000D02*
X81735200Y-68933800D01*
X85521000Y-78751000D02*
X152283700Y-78751000D01*
X81735200Y-74965200D02*
X85521000Y-78751000D01*
X157269000Y-82561000D02*
X156093700Y-82561000D01*
X81735200Y-68933800D02*
X81735200Y-74965200D01*
%TO.N,Rec8*%
X84129700Y-64765000D02*
X83364000Y-64765000D01*
X145617800Y-66035000D02*
X85399700Y-66035000D01*
X146882500Y-67299700D02*
X145617800Y-66035000D01*
X85399700Y-66035000D02*
X84129700Y-64765000D01*
%TO.N,Rec10*%
X85904000Y-64765000D02*
X146426400Y-64765000D01*
X146426400Y-64765000D02*
X147902500Y-66241100D01*
%TO.N,Lamp1*%
X56480300Y-80183000D02*
X37170000Y-60872700D01*
X37170000Y-60872700D02*
X37170000Y-59790000D01*
%TO.N,Lamp3*%
X56694000Y-67719900D02*
X56694000Y-62404000D01*
X59418300Y-70444200D02*
X56694000Y-67719900D01*
X59592900Y-70444200D02*
X59418300Y-70444200D01*
X61774000Y-99055000D02*
X63044000Y-100325000D01*
X56694000Y-62404000D02*
X54090000Y-59800000D01*
X61774000Y-95993900D02*
X61774000Y-99055000D01*
%TO.N,Lamp5*%
X72490000Y-59930000D02*
X71891100Y-60528900D01*
X71891100Y-60528900D02*
X71891100Y-72856700D01*
%TO.N,Lamp7*%
X77014000Y-64386300D02*
X77014000Y-70620000D01*
X88360000Y-59930000D02*
X85638300Y-62651700D01*
X85638300Y-62651700D02*
X78748600Y-62651700D01*
X78748600Y-62651700D02*
X77014000Y-64386300D01*
X77014000Y-70620000D02*
X73341800Y-74292200D01*
%TO.N,Lamp2*%
X63848000Y-84100200D02*
X65398000Y-82550200D01*
X69081300Y-82550200D02*
X79554000Y-72077500D01*
X79554000Y-72077500D02*
X79554000Y-64371400D01*
X80485400Y-63440000D02*
X105260000Y-63440000D01*
X65398000Y-82550200D02*
X69081300Y-82550200D01*
X79554000Y-64371400D02*
X80485400Y-63440000D01*
%TO.N,Lamp4*%
X122040000Y-63180000D02*
X117622800Y-58762800D01*
X72616500Y-73991800D02*
X72616500Y-74981500D01*
X117622800Y-58762800D02*
X80097500Y-58762800D01*
X74474000Y-64386300D02*
X74474000Y-72134300D01*
X74474000Y-72134300D02*
X72616500Y-73991800D01*
X80097500Y-58762800D02*
X74474000Y-64386300D01*
%TO.N,Lamp6*%
X81662600Y-94406400D02*
X115058400Y-94406400D01*
X78284000Y-97785000D02*
X81662600Y-94406400D01*
%TO.N,Lamp8*%
X83453200Y-95155800D02*
X80824000Y-97785000D01*
X143159300Y-93572700D02*
X141576300Y-95155700D01*
X83453200Y-95155700D02*
X83453200Y-95155800D01*
X141576300Y-95155700D02*
X83453200Y-95155700D01*
%TO.N,Lamp9*%
X87067600Y-99055000D02*
X89429400Y-96693200D01*
X158273400Y-90972400D02*
X164102100Y-90972400D01*
X80824000Y-100325000D02*
X82094000Y-99055000D01*
X153648400Y-93405400D02*
X155840400Y-93405400D01*
X89429400Y-96693200D02*
X150360600Y-96693200D01*
X155840400Y-93405400D02*
X158273400Y-90972400D01*
X150360600Y-96693200D02*
X153648400Y-93405400D01*
X82094000Y-99055000D02*
X87067600Y-99055000D01*
%TO.N,Lamp10*%
X196570800Y-68840800D02*
X190220000Y-62490000D01*
X151717300Y-90247000D02*
X178800000Y-90247000D01*
X196570800Y-72476200D02*
X196570800Y-68840800D01*
X145721500Y-96242800D02*
X151717300Y-90247000D01*
X178800000Y-90247000D02*
X196570800Y-72476200D01*
X84906200Y-96242800D02*
X145721500Y-96242800D01*
X83364000Y-97785000D02*
X84906200Y-96242800D01*
%TO.N,Net-(J26-Pin_3)*%
X156545300Y-107286600D02*
X156545300Y-108140000D01*
X155370000Y-108140000D02*
X156545300Y-108140000D01*
X161935000Y-97360000D02*
X163460300Y-97360000D01*
X163460300Y-97360000D02*
X163460300Y-100371600D01*
X163460300Y-100371600D02*
X156545300Y-107286600D01*
%TO.N,AUX-HEAD-4*%
X64420400Y-98948600D02*
X64420400Y-100603900D01*
X65584000Y-97785000D02*
X64420400Y-98948600D01*
X63129500Y-101894800D02*
X61836500Y-101894800D01*
X64420400Y-100603900D02*
X63129500Y-101894800D01*
%TO.N,AUX-HEAD-2*%
X66854000Y-99055000D02*
X66854000Y-100702300D01*
X64936200Y-102620100D02*
X61117400Y-102620100D01*
X66854000Y-100702300D02*
X64936200Y-102620100D01*
X61117400Y-102620100D02*
X61082200Y-102584900D01*
X68124000Y-97785000D02*
X66854000Y-99055000D01*
%TO.N,DMX-TX*%
X145877100Y-101312500D02*
X109688400Y-101312500D01*
X80346600Y-101498200D02*
X79447600Y-100599200D01*
X79447600Y-100599200D02*
X79447600Y-99789500D01*
X71853500Y-96595500D02*
X70664000Y-97785000D01*
X77014000Y-97318100D02*
X76291400Y-96595500D01*
X76291400Y-96595500D02*
X71853500Y-96595500D01*
X147289600Y-99900000D02*
X145877100Y-101312500D01*
X154315000Y-99900000D02*
X147289600Y-99900000D01*
X78606700Y-98948600D02*
X77748600Y-98948600D01*
X87088000Y-101498200D02*
X80346600Y-101498200D01*
X77014000Y-98214000D02*
X77014000Y-97318100D01*
X79447600Y-99789500D02*
X78606700Y-98948600D01*
X109688400Y-101312500D02*
X108807800Y-100431900D01*
X88154300Y-100431900D02*
X87088000Y-101498200D01*
X108807800Y-100431900D02*
X88154300Y-100431900D01*
X77748600Y-98948600D02*
X77014000Y-98214000D01*
%TO.N,AUX-HEAD-5*%
X47165800Y-95488900D02*
X44542700Y-95488900D01*
X55867700Y-102591700D02*
X50929600Y-102591700D01*
X49074000Y-97397100D02*
X47165800Y-95488900D01*
X50929600Y-102591700D02*
X49074000Y-100736100D01*
X49074000Y-100736100D02*
X49074000Y-97397100D01*
X62595600Y-104662700D02*
X57938700Y-104662700D01*
X62864800Y-104931900D02*
X62595600Y-104662700D01*
X57938700Y-104662700D02*
X55867700Y-102591700D01*
%TO.N,AUX-HEAD-7*%
X65654700Y-108480000D02*
X65654700Y-108112600D01*
X65654700Y-108112600D02*
X64846800Y-107304700D01*
X66830000Y-108480000D02*
X65654700Y-108480000D01*
X64846800Y-107304700D02*
X48615400Y-107304700D01*
%TO.N,AUX-HEAD-8*%
X50585500Y-109655300D02*
X67386800Y-109655300D01*
X68194700Y-108847400D02*
X68194700Y-108480000D01*
X69370000Y-108480000D02*
X68194700Y-108480000D01*
X67386800Y-109655300D02*
X68194700Y-108847400D01*
X49861000Y-108567300D02*
X49861000Y-108930800D01*
X49861000Y-108930800D02*
X50585500Y-109655300D01*
%TO.N,AUX-HEAD-10*%
X52884000Y-67305000D02*
X66491900Y-80912900D01*
X66491900Y-80912900D02*
X67280600Y-80912900D01*
%TO.N,AUX-HEAD-9*%
X69380000Y-110132300D02*
X50388200Y-110132300D01*
X46534000Y-97389100D02*
X45571900Y-96427000D01*
X71910000Y-108480000D02*
X70734700Y-108480000D01*
X70734700Y-108777600D02*
X69380000Y-110132300D01*
X43817200Y-94680900D02*
X47957200Y-90540900D01*
X43817200Y-95820500D02*
X43817200Y-94680900D01*
X70734700Y-108480000D02*
X70734700Y-108777600D01*
X45571900Y-96427000D02*
X44423700Y-96427000D01*
X44423700Y-96427000D02*
X43817200Y-95820500D01*
X47890000Y-106064100D02*
X46534000Y-104708100D01*
X47890000Y-107634100D02*
X47890000Y-106064100D01*
X50388200Y-110132300D02*
X47890000Y-107634100D01*
X46534000Y-104708100D02*
X46534000Y-97389100D01*
%TO.N,AUX-HEAD-11*%
X57255600Y-79904600D02*
X57255600Y-80501900D01*
X49411100Y-88003100D02*
X43319200Y-94095000D01*
X43994000Y-97067500D02*
X43994000Y-103738100D01*
X43994000Y-103738100D02*
X47214600Y-106958700D01*
X74057400Y-110604600D02*
X75814700Y-108847300D01*
X51705800Y-66784200D02*
X51705800Y-74354800D01*
X54047600Y-66141400D02*
X52348600Y-66141400D01*
X47214600Y-107608100D02*
X50211100Y-110604600D01*
X75814700Y-108847300D02*
X75814700Y-108480000D01*
X52348600Y-66141400D02*
X51705800Y-66784200D01*
X57255600Y-80501900D02*
X49754400Y-88003100D01*
X55424000Y-64765000D02*
X54047600Y-66141400D01*
X49754400Y-88003100D02*
X49411100Y-88003100D01*
X76990000Y-108480000D02*
X75814700Y-108480000D01*
X50211100Y-110604600D02*
X74057400Y-110604600D01*
X43319200Y-94095000D02*
X43319200Y-96392700D01*
X47214600Y-106958700D02*
X47214600Y-107608100D01*
X43319200Y-96392700D02*
X43994000Y-97067500D01*
X51705800Y-74354800D02*
X57255600Y-79904600D01*
%TO.N,AUX-HEAD-12*%
X65134400Y-77015400D02*
X73590200Y-77015400D01*
X55424000Y-67305000D02*
X65134400Y-77015400D01*
%TO.N,AUX-HEAD-13*%
X67185000Y-75706900D02*
X74097800Y-75706900D01*
X59234000Y-66035000D02*
X59234000Y-67755900D01*
X57964000Y-64765000D02*
X59234000Y-66035000D01*
X59234000Y-67755900D02*
X67185000Y-75706900D01*
%TO.N,AUX-HEAD-17*%
X59210000Y-105940000D02*
X58034700Y-105940000D01*
X50033500Y-104209900D02*
X56671900Y-104209900D01*
X56671900Y-104209900D02*
X58034700Y-105572700D01*
X58034700Y-105572700D02*
X58034700Y-105940000D01*
%TO.N,AUX-HEAD-21*%
X82094000Y-67771900D02*
X81284800Y-68581100D01*
X67744000Y-84526500D02*
X67433600Y-84526500D01*
X81284800Y-70985700D02*
X67744000Y-84526500D01*
X81284800Y-68581100D02*
X81284800Y-70985700D01*
X85904000Y-67305000D02*
X84740400Y-66141400D01*
X82094000Y-66876000D02*
X82094000Y-67771900D01*
X84740400Y-66141400D02*
X82828600Y-66141400D01*
X82828600Y-66141400D02*
X82094000Y-66876000D01*
%TO.N,AUX-HEAD-22*%
X113990100Y-110319900D02*
X82192900Y-110319900D01*
X73085300Y-106307400D02*
X73085300Y-105940000D01*
X73893200Y-107115300D02*
X73085300Y-106307400D01*
X79901000Y-107115300D02*
X73893200Y-107115300D01*
X71910000Y-105940000D02*
X73085300Y-105940000D01*
X82192900Y-110319900D02*
X80705400Y-108832400D01*
X80705400Y-108832400D02*
X80705400Y-107919700D01*
X80705400Y-107919700D02*
X79901000Y-107115300D01*
%TO.N,AUX-HEAD-24*%
X76990000Y-105940000D02*
X75814700Y-105940000D01*
X56813800Y-102141300D02*
X52160300Y-102141300D01*
X58884800Y-104212300D02*
X56813800Y-102141300D01*
X74448600Y-104206600D02*
X62564400Y-104206600D01*
X52160300Y-102141300D02*
X50344000Y-100325000D01*
X62558700Y-104212300D02*
X58884800Y-104212300D01*
X75814700Y-105940000D02*
X75814700Y-105572700D01*
X75814700Y-105572700D02*
X74448600Y-104206600D01*
X62564400Y-104206600D02*
X62558700Y-104212300D01*
%TO.N,AUX-HEAD-25*%
X76538300Y-103756300D02*
X62377800Y-103756300D01*
X62372100Y-103762000D02*
X59748200Y-103762000D01*
X78354700Y-105572700D02*
X76538300Y-103756300D01*
X56773400Y-100787200D02*
X56773400Y-98975600D01*
X56773400Y-98975600D02*
X57964000Y-97785000D01*
X78354700Y-105940000D02*
X78354700Y-105572700D01*
X59748200Y-103762000D02*
X56773400Y-100787200D01*
X79530000Y-105940000D02*
X78354700Y-105940000D01*
X62377800Y-103756300D02*
X62372100Y-103762000D01*
%TO.N,AUX-HEAD-26*%
X80894700Y-105940000D02*
X80894700Y-105572700D01*
X60770300Y-103311500D02*
X57964000Y-100505200D01*
X62191200Y-103306000D02*
X62185700Y-103311500D01*
X80894700Y-105572700D02*
X78628000Y-103306000D01*
X57964000Y-100505200D02*
X57964000Y-100325000D01*
X82070000Y-105940000D02*
X80894700Y-105940000D01*
X78628000Y-103306000D02*
X62191200Y-103306000D01*
X62185700Y-103311500D02*
X60770300Y-103311500D01*
%TD*%
M02*
