M48
; DRILL file {KiCad 7.0.2} date Mon May 15 21:15:10 2023
; FORMAT={-:-/ absolute / inch / decimal}
; #@! TF.CreationDate,2023-05-15T21:15:10+01:00
; #@! TF.GenerationSoftware,Kicad,Pcbnew,7.0.2
; #@! TF.FileFunction,Plated,1,2,PTH
FMAT,2
INCH
; #@! TA.AperFunction,Plated,PTH,ViaDrill
T1C0.0157
; #@! TA.AperFunction,Plated,PTH,ComponentDrill
T2C0.0315
; #@! TA.AperFunction,Plated,PTH,ComponentDrill
T3C0.0354
; #@! TA.AperFunction,Plated,PTH,ComponentDrill
T4C0.0394
; #@! TA.AperFunction,Plated,PTH,ComponentDrill
T5C0.0433
; #@! TA.AperFunction,Plated,PTH,ComponentDrill
T6C0.0469
; #@! TA.AperFunction,Plated,PTH,ComponentDrill
T7C0.0512
; #@! TA.AperFunction,Plated,PTH,ComponentDrill
T8C0.1260
%
G90
G05
T1
X1.7536Y-3.7594
X1.8881Y-3.5646
X1.914Y-4.2246
X1.963Y-4.2743
X1.9698Y-4.1028
X2.2236Y-3.1568
X2.3462Y-2.7734
X2.4048Y-4.0388
X2.432Y-3.7793
X2.4345Y-4.0116
X2.475Y-4.1312
X2.5137Y-3.311
X2.6488Y-3.1855
X2.6549Y-3.3278
X2.8304Y-2.8684
X2.8589Y-2.952
X2.8875Y-2.9249
X2.8973Y-3.0321
X2.9172Y-2.9806
X3.4775Y-3.2042
X4.4878Y-4.3433
X4.5299Y-3.7168
X5.6362Y-3.684
X5.7828Y-2.6496
X5.8229Y-2.6079
X6.4607Y-3.5816
T2
X1.382Y-3.8498
X1.382Y-3.9498
X1.4299Y-1.8846
X1.4634Y-2.3539
X1.482Y-3.8498
X1.482Y-3.9498
X1.5299Y-1.8846
X1.582Y-3.8498
X1.582Y-3.9498
X1.6088Y-4.2267
X1.6299Y-1.8846
X1.682Y-3.8498
X1.682Y-3.9498
X1.782Y-3.8498
X1.782Y-3.9498
X1.8057Y-4.2267
X1.8634Y-2.3539
X1.882Y-2.5498
X1.882Y-2.6498
X1.882Y-3.8498
X1.882Y-3.9498
X1.982Y-2.5498
X1.982Y-2.6498
X1.982Y-3.8498
X1.982Y-3.9498
X2.082Y-2.5498
X2.082Y-2.6498
X2.082Y-3.8498
X2.082Y-3.9498
X2.0992Y-1.8846
X2.1295Y-2.3543
X2.182Y-2.5498
X2.182Y-2.6498
X2.182Y-3.8498
X2.182Y-3.9498
X2.1992Y-1.8846
X2.282Y-2.5498
X2.282Y-2.6498
X2.282Y-3.8498
X2.282Y-3.9498
X2.2992Y-1.8846
X2.382Y-2.5498
X2.382Y-2.6498
X2.382Y-3.8498
X2.382Y-3.9498
X2.482Y-2.5498
X2.482Y-2.6498
X2.482Y-3.8498
X2.482Y-3.9498
X2.5295Y-2.3543
X2.582Y-2.5498
X2.582Y-2.6498
X2.582Y-3.8498
X2.582Y-3.9498
X2.682Y-2.5498
X2.682Y-2.6498
X2.682Y-3.8498
X2.682Y-3.9498
X2.7685Y-1.8846
X2.782Y-2.5498
X2.782Y-2.6498
X2.782Y-3.8498
X2.782Y-3.9498
X2.8539Y-2.3594
X2.8685Y-1.8846
X2.882Y-2.5498
X2.882Y-2.6498
X2.882Y-3.8498
X2.882Y-3.9498
X2.9685Y-1.8846
X2.982Y-2.5498
X2.982Y-2.6498
X2.982Y-3.8498
X2.982Y-3.9498
X3.082Y-2.5498
X3.082Y-2.6498
X3.082Y-3.8498
X3.082Y-3.9498
X3.182Y-2.5498
X3.182Y-2.6498
X3.182Y-3.8498
X3.182Y-3.9498
X3.2539Y-2.3594
X3.282Y-2.5498
X3.282Y-2.6498
X3.282Y-2.7498
X3.282Y-2.8498
X3.282Y-2.9498
X3.282Y-3.2498
X3.282Y-3.3498
X3.282Y-3.4498
X3.282Y-3.8498
X3.282Y-3.9498
X3.382Y-2.5498
X3.382Y-2.6498
X3.382Y-2.7498
X3.382Y-2.8498
X3.382Y-2.9498
X3.382Y-3.2498
X3.382Y-3.3498
X3.382Y-3.4498
X3.382Y-3.8498
X3.382Y-3.9498
X3.4378Y-1.8846
X3.4787Y-2.3594
X3.5378Y-1.8846
X3.6378Y-1.8846
X3.8787Y-2.3594
X4.1071Y-1.8846
X4.1441Y-2.4976
X4.2071Y-1.8846
X4.3071Y-1.8846
X4.5441Y-2.4976
X4.7737Y-3.9346
X4.7764Y-1.8846
X4.8047Y-2.4874
X4.8764Y-1.8846
X4.9705Y-3.9346
X4.9764Y-1.8846
X5.1319Y-3.9346
X5.2047Y-2.4874
X5.3288Y-3.9346
X5.4457Y-1.8846
X5.4858Y-2.5028
X5.5457Y-1.8846
X5.6457Y-1.8846
X5.8858Y-2.5028
X6.0754Y-3.6331
X6.0754Y-3.7331
X6.0754Y-3.8331
X6.0754Y-3.9331
X6.115Y-1.8846
X6.1917Y-2.4772
X6.215Y-1.8846
X6.315Y-1.8846
X6.3754Y-3.6331
X6.3754Y-3.7331
X6.3754Y-3.8331
X6.3754Y-3.9331
X6.5917Y-2.4772
X6.7843Y-1.8846
X6.8272Y-2.4618
X6.8843Y-1.8846
X6.9843Y-1.8846
X7.2272Y-2.4618
X7.4535Y-1.8846
X7.489Y-2.4602
X7.5535Y-1.8846
X7.6535Y-1.8846
X7.889Y-2.4602
T3
X1.8106Y-1.9161
X1.9106Y-1.9161
X2.4799Y-1.9161
X2.5799Y-1.9161
X3.1492Y-1.9161
X3.2492Y-1.9161
X3.8185Y-1.9161
X3.9185Y-1.9161
X4.4878Y-1.9161
X4.5878Y-1.9161
X5.1571Y-1.9161
X5.2571Y-1.9161
X5.8264Y-1.9161
X5.9264Y-1.9161
X6.4957Y-1.9161
X6.5957Y-1.9161
X7.165Y-1.9161
X7.265Y-1.9161
X7.8343Y-1.9161
X7.9343Y-1.9161
T4
X1.4677Y-1.5811
X1.9402Y-1.5811
X2.0311Y-4.1709
X2.0311Y-4.2709
X2.1311Y-4.1709
X2.1311Y-4.2709
X2.137Y-1.5811
X2.2311Y-4.1709
X2.2311Y-4.2709
X2.3311Y-4.1709
X2.3311Y-4.2709
X2.4311Y-4.1709
X2.4311Y-4.2709
X2.5311Y-4.1709
X2.5311Y-4.2709
X2.6094Y-1.5811
X2.6311Y-4.1709
X2.6311Y-4.2709
X2.7311Y-4.1709
X2.7311Y-4.2709
X2.8063Y-1.5811
X2.8311Y-4.1709
X2.8311Y-4.2709
X2.9311Y-4.1709
X2.9311Y-4.2709
X3.0311Y-4.1709
X3.0311Y-4.2709
X3.1311Y-4.1709
X3.1311Y-4.2709
X3.2311Y-4.1709
X3.2311Y-4.2709
X3.2787Y-1.5811
X3.3311Y-4.1709
X3.3311Y-4.2709
X3.4756Y-1.5811
X3.5032Y-4.2689
X3.6032Y-4.2689
X3.672Y-2.7504
X3.672Y-2.8504
X3.672Y-2.9504
X3.672Y-3.0504
X3.672Y-3.1504
X3.672Y-3.2504
X3.672Y-3.3504
X3.7032Y-4.2689
X3.8032Y-4.2689
X3.9032Y-4.2689
X3.948Y-1.5811
X3.987Y-2.7504
X3.987Y-2.8504
X3.987Y-2.9504
X3.987Y-3.0504
X3.987Y-3.1504
X3.987Y-3.2504
X3.987Y-3.3504
X3.989Y-4.0374
X4.0032Y-4.2689
X4.089Y-4.0374
X4.1032Y-4.2689
X4.1449Y-1.5811
X4.189Y-4.0374
X4.2032Y-4.2689
X4.289Y-4.0374
X4.3019Y-2.7504
X4.3019Y-2.8504
X4.3019Y-2.9504
X4.3019Y-3.0504
X4.3019Y-3.1504
X4.3019Y-3.2504
X4.3019Y-3.3504
X4.3032Y-4.2689
X4.4032Y-4.2689
X4.6169Y-2.7504
X4.6169Y-2.8504
X4.6169Y-2.9504
X4.6169Y-3.0504
X4.6169Y-3.1504
X4.6169Y-3.2504
X4.6169Y-3.3504
X4.6173Y-1.5811
X4.8142Y-1.5811
X4.9319Y-2.7504
X4.9319Y-2.8504
X4.9319Y-2.9504
X4.9319Y-3.0504
X4.9319Y-3.1504
X4.9319Y-3.2504
X4.9319Y-3.3504
X5.2468Y-2.7504
X5.2468Y-2.8504
X5.2468Y-2.9504
X5.2468Y-3.0504
X5.2468Y-3.1504
X5.2468Y-3.2504
X5.2468Y-3.3504
X5.2866Y-1.5811
X5.4835Y-1.5811
X5.5618Y-2.7504
X5.5618Y-2.8504
X5.5618Y-2.9504
X5.5618Y-3.0504
X5.5618Y-3.1504
X5.5618Y-3.2504
X5.5618Y-3.3504
X5.8767Y-2.7504
X5.8767Y-2.8504
X5.8767Y-2.9504
X5.8767Y-3.0504
X5.8767Y-3.1504
X5.8767Y-3.2504
X5.8767Y-3.3504
X5.9559Y-1.5811
X6.1169Y-4.2575
X6.1528Y-1.5811
X6.1917Y-2.7504
X6.1917Y-2.8504
X6.1917Y-2.9504
X6.1917Y-3.0504
X6.1917Y-3.1504
X6.1917Y-3.2504
X6.1917Y-3.3504
X6.2169Y-4.2575
X6.3169Y-4.2575
X6.4576Y-2.7459
X6.4576Y-2.8459
X6.4576Y-2.9459
X6.4576Y-3.0459
X6.4576Y-3.1459
X6.4576Y-3.2459
X6.4576Y-3.3459
X6.6252Y-1.5811
X6.7917Y-2.8343
X6.822Y-1.5811
X6.8917Y-2.8343
X6.9917Y-2.8343
X7.0917Y-2.8343
X7.1917Y-2.8343
X7.2917Y-2.8343
X7.2945Y-1.5811
X7.3917Y-2.8343
X7.4913Y-1.5811
X7.4917Y-2.8343
X7.5917Y-2.8343
X7.6917Y-2.8343
X7.7917Y-2.8343
X7.8917Y-2.8343
X7.9638Y-1.5811
T5
X1.4689Y-2.1685
X1.8689Y-2.1685
X2.1382Y-2.1685
X2.5382Y-2.1685
X2.8075Y-2.1685
X3.2075Y-2.1685
X3.4768Y-2.1685
X3.8768Y-2.1685
X4.1461Y-2.1685
X4.5461Y-2.1685
X4.8154Y-2.1685
X4.8662Y-4.0732
X4.9583Y-4.3011
X5.0583Y-4.3011
X5.1583Y-4.3011
X5.2154Y-2.1685
X5.2662Y-4.0732
X5.4846Y-2.1685
X5.8846Y-2.1685
X6.1539Y-2.1685
X6.5539Y-2.1685
X6.8232Y-2.1685
X7.2232Y-2.1685
X7.4925Y-2.1685
X7.8925Y-2.1685
T6
X1.6457Y-0.713
X1.7457Y-0.713
X2.315Y-0.713
X2.415Y-0.713
X2.9843Y-0.713
X3.0843Y-0.713
X3.6535Y-0.713
X3.7535Y-0.713
X4.3228Y-0.713
X4.4228Y-0.713
X4.9921Y-0.713
X5.0921Y-0.713
X5.6614Y-0.713
X5.7614Y-0.713
X6.3307Y-0.713
X6.4307Y-0.713
X7.0Y-0.713
X7.1Y-0.713
X7.6693Y-0.713
X7.7693Y-0.713
T7
X1.702Y-1.6579
X1.9402Y-1.1008
X2.3713Y-1.6579
X2.6094Y-1.1008
X3.0406Y-1.6579
X3.2787Y-1.1008
X3.7098Y-1.6579
X3.948Y-1.1008
X4.3791Y-1.6579
X4.6173Y-1.1008
X5.0484Y-1.6579
X5.2866Y-1.1008
X5.7177Y-1.6579
X5.9559Y-1.1008
X6.387Y-1.6579
X6.6252Y-1.1008
X7.0563Y-1.6579
X7.2945Y-1.1008
X7.7256Y-1.6579
X7.9638Y-1.1008
T8
X1.4154Y-0.6461
X1.4154Y-4.2496
X7.6366Y-4.2496
X8.0303Y-0.6461
T4
G00X5.6213Y-3.9063
M15
G01X5.7Y-3.9063
M16
G05
G00X5.6213Y-4.1425
M15
G01X5.7Y-4.1425
M16
G05
G00X5.8457Y-4.0637
M15
G01X5.8457Y-3.985
M16
G05
T0
M30
