%TF.GenerationSoftware,KiCad,Pcbnew,7.0.2*%
%TF.CreationDate,2023-05-15T21:15:08+01:00*%
%TF.ProjectId,quizbuzzer,7175697a-6275-47a7-9a65-722e6b696361,V0.1.2*%
%TF.SameCoordinates,Original*%
%TF.FileFunction,Copper,L2,Bot*%
%TF.FilePolarity,Positive*%
%FSLAX46Y46*%
G04 Gerber Fmt 4.6, Leading zero omitted, Abs format (unit mm)*
G04 Created by KiCad (PCBNEW 7.0.2) date 2023-05-15 21:15:08*
%MOMM*%
%LPD*%
G01*
G04 APERTURE LIST*
G04 Aperture macros list*
%AMRoundRect*
0 Rectangle with rounded corners*
0 $1 Rounding radius*
0 $2 $3 $4 $5 $6 $7 $8 $9 X,Y pos of 4 corners*
0 Add a 4 corners polygon primitive as box body*
4,1,4,$2,$3,$4,$5,$6,$7,$8,$9,$2,$3,0*
0 Add four circle primitives for the rounded corners*
1,1,$1+$1,$2,$3*
1,1,$1+$1,$4,$5*
1,1,$1+$1,$6,$7*
1,1,$1+$1,$8,$9*
0 Add four rect primitives between the rounded corners*
20,1,$1+$1,$2,$3,$4,$5,0*
20,1,$1+$1,$4,$5,$6,$7,0*
20,1,$1+$1,$6,$7,$8,$9,0*
20,1,$1+$1,$8,$9,$2,$3,0*%
G04 Aperture macros list end*
%TA.AperFunction,ComponentPad*%
%ADD10C,1.600000*%
%TD*%
%TA.AperFunction,ComponentPad*%
%ADD11R,2.200000X2.200000*%
%TD*%
%TA.AperFunction,ComponentPad*%
%ADD12O,2.200000X2.200000*%
%TD*%
%TA.AperFunction,ComponentPad*%
%ADD13R,1.800000X1.800000*%
%TD*%
%TA.AperFunction,ComponentPad*%
%ADD14C,1.800000*%
%TD*%
%TA.AperFunction,ComponentPad*%
%ADD15R,1.700000X1.700000*%
%TD*%
%TA.AperFunction,ComponentPad*%
%ADD16O,1.700000X1.700000*%
%TD*%
%TA.AperFunction,ComponentPad*%
%ADD17R,3.500000X3.500000*%
%TD*%
%TA.AperFunction,ComponentPad*%
%ADD18RoundRect,0.750000X1.000000X-0.750000X1.000000X0.750000X-1.000000X0.750000X-1.000000X-0.750000X0*%
%TD*%
%TA.AperFunction,ComponentPad*%
%ADD19RoundRect,0.875000X0.875000X-0.875000X0.875000X0.875000X-0.875000X0.875000X-0.875000X-0.875000X0*%
%TD*%
%TA.AperFunction,ComponentPad*%
%ADD20RoundRect,0.249999X-0.620001X-0.845001X0.620001X-0.845001X0.620001X0.845001X-0.620001X0.845001X0*%
%TD*%
%TA.AperFunction,ComponentPad*%
%ADD21O,1.740000X2.190000*%
%TD*%
%TA.AperFunction,ComponentPad*%
%ADD22C,3.000000*%
%TD*%
%TA.AperFunction,ComponentPad*%
%ADD23C,2.500000*%
%TD*%
%TA.AperFunction,ComponentPad*%
%ADD24R,1.500000X1.500000*%
%TD*%
%TA.AperFunction,ComponentPad*%
%ADD25C,1.500000*%
%TD*%
%TA.AperFunction,ComponentPad*%
%ADD26O,1.600000X1.600000*%
%TD*%
%TA.AperFunction,ComponentPad*%
%ADD27R,1.905000X2.000000*%
%TD*%
%TA.AperFunction,ComponentPad*%
%ADD28O,1.905000X2.000000*%
%TD*%
%TA.AperFunction,ComponentPad*%
%ADD29C,1.676400*%
%TD*%
%TA.AperFunction,ComponentPad*%
%ADD30C,5.600000*%
%TD*%
%TA.AperFunction,ComponentPad*%
%ADD31R,2.400000X1.600000*%
%TD*%
%TA.AperFunction,ComponentPad*%
%ADD32O,2.400000X1.600000*%
%TD*%
%TA.AperFunction,ViaPad*%
%ADD33C,0.800000*%
%TD*%
%TA.AperFunction,Conductor*%
%ADD34C,0.250000*%
%TD*%
G04 APERTURE END LIST*
D10*
%TO.P,C2,1*%
%TO.N,+12V*%
X121251000Y-99939000D03*
%TO.P,C2,2*%
%TO.N,GND*%
X126251000Y-99939000D03*
%TD*%
%TO.P,C3,1*%
%TO.N,+5V*%
X135351000Y-99939000D03*
%TO.P,C3,2*%
%TO.N,GND*%
X130351000Y-99939000D03*
%TD*%
D11*
%TO.P,D1,1,K*%
%TO.N,+12V*%
X123601000Y-103459000D03*
D12*
%TO.P,D1,2,A*%
%TO.N,+5V*%
X133761000Y-103459000D03*
%TD*%
D11*
%TO.P,D2,1,K*%
%TO.N,+5V*%
X47470000Y-55080000D03*
D12*
%TO.P,D2,2,A*%
%TO.N,Net-(D2-A)*%
X37310000Y-55080000D03*
%TD*%
D11*
%TO.P,D4,1,K*%
%TO.N,+5V*%
X81470000Y-55080000D03*
D12*
%TO.P,D4,2,A*%
%TO.N,Net-(D4-A)*%
X71310000Y-55080000D03*
%TD*%
D11*
%TO.P,D5,1,K*%
%TO.N,+5V*%
X98470000Y-55080000D03*
D12*
%TO.P,D5,2,A*%
%TO.N,Net-(D5-A)*%
X88310000Y-55080000D03*
%TD*%
D13*
%TO.P,D6,1,K*%
%TO.N,Net-(D6-K)*%
X45990000Y-48670000D03*
D14*
%TO.P,D6,2,A*%
%TO.N,Net-(D6-A)*%
X48530000Y-48670000D03*
%TD*%
D13*
%TO.P,D7,1,K*%
%TO.N,Net-(D7-K)*%
X62990000Y-48670000D03*
D14*
%TO.P,D7,2,A*%
%TO.N,Net-(D7-A)*%
X65530000Y-48670000D03*
%TD*%
D13*
%TO.P,D8,1,K*%
%TO.N,Net-(D8-K)*%
X79990000Y-48670000D03*
D14*
%TO.P,D8,2,A*%
%TO.N,Net-(D8-A)*%
X82530000Y-48670000D03*
%TD*%
D13*
%TO.P,D9,1,K*%
%TO.N,Net-(D9-K)*%
X96990000Y-48670000D03*
D14*
%TO.P,D9,2,A*%
%TO.N,Net-(D9-A)*%
X99530000Y-48670000D03*
%TD*%
D11*
%TO.P,D10,1,K*%
%TO.N,+5V*%
X115470000Y-55080000D03*
D12*
%TO.P,D10,2,A*%
%TO.N,Net-(D10-A)*%
X105310000Y-55080000D03*
%TD*%
D11*
%TO.P,D11,1,K*%
%TO.N,+5V*%
X132470000Y-55080000D03*
D12*
%TO.P,D11,2,A*%
%TO.N,Net-(D11-A)*%
X122310000Y-55080000D03*
%TD*%
D11*
%TO.P,D12,1,K*%
%TO.N,+5V*%
X149470000Y-55080000D03*
D12*
%TO.P,D12,2,A*%
%TO.N,Net-(D12-A)*%
X139310000Y-55080000D03*
%TD*%
D11*
%TO.P,D13,1,K*%
%TO.N,+5V*%
X166470000Y-55080000D03*
D12*
%TO.P,D13,2,A*%
%TO.N,Net-(D13-A)*%
X156310000Y-55080000D03*
%TD*%
D13*
%TO.P,D14,1,K*%
%TO.N,Net-(D14-K)*%
X113990000Y-48670000D03*
D14*
%TO.P,D14,2,A*%
%TO.N,Net-(D14-A)*%
X116530000Y-48670000D03*
%TD*%
D13*
%TO.P,D15,1,K*%
%TO.N,Net-(D15-K)*%
X130990000Y-48670000D03*
D14*
%TO.P,D15,2,A*%
%TO.N,Net-(D15-A)*%
X133530000Y-48670000D03*
%TD*%
D13*
%TO.P,D16,1,K*%
%TO.N,Net-(D16-K)*%
X147990000Y-48670000D03*
D14*
%TO.P,D16,2,A*%
%TO.N,Net-(D16-A)*%
X150530000Y-48670000D03*
%TD*%
D13*
%TO.P,D17,1,K*%
%TO.N,Net-(D17-K)*%
X164990000Y-48670000D03*
D14*
%TO.P,D17,2,A*%
%TO.N,Net-(D17-A)*%
X167530000Y-48670000D03*
%TD*%
D11*
%TO.P,D18,1,K*%
%TO.N,+5V*%
X183470000Y-55080000D03*
D12*
%TO.P,D18,2,A*%
%TO.N,Net-(D18-A)*%
X173310000Y-55080000D03*
%TD*%
D13*
%TO.P,D19,1,K*%
%TO.N,Net-(D19-K)*%
X181990000Y-48670000D03*
D14*
%TO.P,D19,2,A*%
%TO.N,Net-(D19-A)*%
X184530000Y-48670000D03*
%TD*%
D11*
%TO.P,D20,1,K*%
%TO.N,+5V*%
X200470000Y-55080000D03*
D12*
%TO.P,D20,2,A*%
%TO.N,Net-(D20-A)*%
X190310000Y-55080000D03*
%TD*%
D13*
%TO.P,D21,1,K*%
%TO.N,Net-(D21-K)*%
X198990000Y-48670000D03*
D14*
%TO.P,D21,2,A*%
%TO.N,Net-(D21-A)*%
X201530000Y-48670000D03*
%TD*%
D15*
%TO.P,J1,1,Pin_1*%
%TO.N,+5V*%
X88981000Y-108429000D03*
D16*
%TO.P,J1,2,Pin_2*%
%TO.N,Net-(J1-Pin_2)*%
X91521000Y-108429000D03*
%TO.P,J1,3,Pin_3*%
%TO.N,Net-(J1-Pin_3)*%
X94061000Y-108429000D03*
%TO.P,J1,4,Pin_4*%
%TO.N,Net-(J1-Pin_4)*%
X96601000Y-108429000D03*
%TO.P,J1,5,Pin_5*%
%TO.N,Net-(J1-Pin_5)*%
X99141000Y-108429000D03*
%TO.P,J1,6,Pin_6*%
%TO.N,Net-(J1-Pin_6)*%
X101681000Y-108429000D03*
%TO.P,J1,7,Pin_7*%
%TO.N,Net-(J1-Pin_7)*%
X104221000Y-108429000D03*
%TO.P,J1,8,Pin_8*%
%TO.N,Net-(J1-Pin_8)*%
X106761000Y-108429000D03*
%TO.P,J1,9,Pin_9*%
%TO.N,Net-(J1-Pin_9)*%
X109301000Y-108429000D03*
%TO.P,J1,10,Pin_10*%
%TO.N,GND*%
X111841000Y-108429000D03*
%TD*%
D15*
%TO.P,J3,1,Pin_1*%
%TO.N,+5V*%
X101321000Y-102549000D03*
D16*
%TO.P,J3,2,Pin_2*%
%TO.N,GND*%
X103861000Y-102549000D03*
%TO.P,J3,3,Pin_3*%
%TO.N,SDA*%
X106401000Y-102549000D03*
%TO.P,J3,4,Pin_4*%
%TO.N,SCL*%
X108941000Y-102549000D03*
%TD*%
D17*
%TO.P,J4,1*%
%TO.N,+12V*%
X143781000Y-99219000D03*
D18*
%TO.P,J4,2*%
%TO.N,GND*%
X143781000Y-105219000D03*
D19*
%TO.P,J4,3*%
X148481000Y-102219000D03*
%TD*%
D20*
%TO.P,J15,1,Pin_1*%
%TO.N,Net-(J15-Pin_1)*%
X41800000Y-18110000D03*
D21*
%TO.P,J15,2,Pin_2*%
%TO.N,GND*%
X44340000Y-18110000D03*
%TD*%
D20*
%TO.P,J16,1,Pin_1*%
%TO.N,Net-(J16-Pin_1)*%
X58800000Y-18110000D03*
D21*
%TO.P,J16,2,Pin_2*%
%TO.N,GND*%
X61340000Y-18110000D03*
%TD*%
D20*
%TO.P,J18,1,Pin_1*%
%TO.N,Net-(J18-Pin_1)*%
X92800000Y-18110000D03*
D21*
%TO.P,J18,2,Pin_2*%
%TO.N,GND*%
X95340000Y-18110000D03*
%TD*%
D20*
%TO.P,J19,1,Pin_1*%
%TO.N,Net-(J19-Pin_1)*%
X109800000Y-18110000D03*
D21*
%TO.P,J19,2,Pin_2*%
%TO.N,GND*%
X112340000Y-18110000D03*
%TD*%
D20*
%TO.P,J20,1,Pin_1*%
%TO.N,Net-(J20-Pin_1)*%
X126800000Y-18110000D03*
D21*
%TO.P,J20,2,Pin_2*%
%TO.N,GND*%
X129340000Y-18110000D03*
%TD*%
D20*
%TO.P,J21,1,Pin_1*%
%TO.N,Net-(J21-Pin_1)*%
X143800000Y-18110000D03*
D21*
%TO.P,J21,2,Pin_2*%
%TO.N,GND*%
X146340000Y-18110000D03*
%TD*%
D20*
%TO.P,J22,1,Pin_1*%
%TO.N,Net-(J22-Pin_1)*%
X160800000Y-18110000D03*
D21*
%TO.P,J22,2,Pin_2*%
%TO.N,GND*%
X163340000Y-18110000D03*
%TD*%
D20*
%TO.P,J23,1,Pin_1*%
%TO.N,Net-(J23-Pin_1)*%
X177800000Y-18110000D03*
D21*
%TO.P,J23,2,Pin_2*%
%TO.N,GND*%
X180340000Y-18110000D03*
%TD*%
D20*
%TO.P,J24,1,Pin_1*%
%TO.N,Net-(J24-Pin_1)*%
X194800000Y-18110000D03*
D21*
%TO.P,J24,2,Pin_2*%
%TO.N,GND*%
X197340000Y-18110000D03*
%TD*%
D22*
%TO.P,K1,1*%
%TO.N,+12V*%
X43230000Y-42110000D03*
D23*
%TO.P,K1,2*%
%TO.N,+5V*%
X49280000Y-40160000D03*
D22*
%TO.P,K1,3*%
%TO.N,Net-(J15-Pin_1)*%
X49280000Y-27960000D03*
D23*
%TO.P,K1,5*%
%TO.N,Net-(D2-A)*%
X37280000Y-40160000D03*
%TD*%
D22*
%TO.P,K2,1*%
%TO.N,+12V*%
X60230000Y-42110000D03*
D23*
%TO.P,K2,2*%
%TO.N,+5V*%
X66280000Y-40160000D03*
D22*
%TO.P,K2,3*%
%TO.N,Net-(J16-Pin_1)*%
X66280000Y-27960000D03*
D23*
%TO.P,K2,5*%
%TO.N,Net-(D3-A)*%
X54280000Y-40160000D03*
%TD*%
D22*
%TO.P,K3,1*%
%TO.N,+12V*%
X77230000Y-42110000D03*
D23*
%TO.P,K3,2*%
%TO.N,+5V*%
X83280000Y-40160000D03*
D22*
%TO.P,K3,3*%
%TO.N,Net-(J17-Pin_1)*%
X83280000Y-27960000D03*
D23*
%TO.P,K3,5*%
%TO.N,Net-(D4-A)*%
X71280000Y-40160000D03*
%TD*%
D22*
%TO.P,K4,1*%
%TO.N,+12V*%
X94230000Y-42110000D03*
D23*
%TO.P,K4,2*%
%TO.N,+5V*%
X100280000Y-40160000D03*
D22*
%TO.P,K4,3*%
%TO.N,Net-(J18-Pin_1)*%
X100280000Y-27960000D03*
D23*
%TO.P,K4,5*%
%TO.N,Net-(D5-A)*%
X88280000Y-40160000D03*
%TD*%
D22*
%TO.P,K5,1*%
%TO.N,+12V*%
X111230000Y-42110000D03*
D23*
%TO.P,K5,2*%
%TO.N,+5V*%
X117280000Y-40160000D03*
D22*
%TO.P,K5,3*%
%TO.N,Net-(J19-Pin_1)*%
X117280000Y-27960000D03*
D23*
%TO.P,K5,5*%
%TO.N,Net-(D10-A)*%
X105280000Y-40160000D03*
%TD*%
D22*
%TO.P,K6,1*%
%TO.N,+12V*%
X128230000Y-42110000D03*
D23*
%TO.P,K6,2*%
%TO.N,+5V*%
X134280000Y-40160000D03*
D22*
%TO.P,K6,3*%
%TO.N,Net-(J20-Pin_1)*%
X134280000Y-27960000D03*
D23*
%TO.P,K6,5*%
%TO.N,Net-(D11-A)*%
X122280000Y-40160000D03*
%TD*%
D22*
%TO.P,K7,1*%
%TO.N,+12V*%
X145230000Y-42110000D03*
D23*
%TO.P,K7,2*%
%TO.N,+5V*%
X151280000Y-40160000D03*
D22*
%TO.P,K7,3*%
%TO.N,Net-(J21-Pin_1)*%
X151280000Y-27960000D03*
D23*
%TO.P,K7,5*%
%TO.N,Net-(D12-A)*%
X139280000Y-40160000D03*
%TD*%
D22*
%TO.P,K8,1*%
%TO.N,+12V*%
X162230000Y-42110000D03*
D23*
%TO.P,K8,2*%
%TO.N,+5V*%
X168280000Y-40160000D03*
D22*
%TO.P,K8,3*%
%TO.N,Net-(J22-Pin_1)*%
X168280000Y-27960000D03*
D23*
%TO.P,K8,5*%
%TO.N,Net-(D13-A)*%
X156280000Y-40160000D03*
%TD*%
D22*
%TO.P,K9,1*%
%TO.N,+12V*%
X179230000Y-42110000D03*
D23*
%TO.P,K9,2*%
%TO.N,+5V*%
X185280000Y-40160000D03*
D22*
%TO.P,K9,3*%
%TO.N,Net-(J23-Pin_1)*%
X185280000Y-27960000D03*
D23*
%TO.P,K9,5*%
%TO.N,Net-(D18-A)*%
X173280000Y-40160000D03*
%TD*%
D22*
%TO.P,K10,1*%
%TO.N,+12V*%
X196230000Y-42110000D03*
D23*
%TO.P,K10,2*%
%TO.N,+5V*%
X202280000Y-40160000D03*
D22*
%TO.P,K10,3*%
%TO.N,Net-(J24-Pin_1)*%
X202280000Y-27960000D03*
D23*
%TO.P,K10,5*%
%TO.N,Net-(D20-A)*%
X190280000Y-40160000D03*
%TD*%
D24*
%TO.P,Q1,1,E*%
%TO.N,GND*%
X41400000Y-47870000D03*
D25*
%TO.P,Q1,2,B*%
%TO.N,Net-(D6-K)*%
X38860000Y-47870000D03*
%TO.P,Q1,3,C*%
%TO.N,Net-(D2-A)*%
X36320000Y-47870000D03*
%TD*%
D24*
%TO.P,Q2,1,E*%
%TO.N,GND*%
X58400000Y-47870000D03*
D25*
%TO.P,Q2,2,B*%
%TO.N,Net-(D7-K)*%
X55860000Y-47870000D03*
%TO.P,Q2,3,C*%
%TO.N,Net-(D3-A)*%
X53320000Y-47870000D03*
%TD*%
D24*
%TO.P,Q3,1,E*%
%TO.N,GND*%
X75400000Y-47870000D03*
D25*
%TO.P,Q3,2,B*%
%TO.N,Net-(D8-K)*%
X72860000Y-47870000D03*
%TO.P,Q3,3,C*%
%TO.N,Net-(D4-A)*%
X70320000Y-47870000D03*
%TD*%
D24*
%TO.P,Q4,1,E*%
%TO.N,GND*%
X92400000Y-47870000D03*
D25*
%TO.P,Q4,2,B*%
%TO.N,Net-(D9-K)*%
X89860000Y-47870000D03*
%TO.P,Q4,3,C*%
%TO.N,Net-(D5-A)*%
X87320000Y-47870000D03*
%TD*%
D24*
%TO.P,Q5,1,E*%
%TO.N,GND*%
X109400000Y-47870000D03*
D25*
%TO.P,Q5,2,B*%
%TO.N,Net-(D14-K)*%
X106860000Y-47870000D03*
%TO.P,Q5,3,C*%
%TO.N,Net-(D10-A)*%
X104320000Y-47870000D03*
%TD*%
D24*
%TO.P,Q6,1,E*%
%TO.N,GND*%
X126400000Y-47870000D03*
D25*
%TO.P,Q6,2,B*%
%TO.N,Net-(D15-K)*%
X123860000Y-47870000D03*
%TO.P,Q6,3,C*%
%TO.N,Net-(D11-A)*%
X121320000Y-47870000D03*
%TD*%
D24*
%TO.P,Q7,1,E*%
%TO.N,GND*%
X143400000Y-47870000D03*
D25*
%TO.P,Q7,2,B*%
%TO.N,Net-(D16-K)*%
X140860000Y-47870000D03*
%TO.P,Q7,3,C*%
%TO.N,Net-(D12-A)*%
X138320000Y-47870000D03*
%TD*%
D24*
%TO.P,Q8,1,E*%
%TO.N,GND*%
X160400000Y-47870000D03*
D25*
%TO.P,Q8,2,B*%
%TO.N,Net-(D17-K)*%
X157860000Y-47870000D03*
%TO.P,Q8,3,C*%
%TO.N,Net-(D13-A)*%
X155320000Y-47870000D03*
%TD*%
D24*
%TO.P,Q9,1,E*%
%TO.N,GND*%
X177400000Y-47870000D03*
D25*
%TO.P,Q9,2,B*%
%TO.N,Net-(D19-K)*%
X174860000Y-47870000D03*
%TO.P,Q9,3,C*%
%TO.N,Net-(D18-A)*%
X172320000Y-47870000D03*
%TD*%
D24*
%TO.P,Q10,1,E*%
%TO.N,GND*%
X194400000Y-47870000D03*
D25*
%TO.P,Q10,2,B*%
%TO.N,Net-(D21-K)*%
X191860000Y-47870000D03*
%TO.P,Q10,3,C*%
%TO.N,Net-(D20-A)*%
X189320000Y-47870000D03*
%TD*%
D10*
%TO.P,R9,1*%
%TO.N,Lamp1*%
X37170000Y-59790000D03*
D26*
%TO.P,R9,2*%
%TO.N,Net-(D6-A)*%
X47330000Y-59790000D03*
%TD*%
D10*
%TO.P,R10,1*%
%TO.N,Lamp3*%
X54090000Y-59800000D03*
D26*
%TO.P,R10,2*%
%TO.N,Net-(D7-A)*%
X64250000Y-59800000D03*
%TD*%
D10*
%TO.P,R11,1*%
%TO.N,Lamp5*%
X72490000Y-59930000D03*
D26*
%TO.P,R11,2*%
%TO.N,Net-(D8-A)*%
X82650000Y-59930000D03*
%TD*%
D10*
%TO.P,R12,1*%
%TO.N,Lamp7*%
X88360000Y-59930000D03*
D26*
%TO.P,R12,2*%
%TO.N,Net-(D9-A)*%
X98520000Y-59930000D03*
%TD*%
D10*
%TO.P,R13,1*%
%TO.N,Lamp2*%
X105260000Y-63440000D03*
D26*
%TO.P,R13,2*%
%TO.N,Net-(D14-A)*%
X115420000Y-63440000D03*
%TD*%
D10*
%TO.P,R14,1*%
%TO.N,Lamp4*%
X122040000Y-63180000D03*
D26*
%TO.P,R14,2*%
%TO.N,Net-(D15-A)*%
X132200000Y-63180000D03*
%TD*%
D10*
%TO.P,R15,1*%
%TO.N,Lamp6*%
X139340000Y-63570000D03*
D26*
%TO.P,R15,2*%
%TO.N,Net-(D16-A)*%
X149500000Y-63570000D03*
%TD*%
D10*
%TO.P,R16,1*%
%TO.N,Lamp8*%
X157270000Y-62920000D03*
D26*
%TO.P,R16,2*%
%TO.N,Net-(D17-A)*%
X167430000Y-62920000D03*
%TD*%
D10*
%TO.P,R17,1*%
%TO.N,Lamp9*%
X173410000Y-62530000D03*
D26*
%TO.P,R17,2*%
%TO.N,Net-(D19-A)*%
X183570000Y-62530000D03*
%TD*%
D10*
%TO.P,R18,1*%
%TO.N,Lamp10*%
X190220000Y-62490000D03*
D26*
%TO.P,R18,2*%
%TO.N,Net-(D21-A)*%
X200380000Y-62490000D03*
%TD*%
D27*
%TO.P,U1,1,IN*%
%TO.N,+12V*%
X125941000Y-109249000D03*
D28*
%TO.P,U1,2,GND*%
%TO.N,GND*%
X128481000Y-109249000D03*
%TO.P,U1,3,OUT*%
%TO.N,+5V*%
X131021000Y-109249000D03*
%TD*%
D29*
%TO.P,XA1,3V3,3.3V*%
%TO.N,unconnected-(XA1-3.3V-Pad3V3)*%
X42724000Y-97785000D03*
X42724000Y-100325000D03*
%TO.P,XA1,5V1,5V*%
%TO.N,+5V*%
X40184000Y-97785000D03*
%TO.P,XA1,5V2,SPI_5V*%
X40184000Y-100325000D03*
%TO.P,XA1,5V3,5V*%
X85904000Y-82545000D03*
%TO.P,XA1,A0,A0*%
%TO.N,AUX-HEAD-5*%
X47804000Y-64765000D03*
%TO.P,XA1,A1,A1*%
%TO.N,AUX-HEAD-6*%
X47804000Y-67305000D03*
%TO.P,XA1,A2,A2*%
%TO.N,AUX-HEAD-7*%
X50344000Y-64765000D03*
%TO.P,XA1,A3,A3*%
%TO.N,AUX-HEAD-8*%
X50344000Y-67305000D03*
%TO.P,XA1,A4,A4*%
%TO.N,AUX-HEAD-9*%
X52884000Y-64765000D03*
%TO.P,XA1,A5,A5*%
%TO.N,AUX-HEAD-10*%
X52884000Y-67305000D03*
%TO.P,XA1,A6,A6*%
%TO.N,AUX-HEAD-11*%
X55424000Y-64765000D03*
%TO.P,XA1,A7,A7*%
%TO.N,AUX-HEAD-12*%
X55424000Y-67305000D03*
%TO.P,XA1,A8,A8*%
%TO.N,AUX-HEAD-13*%
X57964000Y-64765000D03*
%TO.P,XA1,A9,A9*%
%TO.N,AUX-HEAD-14*%
X57964000Y-67305000D03*
%TO.P,XA1,A10,A10*%
%TO.N,AUX-HEAD-15*%
X60504000Y-64765000D03*
%TO.P,XA1,A11,A11*%
%TO.N,AUX-HEAD-16*%
X60504000Y-67305000D03*
%TO.P,XA1,A12,A12*%
%TO.N,AUX-HEAD-17*%
X63044000Y-64765000D03*
%TO.P,XA1,A13,A13*%
%TO.N,AUX-HEAD-18*%
X63044000Y-67305000D03*
%TO.P,XA1,A14,A14*%
%TO.N,AUX-HEAD-19*%
X65584000Y-64765000D03*
%TO.P,XA1,A15,A15*%
%TO.N,AUX-HEAD-20*%
X65584000Y-67305000D03*
%TO.P,XA1,AREF,AREF*%
%TO.N,unconnected-(XA1-PadAREF)*%
X45264000Y-97785000D03*
%TO.P,XA1,D0,D0_RX0*%
%TO.N,unconnected-(XA1-D0_RX0-PadD0)*%
X47804000Y-97785000D03*
%TO.P,XA1,D1,D1_TX0*%
%TO.N,unconnected-(XA1-D1_TX0-PadD1)*%
X47804000Y-100325000D03*
%TO.P,XA1,D2,D2_INT0*%
%TO.N,MP3_EN*%
X50344000Y-97785000D03*
%TO.P,XA1,D3,D3_INT1*%
%TO.N,AUX-HEAD-24*%
X50344000Y-100325000D03*
%TO.P,XA1,D4,D4*%
%TO.N,PORTB_1*%
X52884000Y-97785000D03*
%TO.P,XA1,D5,D5*%
%TO.N,PORTB_2*%
X52884000Y-100325000D03*
%TO.P,XA1,D6,D6*%
%TO.N,PORTB_3*%
X55424000Y-97785000D03*
%TO.P,XA1,D7,D7*%
%TO.N,PORTB_4*%
X55424000Y-100325000D03*
%TO.P,XA1,D8,D8*%
%TO.N,AUX-HEAD-25*%
X57964000Y-97785000D03*
%TO.P,XA1,D9,D9*%
%TO.N,AUX-HEAD-26*%
X57964000Y-100325000D03*
%TO.P,XA1,D10,D10*%
%TO.N,AUX-HEAD-27*%
X60504000Y-97785000D03*
%TO.P,XA1,D11,D11*%
%TO.N,Lamp1*%
X60504000Y-100325000D03*
%TO.P,XA1,D12,D12*%
%TO.N,Lamp2*%
X63044000Y-97785000D03*
%TO.P,XA1,D13,D13*%
%TO.N,Lamp3*%
X63044000Y-100325000D03*
%TO.P,XA1,D14,D14_TX3*%
%TO.N,AUX-HEAD-4*%
X65584000Y-97785000D03*
%TO.P,XA1,D15,D15_RX3*%
%TO.N,AUX-HEAD-3*%
X65584000Y-100325000D03*
%TO.P,XA1,D16,D16_TX2*%
%TO.N,AUX-HEAD-2*%
X68124000Y-97785000D03*
%TO.P,XA1,D17,D17_RX2*%
%TO.N,AUX-HEAD-1*%
X68124000Y-100325000D03*
%TO.P,XA1,D18,D18_TX1*%
%TO.N,DMX-TX*%
X70664000Y-97785000D03*
%TO.P,XA1,D19,D19_RX1*%
%TO.N,DMX-RX*%
X70664000Y-100325000D03*
%TO.P,XA1,D20,D20_SDA*%
%TO.N,SDA*%
X73204000Y-97785000D03*
%TO.P,XA1,D21,D21_SCL*%
%TO.N,SCL*%
X73204000Y-100325000D03*
%TO.P,XA1,D22,D22*%
%TO.N,Lamp4*%
X75744000Y-97785000D03*
%TO.P,XA1,D23,D23*%
%TO.N,Lamp5*%
X75744000Y-100325000D03*
%TO.P,XA1,D24,D24*%
%TO.N,Lamp6*%
X78284000Y-97785000D03*
%TO.P,XA1,D25,D25*%
%TO.N,Lamp7*%
X78284000Y-100325000D03*
%TO.P,XA1,D26,D26*%
%TO.N,Lamp8*%
X80824000Y-97785000D03*
%TO.P,XA1,D27,D27*%
%TO.N,Lamp9*%
X80824000Y-100325000D03*
%TO.P,XA1,D28,D28*%
%TO.N,Lamp10*%
X83364000Y-97785000D03*
%TO.P,XA1,D29,D29*%
%TO.N,Net-(J1-Pin_2)*%
X83364000Y-100325000D03*
%TO.P,XA1,D30,D30*%
%TO.N,Net-(J1-Pin_3)*%
X85904000Y-97785000D03*
%TO.P,XA1,D31,D31*%
%TO.N,Net-(J1-Pin_4)*%
X85904000Y-100325000D03*
%TO.P,XA1,D32,D32*%
%TO.N,Net-(J1-Pin_5)*%
X68124000Y-64765000D03*
%TO.P,XA1,D33,D33*%
%TO.N,Net-(J1-Pin_6)*%
X68124000Y-67305000D03*
%TO.P,XA1,D34,D34*%
%TO.N,Net-(J1-Pin_7)*%
X70664000Y-64765000D03*
%TO.P,XA1,D35,D35*%
%TO.N,Net-(J1-Pin_8)*%
X70664000Y-67305000D03*
%TO.P,XA1,D36,D36*%
%TO.N,Net-(J1-Pin_9)*%
X73204000Y-64765000D03*
%TO.P,XA1,D37,D37*%
%TO.N,Rec1*%
X73204000Y-67305000D03*
%TO.P,XA1,D38,D38*%
%TO.N,Rec2*%
X75744000Y-64765000D03*
%TO.P,XA1,D39,D39*%
%TO.N,Rec3*%
X75744000Y-67305000D03*
%TO.P,XA1,D40,D40*%
%TO.N,Rec4*%
X78284000Y-64765000D03*
%TO.P,XA1,D41,D41*%
%TO.N,Rec5*%
X78284000Y-67305000D03*
%TO.P,XA1,D42,D42*%
%TO.N,Rec6*%
X80824000Y-64765000D03*
%TO.P,XA1,D43,D43*%
%TO.N,Rec7*%
X80824000Y-67305000D03*
%TO.P,XA1,D44,D44*%
%TO.N,Rec8*%
X83364000Y-64765000D03*
%TO.P,XA1,D45,D45*%
%TO.N,Rec9*%
X83364000Y-67305000D03*
%TO.P,XA1,D46,D46*%
%TO.N,Rec10*%
X85904000Y-64765000D03*
%TO.P,XA1,D47,D47*%
%TO.N,AUX-HEAD-21*%
X85904000Y-67305000D03*
%TO.P,XA1,D48,D48*%
%TO.N,AUX-HEAD-22*%
X85904000Y-69845000D03*
%TO.P,XA1,D49,D49*%
%TO.N,AUX-HEAD-23*%
X83364000Y-69845000D03*
%TO.P,XA1,D50,D50*%
%TO.N,PORTB_5*%
X85904000Y-72385000D03*
%TO.P,XA1,D51,D51*%
%TO.N,PORTB_6*%
X83364000Y-72385000D03*
%TO.P,XA1,D52,D52*%
%TO.N,PORTB_7*%
X85904000Y-74925000D03*
%TO.P,XA1,D53,D53_SS*%
%TO.N,PORTB_8*%
X83364000Y-74925000D03*
%TO.P,XA1,GND1,GND*%
%TO.N,GND*%
X37644000Y-97785000D03*
%TO.P,XA1,GND2,GND*%
X37644000Y-100325000D03*
%TO.P,XA1,GND3,GND*%
X85904000Y-87625000D03*
%TO.P,XA1,MISO,SPI_MISO*%
%TO.N,unconnected-(XA1-SPI_MISO-PadMISO)*%
X83364000Y-82545000D03*
%TO.P,XA1,MOSI,SPI_MOSI*%
%TO.N,unconnected-(XA1-SPI_MOSI-PadMOSI)*%
X85904000Y-85085000D03*
%TO.P,XA1,RST,RESET*%
%TO.N,unconnected-(XA1-RESET-PadRST)*%
X45264000Y-100325000D03*
%TO.P,XA1,RST1,RESET*%
%TO.N,unconnected-(XA1-RESET-PadRST1)*%
X83364000Y-87625000D03*
%TO.P,XA1,SCK,SPI_SCK*%
%TO.N,unconnected-(XA1-SPI_SCK-PadSCK)*%
X83364000Y-85085000D03*
%TO.P,XA1,VIN,VIN*%
%TO.N,unconnected-(XA1-PadVIN)*%
X35104000Y-97785000D03*
X35104000Y-100325000D03*
%TD*%
D10*
%TO.P,C1,1*%
%TO.N,GND*%
X40864000Y-107358000D03*
%TO.P,C1,2*%
%TO.N,+5V*%
X45864000Y-107358000D03*
%TD*%
D15*
%TO.P,J2,1,Pin_1*%
%TO.N,GND*%
X200449000Y-71991000D03*
D16*
%TO.P,J2,2,Pin_2*%
%TO.N,+5V*%
X197909000Y-71991000D03*
%TO.P,J2,3,Pin_3*%
%TO.N,PORTB_1*%
X195369000Y-71991000D03*
%TO.P,J2,4,Pin_4*%
%TO.N,PORTB_2*%
X192829000Y-71991000D03*
%TO.P,J2,5,Pin_5*%
%TO.N,PORTB_3*%
X190289000Y-71991000D03*
%TO.P,J2,6,Pin_6*%
%TO.N,PORTB_4*%
X187749000Y-71991000D03*
%TO.P,J2,7,Pin_7*%
%TO.N,PORTB_5*%
X185209000Y-71991000D03*
%TO.P,J2,8,Pin_8*%
%TO.N,PORTB_6*%
X182669000Y-71991000D03*
%TO.P,J2,9,Pin_9*%
%TO.N,PORTB_7*%
X180129000Y-71991000D03*
%TO.P,J2,10,Pin_10*%
%TO.N,PORTB_8*%
X177589000Y-71991000D03*
%TO.P,J2,11,Pin_11*%
%TO.N,MP3_EN*%
X175049000Y-71991000D03*
%TO.P,J2,12,Pin_12*%
%TO.N,GND*%
X172509000Y-71991000D03*
%TD*%
D30*
%TO.P,H1,1,1*%
%TO.N,GND*%
X35950000Y-107940000D03*
%TD*%
%TO.P,H2,1,1*%
%TO.N,GND*%
X193970000Y-107940000D03*
%TD*%
%TO.P,H3,1,1*%
%TO.N,GND*%
X35950000Y-16410000D03*
%TD*%
%TO.P,H4,1,1*%
%TO.N,GND*%
X203970000Y-16410000D03*
%TD*%
D11*
%TO.P,D3,1,K*%
%TO.N,+5V*%
X64470000Y-55080000D03*
D12*
%TO.P,D3,2,A*%
%TO.N,Net-(D3-A)*%
X54310000Y-55080000D03*
%TD*%
D20*
%TO.P,J17,1,Pin_1*%
%TO.N,Net-(J17-Pin_1)*%
X75800000Y-18110000D03*
D21*
%TO.P,J17,2,Pin_2*%
%TO.N,GND*%
X78340000Y-18110000D03*
%TD*%
D15*
%TO.P,J9,1,Pin_1*%
%TO.N,GND*%
X157269000Y-69861000D03*
D16*
%TO.P,J9,2,Pin_2*%
%TO.N,+5V*%
X157269000Y-72401000D03*
%TO.P,J9,3,Pin_3*%
%TO.N,unconnected-(J9-Pin_3-Pad3)*%
X157269000Y-74941000D03*
%TO.P,J9,4,Pin_4*%
%TO.N,unconnected-(J9-Pin_4-Pad4)*%
X157269000Y-77481000D03*
%TO.P,J9,5,Pin_5*%
%TO.N,unconnected-(J9-Pin_5-Pad5)*%
X157269000Y-80021000D03*
%TO.P,J9,6,Pin_6*%
%TO.N,Rec9*%
X157269000Y-82561000D03*
%TO.P,J9,7,Pin_7*%
%TO.N,unconnected-(J9-Pin_7-Pad7)*%
X157269000Y-85101000D03*
%TD*%
D15*
%TO.P,J6,1,Pin_1*%
%TO.N,GND*%
X101269000Y-69861000D03*
D16*
%TO.P,J6,2,Pin_2*%
%TO.N,+5V*%
X101269000Y-72401000D03*
%TO.P,J6,3,Pin_3*%
%TO.N,unconnected-(J6-Pin_3-Pad3)*%
X101269000Y-74941000D03*
%TO.P,J6,4,Pin_4*%
%TO.N,unconnected-(J6-Pin_4-Pad4)*%
X101269000Y-77481000D03*
%TO.P,J6,5,Pin_5*%
%TO.N,unconnected-(J6-Pin_5-Pad5)*%
X101269000Y-80021000D03*
%TO.P,J6,6,Pin_6*%
%TO.N,Rec2*%
X101269000Y-82561000D03*
%TO.P,J6,7,Pin_7*%
%TO.N,unconnected-(J6-Pin_7-Pad7)*%
X101269000Y-85101000D03*
%TD*%
D15*
%TO.P,J11,1,Pin_1*%
%TO.N,GND*%
X133269000Y-69861000D03*
D16*
%TO.P,J11,2,Pin_2*%
%TO.N,+5V*%
X133269000Y-72401000D03*
%TO.P,J11,3,Pin_3*%
%TO.N,unconnected-(J11-Pin_3-Pad3)*%
X133269000Y-74941000D03*
%TO.P,J11,4,Pin_4*%
%TO.N,unconnected-(J11-Pin_4-Pad4)*%
X133269000Y-77481000D03*
%TO.P,J11,5,Pin_5*%
%TO.N,unconnected-(J11-Pin_5-Pad5)*%
X133269000Y-80021000D03*
%TO.P,J11,6,Pin_6*%
%TO.N,Rec6*%
X133269000Y-82561000D03*
%TO.P,J11,7,Pin_7*%
%TO.N,unconnected-(J11-Pin_7-Pad7)*%
X133269000Y-85101000D03*
%TD*%
D15*
%TO.P,J12,1,Pin_1*%
%TO.N,GND*%
X141269000Y-69861000D03*
D16*
%TO.P,J12,2,Pin_2*%
%TO.N,+5V*%
X141269000Y-72401000D03*
%TO.P,J12,3,Pin_3*%
%TO.N,unconnected-(J12-Pin_3-Pad3)*%
X141269000Y-74941000D03*
%TO.P,J12,4,Pin_4*%
%TO.N,unconnected-(J12-Pin_4-Pad4)*%
X141269000Y-77481000D03*
%TO.P,J12,5,Pin_5*%
%TO.N,unconnected-(J12-Pin_5-Pad5)*%
X141269000Y-80021000D03*
%TO.P,J12,6,Pin_6*%
%TO.N,Rec7*%
X141269000Y-82561000D03*
%TO.P,J12,7,Pin_7*%
%TO.N,unconnected-(J12-Pin_7-Pad7)*%
X141269000Y-85101000D03*
%TD*%
D15*
%TO.P,J10,1,Pin_1*%
%TO.N,GND*%
X125269000Y-69861000D03*
D16*
%TO.P,J10,2,Pin_2*%
%TO.N,+5V*%
X125269000Y-72401000D03*
%TO.P,J10,3,Pin_3*%
%TO.N,unconnected-(J10-Pin_3-Pad3)*%
X125269000Y-74941000D03*
%TO.P,J10,4,Pin_4*%
%TO.N,unconnected-(J10-Pin_4-Pad4)*%
X125269000Y-77481000D03*
%TO.P,J10,5,Pin_5*%
%TO.N,unconnected-(J10-Pin_5-Pad5)*%
X125269000Y-80021000D03*
%TO.P,J10,6,Pin_6*%
%TO.N,Rec5*%
X125269000Y-82561000D03*
%TO.P,J10,7,Pin_7*%
%TO.N,unconnected-(J10-Pin_7-Pad7)*%
X125269000Y-85101000D03*
%TD*%
D15*
%TO.P,J5,1,Pin_1*%
%TO.N,GND*%
X93269000Y-69861000D03*
D16*
%TO.P,J5,2,Pin_2*%
%TO.N,+5V*%
X93269000Y-72401000D03*
%TO.P,J5,3,Pin_3*%
%TO.N,unconnected-(J5-Pin_3-Pad3)*%
X93269000Y-74941000D03*
%TO.P,J5,4,Pin_4*%
%TO.N,unconnected-(J5-Pin_4-Pad4)*%
X93269000Y-77481000D03*
%TO.P,J5,5,Pin_5*%
%TO.N,unconnected-(J5-Pin_5-Pad5)*%
X93269000Y-80021000D03*
%TO.P,J5,6,Pin_6*%
%TO.N,Rec1*%
X93269000Y-82561000D03*
%TO.P,J5,7,Pin_7*%
%TO.N,unconnected-(J5-Pin_7-Pad7)*%
X93269000Y-85101000D03*
%TD*%
D15*
%TO.P,J13,1,Pin_1*%
%TO.N,GND*%
X149269000Y-69861000D03*
D16*
%TO.P,J13,2,Pin_2*%
%TO.N,+5V*%
X149269000Y-72401000D03*
%TO.P,J13,3,Pin_3*%
%TO.N,unconnected-(J13-Pin_3-Pad3)*%
X149269000Y-74941000D03*
%TO.P,J13,4,Pin_4*%
%TO.N,unconnected-(J13-Pin_4-Pad4)*%
X149269000Y-77481000D03*
%TO.P,J13,5,Pin_5*%
%TO.N,unconnected-(J13-Pin_5-Pad5)*%
X149269000Y-80021000D03*
%TO.P,J13,6,Pin_6*%
%TO.N,Rec8*%
X149269000Y-82561000D03*
%TO.P,J13,7,Pin_7*%
%TO.N,unconnected-(J13-Pin_7-Pad7)*%
X149269000Y-85101000D03*
%TD*%
D15*
%TO.P,J8,1,Pin_1*%
%TO.N,GND*%
X117269000Y-69861000D03*
D16*
%TO.P,J8,2,Pin_2*%
%TO.N,+5V*%
X117269000Y-72401000D03*
%TO.P,J8,3,Pin_3*%
%TO.N,unconnected-(J8-Pin_3-Pad3)*%
X117269000Y-74941000D03*
%TO.P,J8,4,Pin_4*%
%TO.N,unconnected-(J8-Pin_4-Pad4)*%
X117269000Y-77481000D03*
%TO.P,J8,5,Pin_5*%
%TO.N,unconnected-(J8-Pin_5-Pad5)*%
X117269000Y-80021000D03*
%TO.P,J8,6,Pin_6*%
%TO.N,Rec4*%
X117269000Y-82561000D03*
%TO.P,J8,7,Pin_7*%
%TO.N,unconnected-(J8-Pin_7-Pad7)*%
X117269000Y-85101000D03*
%TD*%
D15*
%TO.P,J7,1,Pin_1*%
%TO.N,GND*%
X109269000Y-69861000D03*
D16*
%TO.P,J7,2,Pin_2*%
%TO.N,+5V*%
X109269000Y-72401000D03*
%TO.P,J7,3,Pin_3*%
%TO.N,unconnected-(J7-Pin_3-Pad3)*%
X109269000Y-74941000D03*
%TO.P,J7,4,Pin_4*%
%TO.N,unconnected-(J7-Pin_4-Pad4)*%
X109269000Y-77481000D03*
%TO.P,J7,5,Pin_5*%
%TO.N,unconnected-(J7-Pin_5-Pad5)*%
X109269000Y-80021000D03*
%TO.P,J7,6,Pin_6*%
%TO.N,Rec3*%
X109269000Y-82561000D03*
%TO.P,J7,7,Pin_7*%
%TO.N,unconnected-(J7-Pin_7-Pad7)*%
X109269000Y-85101000D03*
%TD*%
D15*
%TO.P,J14,1,Pin_1*%
%TO.N,GND*%
X164023000Y-69746000D03*
D16*
%TO.P,J14,2,Pin_2*%
%TO.N,+5V*%
X164023000Y-72286000D03*
%TO.P,J14,3,Pin_3*%
%TO.N,unconnected-(J14-Pin_3-Pad3)*%
X164023000Y-74826000D03*
%TO.P,J14,4,Pin_4*%
%TO.N,unconnected-(J14-Pin_4-Pad4)*%
X164023000Y-77366000D03*
%TO.P,J14,5,Pin_5*%
%TO.N,unconnected-(J14-Pin_5-Pad5)*%
X164023000Y-79906000D03*
%TO.P,J14,6,Pin_6*%
%TO.N,Rec10*%
X164023000Y-82446000D03*
%TO.P,J14,7,Pin_7*%
%TO.N,unconnected-(J14-Pin_7-Pad7)*%
X164023000Y-84986000D03*
%TD*%
D15*
%TO.P,J25,1,Pin_1*%
%TO.N,AUX-HEAD-1*%
X51590000Y-108480000D03*
D16*
%TO.P,J25,2,Pin_2*%
%TO.N,AUX-HEAD-14*%
X51590000Y-105940000D03*
%TO.P,J25,3,Pin_3*%
%TO.N,AUX-HEAD-2*%
X54130000Y-108480000D03*
%TO.P,J25,4,Pin_4*%
%TO.N,AUX-HEAD-15*%
X54130000Y-105940000D03*
%TO.P,J25,5,Pin_5*%
%TO.N,AUX-HEAD-3*%
X56670000Y-108480000D03*
%TO.P,J25,6,Pin_6*%
%TO.N,AUX-HEAD-16*%
X56670000Y-105940000D03*
%TO.P,J25,7,Pin_7*%
%TO.N,AUX-HEAD-4*%
X59210000Y-108480000D03*
%TO.P,J25,8,Pin_8*%
%TO.N,AUX-HEAD-17*%
X59210000Y-105940000D03*
%TO.P,J25,9,Pin_9*%
%TO.N,AUX-HEAD-5*%
X61750000Y-108480000D03*
%TO.P,J25,10,Pin_10*%
%TO.N,AUX-HEAD-18*%
X61750000Y-105940000D03*
%TO.P,J25,11,Pin_11*%
%TO.N,AUX-HEAD-6*%
X64290000Y-108480000D03*
%TO.P,J25,12,Pin_12*%
%TO.N,AUX-HEAD-19*%
X64290000Y-105940000D03*
%TO.P,J25,13,Pin_13*%
%TO.N,AUX-HEAD-7*%
X66830000Y-108480000D03*
%TO.P,J25,14,Pin_14*%
%TO.N,AUX-HEAD-21*%
X66830000Y-105940000D03*
%TO.P,J25,15,Pin_15*%
%TO.N,AUX-HEAD-8*%
X69370000Y-108480000D03*
%TO.P,J25,16,Pin_16*%
%TO.N,AUX-HEAD-20*%
X69370000Y-105940000D03*
%TO.P,J25,17,Pin_17*%
%TO.N,AUX-HEAD-9*%
X71910000Y-108480000D03*
%TO.P,J25,18,Pin_18*%
%TO.N,AUX-HEAD-22*%
X71910000Y-105940000D03*
%TO.P,J25,19,Pin_19*%
%TO.N,AUX-HEAD-10*%
X74450000Y-108480000D03*
%TO.P,J25,20,Pin_20*%
%TO.N,AUX-HEAD-23*%
X74450000Y-105940000D03*
%TO.P,J25,21,Pin_21*%
%TO.N,AUX-HEAD-11*%
X76990000Y-108480000D03*
%TO.P,J25,22,Pin_22*%
%TO.N,AUX-HEAD-24*%
X76990000Y-105940000D03*
%TO.P,J25,23,Pin_23*%
%TO.N,AUX-HEAD-12*%
X79530000Y-108480000D03*
%TO.P,J25,24,Pin_24*%
%TO.N,AUX-HEAD-25*%
X79530000Y-105940000D03*
%TO.P,J25,25,Pin_25*%
%TO.N,AUX-HEAD-13*%
X82070000Y-108480000D03*
%TO.P,J25,26,Pin_26*%
%TO.N,AUX-HEAD-26*%
X82070000Y-105940000D03*
%TO.P,J25,27,Pin_27*%
%TO.N,GND*%
X84610000Y-108480000D03*
%TO.P,J25,28,Pin_28*%
%TO.N,+5V*%
X84610000Y-105940000D03*
%TD*%
D15*
%TO.P,J26,1,Pin_1*%
%TO.N,GND*%
X160450000Y-108140000D03*
D16*
%TO.P,J26,2,Pin_2*%
%TO.N,Net-(J26-Pin_2)*%
X157910000Y-108140000D03*
%TO.P,J26,3,Pin_3*%
%TO.N,Net-(J26-Pin_3)*%
X155370000Y-108140000D03*
%TD*%
D31*
%TO.P,U2,1,RO*%
%TO.N,unconnected-(U2-RO-Pad1)*%
X154315000Y-92280000D03*
D32*
%TO.P,U2,2,~{RE}*%
%TO.N,+5V*%
X154315000Y-94820000D03*
%TO.P,U2,3,DE*%
X154315000Y-97360000D03*
%TO.P,U2,4,DI*%
%TO.N,DMX-TX*%
X154315000Y-99900000D03*
%TO.P,U2,5,GND*%
%TO.N,GND*%
X161935000Y-99900000D03*
%TO.P,U2,6,A*%
%TO.N,Net-(J26-Pin_3)*%
X161935000Y-97360000D03*
%TO.P,U2,7,B*%
%TO.N,Net-(J26-Pin_2)*%
X161935000Y-94820000D03*
%TO.P,U2,8,VCC*%
%TO.N,+5V*%
X161935000Y-92280000D03*
%TD*%
D33*
%TO.N,Rec3*%
X88327400Y-81385700D03*
%TO.N,Rec8*%
X146882500Y-67299700D03*
%TO.N,Rec10*%
X147902500Y-66241100D03*
%TO.N,Lamp1*%
X56480300Y-80183000D03*
%TO.N,Lamp3*%
X59592900Y-70444200D03*
X61774000Y-95993900D03*
%TO.N,Lamp5*%
X71891100Y-72856700D03*
%TO.N,Lamp7*%
X73341800Y-74292200D03*
%TO.N,Lamp2*%
X63848000Y-84100200D03*
%TO.N,Lamp4*%
X72616500Y-74981500D03*
%TO.N,Lamp6*%
X115058400Y-94406400D03*
%TO.N,Lamp8*%
X143159300Y-93572700D03*
%TO.N,Lamp9*%
X164102100Y-90972400D03*
%TO.N,AUX-HEAD-4*%
X61836500Y-101894800D03*
%TO.N,AUX-HEAD-2*%
X61082200Y-102584900D03*
%TO.N,AUX-HEAD-5*%
X44542700Y-95488900D03*
X62864800Y-104931900D03*
%TO.N,AUX-HEAD-7*%
X48615400Y-107304700D03*
%TO.N,AUX-HEAD-8*%
X49861000Y-108567300D03*
%TO.N,AUX-HEAD-10*%
X67280600Y-80912900D03*
%TO.N,AUX-HEAD-9*%
X47957200Y-90540900D03*
%TO.N,AUX-HEAD-12*%
X73590200Y-77015400D03*
%TO.N,AUX-HEAD-13*%
X74097800Y-75706900D03*
%TO.N,AUX-HEAD-17*%
X50033500Y-104209900D03*
%TO.N,AUX-HEAD-21*%
X67433600Y-84526500D03*
%TO.N,AUX-HEAD-22*%
X113990100Y-110319900D03*
%TD*%
D34*
%TO.N,GND*%
X102951000Y-107795900D02*
X102951000Y-108884300D01*
X200449000Y-71991000D02*
X200449000Y-70815700D01*
X109269000Y-69861000D02*
X109269000Y-68685700D01*
X37644000Y-65299800D02*
X37644000Y-97785000D01*
X172089100Y-91271200D02*
X172509000Y-91271200D01*
X37644000Y-106246000D02*
X35950000Y-107940000D01*
X111841000Y-108429000D02*
X110665700Y-108429000D01*
X85904000Y-87625000D02*
X85904000Y-90748900D01*
X132511000Y-105219000D02*
X128481000Y-109249000D01*
X172509000Y-91271200D02*
X172509000Y-71991000D01*
X110665700Y-108061600D02*
X106328400Y-103724300D01*
X130351000Y-103059000D02*
X132511000Y-105219000D01*
X109819800Y-109644600D02*
X110665700Y-108798700D01*
X84610000Y-108480000D02*
X85785300Y-108480000D01*
X103861000Y-102549000D02*
X105036300Y-102549000D01*
X37644000Y-106246000D02*
X39752000Y-106246000D01*
X41400000Y-61543800D02*
X37644000Y-65299800D01*
X37644000Y-100325000D02*
X37644000Y-106246000D01*
X110665700Y-108429000D02*
X110665700Y-108061600D01*
X41400000Y-47870000D02*
X41400000Y-61543800D01*
X172509000Y-91271200D02*
X177301200Y-91271200D01*
X161935000Y-105479700D02*
X161935000Y-99900000D01*
X177301200Y-91271200D02*
X193970000Y-107940000D01*
X105036300Y-102916400D02*
X105036300Y-102549000D01*
X161935000Y-99900000D02*
X163460300Y-99900000D01*
X102951000Y-108884300D02*
X101773300Y-110062000D01*
X109400000Y-68554700D02*
X109400000Y-47870000D01*
X39752000Y-106246000D02*
X40864000Y-107358000D01*
X101773300Y-110062000D02*
X87367300Y-110062000D01*
X37644000Y-97785000D02*
X37644000Y-100325000D01*
X85904000Y-90748900D02*
X102951000Y-107795900D01*
X194400000Y-64766700D02*
X200449000Y-70815700D01*
X194400000Y-47870000D02*
X194400000Y-64766700D01*
X106328400Y-103724300D02*
X105844200Y-103724300D01*
X143781000Y-105219000D02*
X132511000Y-105219000D01*
X109269000Y-68685700D02*
X109400000Y-68554700D01*
X105844200Y-103724300D02*
X105036300Y-102916400D01*
X160450000Y-108140000D02*
X160450000Y-106964700D01*
X87367300Y-110062000D02*
X85785300Y-108480000D01*
X160450000Y-106964700D02*
X161935000Y-105479700D01*
X102951000Y-108884300D02*
X103711300Y-109644600D01*
X130351000Y-99939000D02*
X130351000Y-103059000D01*
X110665700Y-108798700D02*
X110665700Y-108429000D01*
X103711300Y-109644600D02*
X109819800Y-109644600D01*
X163460300Y-99900000D02*
X172089100Y-91271200D01*
%TO.N,+12V*%
X141289200Y-94217300D02*
X141289200Y-98802500D01*
X123601000Y-102289000D02*
X121251000Y-99939000D01*
X145230000Y-90276500D02*
X141289200Y-94217300D01*
X125941000Y-109249000D02*
X124663200Y-109249000D01*
X123601000Y-103459000D02*
X123601000Y-104884300D01*
X141289200Y-98802500D02*
X141705700Y-99219000D01*
X124663200Y-105946500D02*
X123601000Y-104884300D01*
X123601000Y-102289000D02*
X125560300Y-102289000D01*
X124663200Y-109249000D02*
X124663200Y-105946500D01*
X123601000Y-102746300D02*
X123601000Y-102289000D01*
X123601000Y-103459000D02*
X123601000Y-102746300D01*
X145230000Y-42110000D02*
X145230000Y-90276500D01*
X125560300Y-102289000D02*
X129046800Y-98802500D01*
X129046800Y-98802500D02*
X141289200Y-98802500D01*
X143781000Y-99219000D02*
X141705700Y-99219000D01*
%TO.N,+5V*%
X161935000Y-92280000D02*
X163460300Y-92280000D01*
X183279000Y-42161000D02*
X183279000Y-53463700D01*
X81470000Y-55080000D02*
X81470000Y-53654700D01*
X166470000Y-55080000D02*
X166470000Y-53654700D01*
X115470000Y-55080000D02*
X115470000Y-53654700D01*
X98470000Y-55080000D02*
X98470000Y-53654700D01*
X115279000Y-42161000D02*
X117280000Y-40160000D01*
X202280000Y-40160000D02*
X200279000Y-42161000D01*
X85904000Y-82545000D02*
X101321000Y-97962000D01*
X165198300Y-74269200D02*
X165198300Y-88850600D01*
X115279000Y-53463700D02*
X115279000Y-42161000D01*
X98279000Y-53463700D02*
X98470000Y-53654700D01*
X164023000Y-72286000D02*
X164023000Y-73461300D01*
X135351000Y-100443700D02*
X135351000Y-99939000D01*
X133761000Y-103459000D02*
X133761000Y-102033700D01*
X47470000Y-53654700D02*
X47279000Y-53463700D01*
X98279000Y-42161000D02*
X98279000Y-53463700D01*
X133761000Y-102033700D02*
X135351000Y-100443700D01*
X183279000Y-53463700D02*
X183470000Y-53654700D01*
X149279000Y-53463700D02*
X149279000Y-42161000D01*
X47279000Y-53463700D02*
X47279000Y-42161000D01*
X64470000Y-55080000D02*
X64470000Y-53654700D01*
X163376800Y-90672000D02*
X163376800Y-91272800D01*
X81470000Y-53654700D02*
X81279000Y-53463700D01*
X200470000Y-55080000D02*
X200470000Y-53654700D01*
X165198200Y-88850600D02*
X163376800Y-90672000D01*
X47279000Y-42161000D02*
X49280000Y-40160000D01*
X166279000Y-53463700D02*
X166279000Y-42161000D01*
X40184000Y-97785000D02*
X40184000Y-100325000D01*
X101321000Y-97962000D02*
X101321000Y-102549000D01*
X114278400Y-69043100D02*
X114278400Y-57696900D01*
X185280000Y-40160000D02*
X183279000Y-42161000D01*
X66280000Y-40160000D02*
X64279000Y-42161000D01*
X114278400Y-69043100D02*
X110920500Y-72401000D01*
X132470000Y-53654700D02*
X132279000Y-53463700D01*
X84610000Y-105940000D02*
X85785300Y-105940000D01*
X110920500Y-72401000D02*
X109269000Y-72401000D01*
X40184000Y-63791300D02*
X47470000Y-56505300D01*
X85785300Y-106408600D02*
X85785300Y-105940000D01*
X154315000Y-97360000D02*
X154315000Y-94820000D01*
X164390400Y-73461300D02*
X165198300Y-74269200D01*
X166279000Y-42161000D02*
X168280000Y-40160000D01*
X149279000Y-42161000D02*
X151280000Y-40160000D01*
X100280000Y-40160000D02*
X98279000Y-42161000D01*
X116461000Y-71225700D02*
X114278400Y-69043100D01*
X40184000Y-101678000D02*
X45864000Y-107358000D01*
X115470000Y-53654700D02*
X115279000Y-53463700D01*
X165198300Y-88850600D02*
X165198200Y-88850600D01*
X166470000Y-53654700D02*
X166279000Y-53463700D01*
X132279000Y-42161000D02*
X134280000Y-40160000D01*
X88981000Y-108429000D02*
X87805700Y-108429000D01*
X163460300Y-91356300D02*
X163460300Y-92280000D01*
X132470000Y-55080000D02*
X132470000Y-53654700D01*
X183470000Y-55080000D02*
X183470000Y-53654700D01*
X115470000Y-55080000D02*
X115470000Y-56505300D01*
X47470000Y-55080000D02*
X47470000Y-53654700D01*
X47470000Y-55080000D02*
X47470000Y-56505300D01*
X81279000Y-42161000D02*
X83280000Y-40160000D01*
X117269000Y-72401000D02*
X117269000Y-71225700D01*
X81279000Y-53463700D02*
X81279000Y-42161000D01*
X87805700Y-108429000D02*
X85785300Y-106408600D01*
X132279000Y-53463700D02*
X132279000Y-42161000D01*
X117269000Y-71225700D02*
X116461000Y-71225700D01*
X164023000Y-73461300D02*
X164390400Y-73461300D01*
X64279000Y-42161000D02*
X64279000Y-53463700D01*
X114278400Y-57696900D02*
X115470000Y-56505300D01*
X163376800Y-91272800D02*
X163460300Y-91356300D01*
X149470000Y-53654700D02*
X149279000Y-53463700D01*
X40184000Y-100325000D02*
X40184000Y-101678000D01*
X149470000Y-55080000D02*
X149470000Y-53654700D01*
X200279000Y-53463700D02*
X200470000Y-53654700D01*
X64279000Y-53463700D02*
X64470000Y-53654700D01*
X40184000Y-97785000D02*
X40184000Y-63791300D01*
X200279000Y-42161000D02*
X200279000Y-53463700D01*
%TO.N,Net-(D2-A)*%
X36320000Y-52664700D02*
X37310000Y-53654700D01*
X36320000Y-47870000D02*
X36320000Y-52664700D01*
X36320000Y-41120000D02*
X36320000Y-47870000D01*
X37310000Y-55080000D02*
X37310000Y-53654700D01*
X37280000Y-40160000D02*
X36320000Y-41120000D01*
%TO.N,Net-(D3-A)*%
X53320000Y-47870000D02*
X53320000Y-41120000D01*
X54310000Y-55080000D02*
X54310000Y-53654700D01*
X54310000Y-53654700D02*
X53320000Y-52664700D01*
X53320000Y-52664700D02*
X53320000Y-47870000D01*
X53320000Y-41120000D02*
X54280000Y-40160000D01*
%TO.N,Net-(D4-A)*%
X70320000Y-52664700D02*
X70320000Y-47870000D01*
X71310000Y-53654700D02*
X70320000Y-52664700D01*
X71310000Y-55080000D02*
X71310000Y-53654700D01*
X70320000Y-47870000D02*
X70320000Y-41120000D01*
X70320000Y-41120000D02*
X71280000Y-40160000D01*
%TO.N,Net-(D5-A)*%
X87320000Y-47870000D02*
X87320000Y-52664700D01*
X88310000Y-55080000D02*
X88310000Y-53654700D01*
X88280000Y-46910000D02*
X87320000Y-47870000D01*
X87320000Y-52664700D02*
X88310000Y-53654700D01*
X88280000Y-40160000D02*
X88280000Y-46910000D01*
%TO.N,Net-(D6-A)*%
X47330000Y-59790000D02*
X47330000Y-58664700D01*
X47330000Y-58664700D02*
X48895400Y-57099300D01*
X48895400Y-57099300D02*
X48895400Y-49035400D01*
X48895400Y-49035400D02*
X48530000Y-48670000D01*
%TO.N,Net-(D7-A)*%
X65895400Y-49035400D02*
X65530000Y-48670000D01*
X64250000Y-59800000D02*
X64250000Y-58674700D01*
X65895400Y-57029300D02*
X65895400Y-49035400D01*
X64250000Y-58674700D02*
X65895400Y-57029300D01*
%TO.N,Net-(D8-A)*%
X82650000Y-58804700D02*
X82895400Y-58559300D01*
X82895400Y-58559300D02*
X82895400Y-49035400D01*
X82650000Y-59930000D02*
X82650000Y-58804700D01*
X82895400Y-49035400D02*
X82530000Y-48670000D01*
%TO.N,Net-(D8-K)*%
X72860000Y-47870000D02*
X73957000Y-48967000D01*
X78467700Y-48967000D02*
X78764700Y-48670000D01*
X79990000Y-48670000D02*
X78764700Y-48670000D01*
X73957000Y-48967000D02*
X78467700Y-48967000D01*
%TO.N,Net-(D9-A)*%
X99895400Y-57429300D02*
X99895400Y-49035400D01*
X98520000Y-59930000D02*
X98520000Y-58804700D01*
X99895400Y-49035400D02*
X99530000Y-48670000D01*
X98520000Y-58804700D02*
X99895400Y-57429300D01*
%TO.N,Net-(D9-K)*%
X89860000Y-47870000D02*
X90957000Y-48967000D01*
X96990000Y-48670000D02*
X95764700Y-48670000D01*
X95467700Y-48967000D02*
X95764700Y-48670000D01*
X90957000Y-48967000D02*
X95467700Y-48967000D01*
%TO.N,Net-(D10-A)*%
X104320000Y-47870000D02*
X104320000Y-52664700D01*
X105280000Y-40160000D02*
X105280000Y-46910000D01*
X105280000Y-46910000D02*
X104320000Y-47870000D01*
X105310000Y-55080000D02*
X105310000Y-53654700D01*
X104320000Y-52664700D02*
X105310000Y-53654700D01*
%TO.N,Net-(D11-A)*%
X122310000Y-53654700D02*
X121320000Y-52664700D01*
X122310000Y-55080000D02*
X122310000Y-53654700D01*
X121320000Y-52664700D02*
X121320000Y-47870000D01*
X121320000Y-47870000D02*
X121320000Y-41120000D01*
X121320000Y-41120000D02*
X122280000Y-40160000D01*
%TO.N,Net-(D12-A)*%
X138320000Y-52664700D02*
X139310000Y-53654700D01*
X139310000Y-55080000D02*
X139310000Y-53654700D01*
X139280000Y-46910000D02*
X139280000Y-40160000D01*
X138320000Y-47870000D02*
X139280000Y-46910000D01*
X138320000Y-47870000D02*
X138320000Y-52664700D01*
%TO.N,Net-(D13-A)*%
X155320000Y-41120000D02*
X156280000Y-40160000D01*
X155320000Y-52664700D02*
X155320000Y-47870000D01*
X156310000Y-53654700D02*
X155320000Y-52664700D01*
X156310000Y-55080000D02*
X156310000Y-53654700D01*
X155320000Y-47870000D02*
X155320000Y-41120000D01*
%TO.N,Net-(D14-A)*%
X116895400Y-49035400D02*
X116530000Y-48670000D01*
X115420000Y-63440000D02*
X115420000Y-62314700D01*
X115420000Y-62314700D02*
X116895400Y-60839300D01*
X116895400Y-60839300D02*
X116895400Y-49035400D01*
%TO.N,Net-(D15-A)*%
X133895400Y-49035400D02*
X133530000Y-48670000D01*
X132200000Y-63180000D02*
X132200000Y-62054700D01*
X132200000Y-62054700D02*
X133895400Y-60359300D01*
X133895400Y-60359300D02*
X133895400Y-49035400D01*
%TO.N,Net-(D16-A)*%
X150895400Y-61049300D02*
X150895400Y-49035400D01*
X149500000Y-62444700D02*
X150895400Y-61049300D01*
X149500000Y-63570000D02*
X149500000Y-62444700D01*
X150895400Y-49035400D02*
X150530000Y-48670000D01*
%TO.N,Net-(D17-A)*%
X167430000Y-62920000D02*
X167430000Y-61794700D01*
X167895400Y-61329300D02*
X167895400Y-49035400D01*
X167430000Y-61794700D02*
X167895400Y-61329300D01*
X167895400Y-49035400D02*
X167530000Y-48670000D01*
%TO.N,Net-(D18-A)*%
X173310000Y-55080000D02*
X173310000Y-53654700D01*
X173280000Y-46910000D02*
X172320000Y-47870000D01*
X172320000Y-47870000D02*
X172320000Y-52664700D01*
X172320000Y-52664700D02*
X173310000Y-53654700D01*
X173280000Y-40160000D02*
X173280000Y-46910000D01*
%TO.N,Net-(D19-A)*%
X184895400Y-49035400D02*
X184530000Y-48670000D01*
X183570000Y-62530000D02*
X183570000Y-61404700D01*
X184895400Y-60079300D02*
X184895400Y-49035400D01*
X183570000Y-61404700D02*
X184895400Y-60079300D01*
%TO.N,Net-(D19-K)*%
X180467700Y-48967000D02*
X180764700Y-48670000D01*
X175957000Y-48967000D02*
X180467700Y-48967000D01*
X181990000Y-48670000D02*
X180764700Y-48670000D01*
X174860000Y-47870000D02*
X175957000Y-48967000D01*
%TO.N,Net-(D20-A)*%
X189320000Y-52664700D02*
X190310000Y-53654700D01*
X190280000Y-40160000D02*
X190280000Y-46910000D01*
X190280000Y-46910000D02*
X189320000Y-47870000D01*
X190310000Y-55080000D02*
X190310000Y-53654700D01*
X189320000Y-47870000D02*
X189320000Y-52664700D01*
%TO.N,Net-(D21-A)*%
X201895400Y-59849300D02*
X201895400Y-49035400D01*
X201895400Y-49035400D02*
X201530000Y-48670000D01*
X200380000Y-61364700D02*
X201895400Y-59849300D01*
X200380000Y-62490000D02*
X200380000Y-61364700D01*
%TO.N,Net-(J1-Pin_9)*%
X71988200Y-67819800D02*
X79658800Y-75490400D01*
X73204000Y-64765000D02*
X71988200Y-65980800D01*
X79658800Y-75490400D02*
X80494900Y-75490400D01*
X106903500Y-107253700D02*
X107317800Y-107253700D01*
X80494900Y-75490400D02*
X102685700Y-97681200D01*
X108125700Y-108061600D02*
X108125700Y-108429000D01*
X71988200Y-65980800D02*
X71988200Y-67819800D01*
X109301000Y-108429000D02*
X108125700Y-108429000D01*
X102685700Y-103035900D02*
X106903500Y-107253700D01*
X102685700Y-97681200D02*
X102685700Y-103035900D01*
X107317800Y-107253700D02*
X108125700Y-108061600D01*
%TO.N,Net-(J1-Pin_8)*%
X70664000Y-67305000D02*
X84634000Y-81275000D01*
X99998700Y-97510600D02*
X99998700Y-103398700D01*
X103853700Y-107253700D02*
X104777800Y-107253700D01*
X105585700Y-108061600D02*
X105585700Y-108429000D01*
X84634000Y-82974000D02*
X85368600Y-83708600D01*
X84634000Y-81275000D02*
X84634000Y-82974000D01*
X106761000Y-108429000D02*
X105585700Y-108429000D01*
X86196700Y-83708600D02*
X99998700Y-97510600D01*
X104777800Y-107253700D02*
X105585700Y-108061600D01*
X85368600Y-83708600D02*
X86196700Y-83708600D01*
X99998700Y-103398700D02*
X103853700Y-107253700D01*
%TO.N,Net-(J1-Pin_7)*%
X81751200Y-80401900D02*
X69459600Y-68110300D01*
X84740400Y-84769200D02*
X83799600Y-83828400D01*
X86318000Y-86355000D02*
X85475000Y-86355000D01*
X83799600Y-83828400D02*
X82989100Y-83828400D01*
X81751200Y-82590500D02*
X81751200Y-80401900D01*
X97974300Y-98011300D02*
X86318000Y-86355000D01*
X69459600Y-65969400D02*
X70664000Y-64765000D01*
X85475000Y-86355000D02*
X84740400Y-85620400D01*
X104221000Y-108429000D02*
X97974300Y-102182300D01*
X69459600Y-68110300D02*
X69459600Y-65969400D01*
X97974300Y-102182300D02*
X97974300Y-98011300D01*
X84740400Y-85620400D02*
X84740400Y-84769200D01*
X82989100Y-83828400D02*
X81751200Y-82590500D01*
%TO.N,Net-(J1-Pin_6)*%
X101681000Y-107253700D02*
X101313700Y-107253700D01*
X68124000Y-67411600D02*
X68124000Y-67305000D01*
X101313700Y-107253700D02*
X81300900Y-87240900D01*
X81300900Y-80588500D02*
X68124000Y-67411600D01*
X101681000Y-108429000D02*
X101681000Y-107253700D01*
X81300900Y-87240900D02*
X81300900Y-80588500D01*
%TO.N,Net-(J1-Pin_5)*%
X66909100Y-65979900D02*
X66909100Y-67775400D01*
X70933900Y-70858400D02*
X80462100Y-80386600D01*
X66909100Y-67775400D02*
X69992100Y-70858400D01*
X68124000Y-64765000D02*
X66909100Y-65979900D01*
X80462100Y-88574800D02*
X99141000Y-107253700D01*
X80462100Y-80386600D02*
X80462100Y-88574800D01*
X69992100Y-70858400D02*
X70933900Y-70858400D01*
X99141000Y-108429000D02*
X99141000Y-107253700D01*
%TO.N,Net-(J1-Pin_4)*%
X92791000Y-108827600D02*
X93567700Y-109604300D01*
X92791000Y-107212000D02*
X92791000Y-108827600D01*
X93567700Y-109604300D02*
X94617800Y-109604300D01*
X94617800Y-109604300D02*
X95425700Y-108796400D01*
X95425700Y-108796400D02*
X95425700Y-108429000D01*
X85904000Y-100325000D02*
X92791000Y-107212000D01*
X96601000Y-108429000D02*
X95425700Y-108429000D01*
%TO.N,Net-(J1-Pin_3)*%
X94061000Y-105942000D02*
X94061000Y-108429000D01*
X85904000Y-97785000D02*
X94061000Y-105942000D01*
%TO.N,Net-(J1-Pin_2)*%
X91521000Y-108429000D02*
X90345700Y-108429000D01*
X90345700Y-107306700D02*
X90345700Y-108429000D01*
X83364000Y-100325000D02*
X90345700Y-107306700D01*
%TO.N,Rec1*%
X93269000Y-82561000D02*
X88460000Y-82561000D01*
X88460000Y-82561000D02*
X73204000Y-67305000D01*
%TO.N,Rec2*%
X100093700Y-82561000D02*
X98918400Y-81385700D01*
X77014000Y-66035000D02*
X75744000Y-64765000D01*
X84634000Y-74524100D02*
X83828000Y-73718100D01*
X101269000Y-82561000D02*
X100093700Y-82561000D01*
X90703700Y-81385700D02*
X84634000Y-75316000D01*
X83828000Y-73718100D02*
X83034800Y-73718100D01*
X77014000Y-67697300D02*
X77014000Y-66035000D01*
X84634000Y-75316000D02*
X84634000Y-74524100D01*
X83034800Y-73718100D02*
X77014000Y-67697300D01*
X98918400Y-81385700D02*
X90703700Y-81385700D01*
%TO.N,Rec3*%
X75744000Y-67305000D02*
X75744000Y-68956900D01*
X75744000Y-68956900D02*
X88172800Y-81385700D01*
X88172800Y-81385700D02*
X88327400Y-81385700D01*
%TO.N,Rec4*%
X100821800Y-73671000D02*
X96557900Y-69407100D01*
X117269000Y-82561000D02*
X116093700Y-82561000D01*
X96557900Y-69407100D02*
X96557900Y-69009000D01*
X112283700Y-78751000D02*
X108601900Y-78751000D01*
X79554000Y-66035000D02*
X78284000Y-64765000D01*
X93583900Y-66035000D02*
X79554000Y-66035000D01*
X96557900Y-69009000D02*
X93583900Y-66035000D01*
X108601900Y-78751000D02*
X103521900Y-73671000D01*
X116093700Y-82561000D02*
X112283700Y-78751000D01*
X103521900Y-73671000D02*
X100821800Y-73671000D01*
%TO.N,Rec5*%
X116563900Y-78751000D02*
X120283700Y-78751000D01*
X111483900Y-73671000D02*
X116563900Y-78751000D01*
X120283700Y-78751000D02*
X124093700Y-82561000D01*
X97426000Y-63129800D02*
X107967200Y-73671000D01*
X78223300Y-63129800D02*
X97426000Y-63129800D01*
X107967200Y-73671000D02*
X111483900Y-73671000D01*
X125269000Y-82561000D02*
X124093700Y-82561000D01*
X77065000Y-64288100D02*
X78223300Y-63129800D01*
X78284000Y-66539300D02*
X77065000Y-65320300D01*
X77065000Y-65320300D02*
X77065000Y-64288100D01*
X78284000Y-67305000D02*
X78284000Y-66539300D01*
%TO.N,Rec6*%
X133269000Y-82561000D02*
X132093700Y-82561000D01*
X110750100Y-76123100D02*
X115915300Y-81288300D01*
X108771100Y-76123100D02*
X110750100Y-76123100D01*
X130899700Y-83755000D02*
X132093700Y-82561000D01*
X102554000Y-69906000D02*
X108771100Y-76123100D01*
X82008000Y-63581000D02*
X97240300Y-63581000D01*
X97240300Y-63581000D02*
X102554000Y-68894700D01*
X119998200Y-81288300D02*
X122464900Y-83755000D01*
X122464900Y-83755000D02*
X130899700Y-83755000D01*
X115915300Y-81288300D02*
X119998200Y-81288300D01*
X102554000Y-68894700D02*
X102554000Y-69906000D01*
X80824000Y-64765000D02*
X82008000Y-63581000D01*
%TO.N,Rec7*%
X96041800Y-71390500D02*
X96041800Y-69129800D01*
X141269000Y-82561000D02*
X140093700Y-82561000D01*
X100862300Y-76211000D02*
X96041800Y-71390500D01*
X86593500Y-68518600D02*
X82037600Y-68518600D01*
X116368400Y-86295400D02*
X111364000Y-81291000D01*
X96041800Y-69129800D02*
X94585000Y-67673000D01*
X94585000Y-67673000D02*
X87439100Y-67673000D01*
X136359300Y-86295400D02*
X116368400Y-86295400D01*
X111364000Y-81291000D02*
X108848500Y-81291000D01*
X82037600Y-68518600D02*
X80824000Y-67305000D01*
X87439100Y-67673000D02*
X86593500Y-68518600D01*
X103768500Y-76211000D02*
X100862300Y-76211000D01*
X140093700Y-82561000D02*
X136359300Y-86295400D01*
X108848500Y-81291000D02*
X103768500Y-76211000D01*
%TO.N,Rec8*%
X146882500Y-79366500D02*
X146882500Y-67299700D01*
X148901700Y-81385700D02*
X146882500Y-79366500D01*
X149269000Y-82561000D02*
X149269000Y-81385700D01*
X149269000Y-81385700D02*
X148901700Y-81385700D01*
%TO.N,Rec10*%
X162847700Y-81389800D02*
X157668900Y-76211000D01*
X164023000Y-82446000D02*
X162847700Y-82446000D01*
X157668900Y-76211000D02*
X156834900Y-76211000D01*
X162847700Y-82446000D02*
X162847700Y-81389800D01*
X152327500Y-71703600D02*
X152327500Y-70666100D01*
X156834900Y-76211000D02*
X152327500Y-71703600D01*
X152327500Y-70666100D02*
X147902500Y-66241100D01*
%TO.N,Net-(J15-Pin_1)*%
X41800000Y-20480000D02*
X41800000Y-18110000D01*
X49280000Y-27960000D02*
X41800000Y-20480000D01*
%TO.N,Net-(J16-Pin_1)*%
X66280000Y-27960000D02*
X58800000Y-20480000D01*
X58800000Y-20480000D02*
X58800000Y-18110000D01*
%TO.N,Net-(J17-Pin_1)*%
X75800000Y-20480000D02*
X75800000Y-18110000D01*
X83280000Y-27960000D02*
X75800000Y-20480000D01*
%TO.N,Net-(J18-Pin_1)*%
X100280000Y-27960000D02*
X92800000Y-20480000D01*
X92800000Y-20480000D02*
X92800000Y-18110000D01*
%TO.N,Net-(J19-Pin_1)*%
X117280000Y-27960000D02*
X109800000Y-20480000D01*
X109800000Y-20480000D02*
X109800000Y-18110000D01*
%TO.N,Net-(J20-Pin_1)*%
X126800000Y-20480000D02*
X126800000Y-18110000D01*
X134280000Y-27960000D02*
X126800000Y-20480000D01*
%TO.N,Net-(J21-Pin_1)*%
X143800000Y-20480000D02*
X143800000Y-18110000D01*
X151280000Y-27960000D02*
X143800000Y-20480000D01*
%TO.N,Net-(J22-Pin_1)*%
X168280000Y-27960000D02*
X160800000Y-20480000D01*
X160800000Y-20480000D02*
X160800000Y-18110000D01*
%TO.N,Net-(J23-Pin_1)*%
X185280000Y-27960000D02*
X177800000Y-20480000D01*
X177800000Y-20480000D02*
X177800000Y-18110000D01*
%TO.N,Lamp1*%
X59234000Y-82936700D02*
X56480300Y-80183000D01*
X60504000Y-100325000D02*
X59234000Y-99055000D01*
X59234000Y-99055000D02*
X59234000Y-82936700D01*
%TO.N,Lamp3*%
X59592900Y-70444200D02*
X61774000Y-72625300D01*
X61774000Y-72625300D02*
X61774000Y-95993900D01*
%TO.N,Lamp5*%
X71891100Y-79262400D02*
X71891100Y-72856700D01*
X74474000Y-99055000D02*
X74474000Y-81845300D01*
X74474000Y-81845300D02*
X71891100Y-79262400D01*
X75744000Y-100325000D02*
X74474000Y-99055000D01*
%TO.N,Lamp7*%
X77013900Y-81664500D02*
X77013900Y-99055000D01*
X73341800Y-74292200D02*
X73341800Y-76238100D01*
X77014000Y-99055000D02*
X78284000Y-100325000D01*
X72864900Y-76715000D02*
X72864900Y-77515500D01*
X73341800Y-76238100D02*
X72864900Y-76715000D01*
X72864900Y-77515500D02*
X77013900Y-81664500D01*
X77013900Y-99055000D02*
X77014000Y-99055000D01*
%TO.N,Lamp2*%
X63044000Y-97785000D02*
X63494400Y-97334600D01*
X63494400Y-97334600D02*
X63494400Y-84453800D01*
X63494400Y-84453800D02*
X63848000Y-84100200D01*
%TO.N,Lamp4*%
X72616500Y-74981500D02*
X72414600Y-75183400D01*
X72414600Y-75183400D02*
X72414600Y-79149000D01*
X75744000Y-82478400D02*
X75744000Y-97785000D01*
X72414600Y-79149000D02*
X75744000Y-82478400D01*
%TO.N,Lamp6*%
X140638800Y-83831000D02*
X141767400Y-83831000D01*
X115058400Y-94406400D02*
X130063400Y-94406400D01*
X142444400Y-83154000D02*
X142444400Y-66674400D01*
X130063400Y-94406400D02*
X140638800Y-83831000D01*
X142444400Y-66674400D02*
X139340000Y-63570000D01*
X141767400Y-83831000D02*
X142444400Y-83154000D01*
%TO.N,Lamp8*%
X147726900Y-65387900D02*
X154802100Y-65387900D01*
X145740200Y-90991800D02*
X145740200Y-67374600D01*
X145740200Y-67374600D02*
X147726900Y-65387900D01*
X143159300Y-93572700D02*
X145740200Y-90991800D01*
X154802100Y-65387900D02*
X157270000Y-62920000D01*
%TO.N,Lamp9*%
X170774200Y-65165800D02*
X173410000Y-62530000D01*
X170774200Y-84300300D02*
X170774200Y-65165800D01*
X164102100Y-90972400D02*
X170774200Y-84300300D01*
%TO.N,Net-(J24-Pin_1)*%
X202280000Y-27960000D02*
X194800000Y-20480000D01*
X194800000Y-20480000D02*
X194800000Y-18110000D01*
%TO.N,Net-(J26-Pin_2)*%
X160409700Y-94820000D02*
X157910000Y-97319700D01*
X157910000Y-97319700D02*
X157910000Y-106964700D01*
X157910000Y-108140000D02*
X157910000Y-106964700D01*
X161935000Y-94820000D02*
X160409700Y-94820000D01*
%TO.N,unconnected-(XA1-PadVIN)*%
X35104000Y-100325000D02*
X35104000Y-97785000D01*
%TO.N,unconnected-(XA1-3.3V-Pad3V3)*%
X42724000Y-100325000D02*
X42724000Y-97785000D01*
%TO.N,AUX-HEAD-3*%
X58653200Y-109655300D02*
X57845300Y-108847400D01*
X64779400Y-107115400D02*
X63992300Y-107115400D01*
X63114700Y-107993000D02*
X63114700Y-108847400D01*
X63992300Y-107115400D02*
X63114700Y-107993000D01*
X57845300Y-108847400D02*
X57845300Y-108480000D01*
X63114700Y-108847400D02*
X62306800Y-109655300D01*
X65584000Y-106310800D02*
X64779400Y-107115400D01*
X62306800Y-109655300D02*
X58653200Y-109655300D01*
X56670000Y-108480000D02*
X57845300Y-108480000D01*
X65584000Y-100325000D02*
X65584000Y-106310800D01*
%TO.N,AUX-HEAD-1*%
X65560000Y-108880500D02*
X63835900Y-110604600D01*
X65560000Y-108049000D02*
X65560000Y-108880500D01*
X67166400Y-107304600D02*
X66304400Y-107304600D01*
X68124000Y-100325000D02*
X68124000Y-106347000D01*
X63835900Y-110604600D02*
X53714600Y-110604600D01*
X53714600Y-110604600D02*
X51590000Y-108480000D01*
X68124000Y-106347000D02*
X67166400Y-107304600D01*
X66304400Y-107304600D02*
X65560000Y-108049000D01*
%TO.N,AUX-HEAD-4*%
X59577400Y-107304700D02*
X59210000Y-107304700D01*
X61836500Y-103016200D02*
X60385300Y-104467400D01*
X60385300Y-104467400D02*
X60385300Y-106496800D01*
X60385300Y-106496800D02*
X59577400Y-107304700D01*
X61836500Y-101894800D02*
X61836500Y-103016200D01*
X59210000Y-108480000D02*
X59210000Y-107304700D01*
%TO.N,AUX-HEAD-2*%
X54130000Y-108480000D02*
X55305300Y-108480000D01*
X55305300Y-108112600D02*
X56113200Y-107304700D01*
X57845400Y-105616600D02*
X60877100Y-102584900D01*
X57006300Y-107304700D02*
X57845400Y-106465600D01*
X57845400Y-106465600D02*
X57845400Y-105616600D01*
X60877100Y-102584900D02*
X61082200Y-102584900D01*
X55305300Y-108480000D02*
X55305300Y-108112600D01*
X56113200Y-107304700D02*
X57006300Y-107304700D01*
%TO.N,AUX-HEAD-6*%
X51289100Y-107304600D02*
X52621100Y-107304600D01*
X62659700Y-110110300D02*
X64290000Y-108480000D01*
X46613400Y-68495600D02*
X46613400Y-102628900D01*
X54068200Y-110110300D02*
X62659700Y-110110300D01*
X52621100Y-107304600D02*
X52765400Y-107448900D01*
X47804000Y-67305000D02*
X46613400Y-68495600D01*
X52765400Y-108807500D02*
X54068200Y-110110300D01*
X46613400Y-102628900D02*
X51289100Y-107304600D01*
X52765400Y-107448900D02*
X52765400Y-108807500D01*
%TO.N,AUX-HEAD-5*%
X61750000Y-108480000D02*
X61750000Y-107304700D01*
X62864800Y-104931900D02*
X62925300Y-104992400D01*
X47804000Y-64765000D02*
X44542700Y-68026300D01*
X62925300Y-104992400D02*
X62925300Y-106496800D01*
X44542700Y-68026300D02*
X44542700Y-95488900D01*
X62925300Y-106496800D02*
X62117400Y-107304700D01*
X62117400Y-107304700D02*
X61750000Y-107304700D01*
%TO.N,AUX-HEAD-7*%
X50344000Y-64765000D02*
X49172100Y-63593100D01*
X49172100Y-63593100D02*
X47299400Y-63593100D01*
X47998700Y-107304700D02*
X48615400Y-107304700D01*
X41555200Y-69337300D02*
X41555200Y-100861200D01*
X47299400Y-63593100D02*
X41555200Y-69337300D01*
X41555200Y-100861200D02*
X47998700Y-107304700D01*
%TO.N,AUX-HEAD-8*%
X44098000Y-96959400D02*
X45268000Y-95789400D01*
X49171500Y-66132500D02*
X50344000Y-67305000D01*
X49861000Y-108567300D02*
X49861000Y-107067600D01*
X47322800Y-66132500D02*
X49171500Y-66132500D01*
X44098000Y-101304600D02*
X44098000Y-96959400D01*
X49861000Y-107067600D02*
X44098000Y-101304600D01*
X45268000Y-95789400D02*
X45268000Y-68187300D01*
X45268000Y-68187300D02*
X47322800Y-66132500D01*
%TO.N,AUX-HEAD-10*%
X67280600Y-80912900D02*
X71934000Y-85566300D01*
X73264200Y-103583600D02*
X73264200Y-107294200D01*
X71934000Y-85566300D02*
X71934000Y-102253400D01*
X73264200Y-107294200D02*
X74450000Y-108480000D01*
X71934000Y-102253400D02*
X73264200Y-103583600D01*
%TO.N,AUX-HEAD-9*%
X47957200Y-73359600D02*
X47957200Y-90540900D01*
X51614000Y-66035000D02*
X51614000Y-69702800D01*
X52884000Y-64765000D02*
X51614000Y-66035000D01*
X51614000Y-69702800D02*
X47957200Y-73359600D01*
%TO.N,AUX-HEAD-12*%
X79530000Y-108480000D02*
X79530000Y-107304700D01*
X79554000Y-102253400D02*
X79554000Y-82979200D01*
X80705300Y-103404700D02*
X79554000Y-102253400D01*
X79554000Y-82979200D02*
X73590200Y-77015400D01*
X80705300Y-106496800D02*
X80705300Y-103404700D01*
X79897400Y-107304700D02*
X80705300Y-106496800D01*
X79530000Y-107304700D02*
X79897400Y-107304700D01*
%TO.N,AUX-HEAD-13*%
X80011700Y-81620800D02*
X80011700Y-93507300D01*
X82070000Y-108480000D02*
X82070000Y-107304700D01*
X80011700Y-93507300D02*
X82094000Y-95589600D01*
X82094000Y-95589600D02*
X82094000Y-102253400D01*
X82437300Y-107304700D02*
X82070000Y-107304700D01*
X83262100Y-103421500D02*
X83262100Y-106479900D01*
X83262100Y-106479900D02*
X82437300Y-107304700D01*
X74097800Y-75706900D02*
X80011700Y-81620800D01*
X82094000Y-102253400D02*
X83262100Y-103421500D01*
%TO.N,AUX-HEAD-14*%
X51590000Y-105940000D02*
X51590000Y-104764700D01*
X57964000Y-67305000D02*
X51590000Y-73679000D01*
X51590000Y-73679000D02*
X51590000Y-104764700D01*
%TO.N,AUX-HEAD-15*%
X60504000Y-64765000D02*
X59340400Y-65928600D01*
X59340400Y-67574200D02*
X54130000Y-72784600D01*
X54130000Y-72784600D02*
X54130000Y-105940000D01*
X59340400Y-65928600D02*
X59340400Y-67574200D01*
%TO.N,AUX-HEAD-16*%
X60504000Y-67305000D02*
X55755000Y-72054000D01*
X56670000Y-81398300D02*
X56670000Y-105940000D01*
X55755000Y-72054000D02*
X55755000Y-80483400D01*
X55755000Y-80483400D02*
X56669900Y-81398300D01*
X56669900Y-81398300D02*
X56670000Y-81398300D01*
%TO.N,AUX-HEAD-17*%
X56694000Y-66876000D02*
X56694000Y-67680500D01*
X58260700Y-66141400D02*
X57428600Y-66141400D01*
X49174700Y-103351100D02*
X50033500Y-104209900D01*
X59234100Y-65168000D02*
X58260700Y-66141400D01*
X59234100Y-64322400D02*
X59234100Y-65168000D01*
X63044000Y-64765000D02*
X61853300Y-63574300D01*
X57428600Y-66141400D02*
X56694000Y-66876000D01*
X59982200Y-63574300D02*
X59234100Y-64322400D01*
X61853300Y-63574300D02*
X59982200Y-63574300D01*
X56694000Y-67680500D02*
X49174700Y-75199800D01*
X49174700Y-75199800D02*
X49174700Y-103351100D01*
%TO.N,AUX-HEAD-18*%
X61880100Y-100841900D02*
X62581100Y-101542900D01*
X62581100Y-103933600D02*
X61750000Y-104764700D01*
X61880100Y-96937400D02*
X61880100Y-100841900D01*
X62581100Y-101542900D02*
X62581100Y-103933600D01*
X63044000Y-67305000D02*
X63044000Y-95773500D01*
X63044000Y-95773500D02*
X61880100Y-96937400D01*
X61750000Y-105940000D02*
X61750000Y-104764700D01*
%TO.N,AUX-HEAD-19*%
X64413900Y-65935100D02*
X65584000Y-64765000D01*
X64573300Y-84400700D02*
X64573300Y-83799700D01*
X64290000Y-84684000D02*
X64573300Y-84400700D01*
X64573300Y-83799700D02*
X64413900Y-83640300D01*
X64290000Y-105940000D02*
X64290000Y-84684000D01*
X64413900Y-83640300D02*
X64413900Y-65935100D01*
%TO.N,AUX-HEAD-21*%
X66830000Y-105940000D02*
X66830000Y-85130100D01*
X66830000Y-85130100D02*
X67433600Y-84526500D01*
%TO.N,AUX-HEAD-20*%
X65584000Y-81650900D02*
X69370000Y-85436900D01*
X69370000Y-85436900D02*
X69370000Y-104764700D01*
X65584000Y-67305000D02*
X65584000Y-81650900D01*
X69370000Y-105940000D02*
X69370000Y-104764700D01*
%TO.N,AUX-HEAD-22*%
X107060800Y-84109700D02*
X107060800Y-86355300D01*
X85904000Y-69845000D02*
X87585800Y-68163200D01*
X100876200Y-78751000D02*
X101702100Y-78751000D01*
X101702100Y-78751000D02*
X107060800Y-84109700D01*
X95207100Y-68932000D02*
X95207100Y-73081900D01*
X113990100Y-93284600D02*
X113990100Y-110319900D01*
X95207100Y-73081900D02*
X100876200Y-78751000D01*
X94438300Y-68163200D02*
X95207100Y-68932000D01*
X87585800Y-68163200D02*
X94438300Y-68163200D01*
X107060800Y-86355300D02*
X113990100Y-93284600D01*
%TO.N,AUX-HEAD-23*%
X94756700Y-69118600D02*
X94301900Y-68663800D01*
X113035600Y-108902000D02*
X113035600Y-93285300D01*
X94756700Y-75172900D02*
X94756700Y-69118600D01*
X88884300Y-71035600D02*
X84554600Y-71035600D01*
X100874800Y-81291000D02*
X94756700Y-75172900D01*
X111421100Y-110516500D02*
X113035600Y-108902000D01*
X106610300Y-86860000D02*
X106610300Y-86223100D01*
X74450000Y-107115300D02*
X74817400Y-107115300D01*
X101678200Y-81291000D02*
X100874800Y-81291000D01*
X77359000Y-110516500D02*
X111421100Y-110516500D01*
X74450000Y-105940000D02*
X74450000Y-107115300D01*
X106610300Y-86223100D02*
X101678200Y-81291000D01*
X113035600Y-93285300D02*
X106610300Y-86860000D01*
X94301900Y-68663800D02*
X91256100Y-68663800D01*
X91256100Y-68663800D02*
X88884300Y-71035600D01*
X74817400Y-107115300D02*
X75625300Y-107923200D01*
X84554600Y-71035600D02*
X83364000Y-69845000D01*
X75625300Y-107923200D02*
X75625300Y-108782800D01*
X75625300Y-108782800D02*
X77359000Y-110516500D01*
%TD*%
M02*
