M48
; DRILL file {KiCad (5.1.7)-1} date 02/24/23 20:45:22
; FORMAT={-:-/ absolute / inch / decimal}
; #@! TF.CreationDate,2023-02-24T20:45:22+00:00
; #@! TF.GenerationSoftware,Kicad,Pcbnew,(5.1.7)-1
; #@! TF.FileFunction,Plated,1,2,PTH
FMAT,2
INCH
T1C0.0157
T2C0.0315
T3C0.0354
T4C0.0394
T5C0.0433
T6C0.0469
T7C0.0512
T8C0.1260
%
G90
G05
T1
X1.9274Y-3.4679
X2.2217Y-2.4091
X2.3078Y-3.4217
X3.0871Y-2.6898
X4.4632Y-3.1661
T2
X2.0992Y-1.8846
X2.1992Y-1.8846
X2.2992Y-1.8846
X7.489Y-2.4602
X7.889Y-2.4602
X6.8272Y-2.4618
X7.2272Y-2.4618
X1.4634Y-2.3539
X1.8634Y-2.3539
X7.4535Y-1.8846
X7.5535Y-1.8846
X7.6535Y-1.8846
X5.4858Y-2.5028
X5.8858Y-2.5028
X7.0594Y-3.8626
X7.2563Y-3.8626
X6.7012Y-3.8626
X6.898Y-3.8626
X6.7843Y-1.8846
X6.8843Y-1.8846
X6.9843Y-1.8846
X1.4299Y-1.8846
X1.5299Y-1.8846
X1.6299Y-1.8846
X4.8047Y-2.4874
X5.2047Y-2.4874
X2.8539Y-2.3594
X3.2539Y-2.3594
X1.4539Y-2.5413
X1.4539Y-2.6413
X1.4539Y-3.0413
X1.4539Y-3.1413
X1.4539Y-3.2413
X1.4539Y-3.5413
X1.4539Y-3.6413
X1.4539Y-3.7413
X1.4539Y-3.8413
X1.4539Y-3.9413
X1.5539Y-2.5413
X1.5539Y-2.6413
X1.5539Y-3.0413
X1.5539Y-3.1413
X1.5539Y-3.2413
X1.5539Y-3.5413
X1.5539Y-3.6413
X1.5539Y-3.7413
X1.5539Y-3.8413
X1.5539Y-3.9413
X1.6539Y-2.5413
X1.6539Y-2.6413
X1.6539Y-3.8413
X1.6539Y-3.9413
X1.7539Y-2.5413
X1.7539Y-2.6413
X1.7539Y-3.8413
X1.7539Y-3.9413
X1.8539Y-2.5413
X1.8539Y-2.6413
X1.8539Y-3.8413
X1.8539Y-3.9413
X1.9539Y-2.5413
X1.9539Y-2.6413
X1.9539Y-3.8413
X1.9539Y-3.9413
X2.0539Y-2.5413
X2.0539Y-2.6413
X2.0539Y-3.8413
X2.0539Y-3.9413
X2.1539Y-2.5413
X2.1539Y-2.6413
X2.1539Y-3.8413
X2.1539Y-3.9413
X2.2539Y-2.5413
X2.2539Y-2.6413
X2.2539Y-3.8413
X2.2539Y-3.9413
X2.3539Y-2.5413
X2.3539Y-2.6413
X2.3539Y-3.8413
X2.3539Y-3.9413
X2.4539Y-2.5413
X2.4539Y-2.6413
X2.4539Y-3.8413
X2.4539Y-3.9413
X2.5539Y-2.5413
X2.5539Y-2.6413
X2.5539Y-3.8413
X2.5539Y-3.9413
X2.6539Y-2.5413
X2.6539Y-2.6413
X2.6539Y-3.8413
X2.6539Y-3.9413
X2.7539Y-2.5413
X2.7539Y-2.6413
X2.7539Y-3.8413
X2.7539Y-3.9413
X2.8539Y-2.5413
X2.8539Y-2.6413
X2.8539Y-3.8413
X2.8539Y-3.9413
X2.9539Y-2.5413
X2.9539Y-2.6413
X2.9539Y-3.8413
X2.9539Y-3.9413
X3.0539Y-2.5413
X3.0539Y-2.6413
X3.1539Y-2.5413
X3.1539Y-2.6413
X3.2539Y-2.5413
X3.2539Y-2.6413
X3.3539Y-2.5413
X3.3539Y-2.6413
X3.4539Y-2.5413
X3.4539Y-2.6413
X3.6075Y-2.5996
X3.8043Y-2.5996
X5.4457Y-1.8846
X5.5457Y-1.8846
X5.6457Y-1.8846
X4.1441Y-2.4976
X4.5441Y-2.4976
X6.115Y-1.8846
X6.215Y-1.8846
X6.315Y-1.8846
X3.4787Y-2.3594
X3.8787Y-2.3594
X4.1071Y-1.8846
X4.2071Y-1.8846
X4.3071Y-1.8846
X4.7764Y-1.8846
X4.8764Y-1.8846
X4.9764Y-1.8846
X6.1917Y-2.4772
X6.5917Y-2.4772
X2.7685Y-1.8846
X2.8685Y-1.8846
X2.9685Y-1.8846
X3.4378Y-1.8846
X3.5378Y-1.8846
X3.6378Y-1.8846
X2.1295Y-2.3543
X2.5295Y-2.3543
T3
X7.165Y-1.9161
X7.265Y-1.9161
X2.4799Y-1.9161
X2.5799Y-1.9161
X3.8185Y-1.9161
X3.9185Y-1.9161
X4.4878Y-1.9161
X4.5878Y-1.9161
X5.1571Y-1.9161
X5.2571Y-1.9161
X5.8264Y-1.9161
X5.9264Y-1.9161
X7.8343Y-1.9161
X7.9343Y-1.9161
X6.4957Y-1.9161
X6.5957Y-1.9161
X1.8106Y-1.9161
X1.9106Y-1.9161
X3.1492Y-1.9161
X3.2492Y-1.9161
T4
X7.4913Y-1.5811
X7.9638Y-1.5811
X6.1528Y-1.5811
X6.6252Y-1.5811
X3.4756Y-1.5811
X3.948Y-1.5811
X7.3461Y-2.9217
X7.3461Y-3.0217
X7.3461Y-3.1217
X7.3461Y-3.2217
X7.3461Y-3.3217
X7.3461Y-3.4217
X7.3461Y-3.5217
X5.9681Y-2.9217
X5.9681Y-3.0217
X5.9681Y-3.1217
X5.9681Y-3.2217
X5.9681Y-3.3217
X5.9681Y-3.4217
X5.9681Y-3.5217
X2.8063Y-1.5811
X3.2787Y-1.5811
X5.4169Y-2.9217
X5.4169Y-3.0217
X5.4169Y-3.1217
X5.4169Y-3.2217
X5.4169Y-3.3217
X5.4169Y-3.4217
X5.4169Y-3.5217
X1.4677Y-1.5811
X1.9402Y-1.5811
X7.8972Y-2.9217
X7.8972Y-3.0217
X7.8972Y-3.1217
X7.8972Y-3.2217
X7.8972Y-3.3217
X7.8972Y-3.4217
X7.8972Y-3.5217
X3.8957Y-4.2106
X3.9957Y-4.2106
X4.0957Y-4.2106
X4.1957Y-4.2106
X4.2957Y-4.2106
X4.3957Y-4.2106
X4.4957Y-4.2106
X4.5957Y-4.2106
X4.6957Y-4.2106
X4.7957Y-4.2106
X4.8957Y-4.2106
X4.9957Y-4.2106
X4.1449Y-1.5811
X4.6173Y-1.5811
X7.0705Y-2.9217
X7.0705Y-3.0217
X7.0705Y-3.1217
X7.0705Y-3.2217
X7.0705Y-3.3217
X7.0705Y-3.4217
X7.0705Y-3.5217
X6.7949Y-2.9217
X6.7949Y-3.0217
X6.7949Y-3.1217
X6.7949Y-3.2217
X6.7949Y-3.3217
X6.7949Y-3.4217
X6.7949Y-3.5217
X5.6925Y-2.9217
X5.6925Y-3.0217
X5.6925Y-3.1217
X5.6925Y-3.2217
X5.6925Y-3.3217
X5.6925Y-3.4217
X5.6925Y-3.5217
X6.5193Y-2.9217
X6.5193Y-3.0217
X6.5193Y-3.1217
X6.5193Y-3.2217
X6.5193Y-3.3217
X6.5193Y-3.4217
X6.5193Y-3.5217
X5.4307Y-4.1969
X5.5307Y-4.1969
X5.6307Y-4.1969
X5.7307Y-4.1969
X5.8307Y-4.1969
X5.9307Y-4.1969
X6.0307Y-4.1969
X6.1307Y-4.1969
X6.2307Y-4.1969
X6.3307Y-4.1969
X5.4835Y-1.5811
X5.9559Y-1.5811
X6.822Y-1.5811
X7.2945Y-1.5811
X7.6217Y-2.9217
X7.6217Y-3.0217
X7.6217Y-3.1217
X7.6217Y-3.2217
X7.6217Y-3.3217
X7.6217Y-3.4217
X7.6217Y-3.5217
X5.9165Y-3.9654
X6.0165Y-3.9654
X6.1165Y-3.9654
X6.2165Y-3.9654
X6.3165Y-3.9654
X4.8142Y-1.5811
X5.2866Y-1.5811
X2.137Y-1.5811
X2.6094Y-1.5811
X6.2437Y-2.9217
X6.2437Y-3.0217
X6.2437Y-3.1217
X6.2437Y-3.2217
X6.2437Y-3.3217
X6.2437Y-3.4217
X6.2437Y-3.5217
T5
X3.4768Y-2.1685
X3.8768Y-2.1685
X6.8858Y-4.2291
X6.9858Y-4.2291
X7.0858Y-4.2291
X6.7937Y-4.0012
X7.1937Y-4.0012
X6.1539Y-2.1685
X6.5539Y-2.1685
X1.4689Y-2.1685
X1.8689Y-2.1685
X7.4925Y-2.1685
X7.8925Y-2.1685
X6.8232Y-2.1685
X7.2232Y-2.1685
X2.8075Y-2.1685
X3.2075Y-2.1685
X5.4846Y-2.1685
X5.8846Y-2.1685
X4.8154Y-2.1685
X5.2154Y-2.1685
X4.1461Y-2.1685
X4.5461Y-2.1685
X2.1382Y-2.1685
X2.5382Y-2.1685
T6
X2.315Y-0.713
X2.415Y-0.713
X7.6693Y-0.713
X7.7693Y-0.713
X6.3307Y-0.713
X6.4307Y-0.713
X4.9921Y-0.713
X5.0921Y-0.713
X3.6535Y-0.713
X3.7535Y-0.713
X7.0Y-0.713
X7.1Y-0.713
X1.6457Y-0.713
X1.7457Y-0.713
X4.3228Y-0.713
X4.4228Y-0.713
X5.6614Y-0.713
X5.7614Y-0.713
X2.9843Y-0.713
X3.0843Y-0.713
T7
X5.7177Y-1.6579
X5.9559Y-1.1008
X7.0563Y-1.6579
X7.2945Y-1.1008
X5.0484Y-1.6579
X5.2866Y-1.1008
X2.3713Y-1.6579
X2.6094Y-1.1008
X7.7256Y-1.6579
X7.9638Y-1.1008
X6.387Y-1.6579
X6.6252Y-1.1008
X3.7098Y-1.6579
X3.948Y-1.1008
X3.0406Y-1.6579
X3.2787Y-1.1008
X1.702Y-1.6579
X1.9402Y-1.1008
X4.3791Y-1.6579
X4.6173Y-1.1008
T8
X8.0303Y-0.6461
X8.0303Y-4.2496
X1.4154Y-0.6461
X1.4154Y-4.2496
T4
G00X7.5488Y-3.8343
M15
G01X7.6276Y-3.8343
M16
G05
G00X7.5488Y-4.0705
M15
G01X7.6276Y-4.0705
M16
G05
G00X7.7732Y-3.9917
M15
G01X7.7732Y-3.913
M16
G05
T0
M30
