%TF.GenerationSoftware,KiCad,Pcbnew,7.0.2*%
%TF.CreationDate,2023-12-15T19:23:06+00:00*%
%TF.ProjectId,rxhardware,72786861-7264-4776-9172-652e6b696361,rev?*%
%TF.SameCoordinates,Original*%
%TF.FileFunction,Copper,L1,Top*%
%TF.FilePolarity,Positive*%
%FSLAX46Y46*%
G04 Gerber Fmt 4.6, Leading zero omitted, Abs format (unit mm)*
G04 Created by KiCad (PCBNEW 7.0.2) date 2023-12-15 19:23:06*
%MOMM*%
%LPD*%
G01*
G04 APERTURE LIST*
G04 Aperture macros list*
%AMRoundRect*
0 Rectangle with rounded corners*
0 $1 Rounding radius*
0 $2 $3 $4 $5 $6 $7 $8 $9 X,Y pos of 4 corners*
0 Add a 4 corners polygon primitive as box body*
4,1,4,$2,$3,$4,$5,$6,$7,$8,$9,$2,$3,0*
0 Add four circle primitives for the rounded corners*
1,1,$1+$1,$2,$3*
1,1,$1+$1,$4,$5*
1,1,$1+$1,$6,$7*
1,1,$1+$1,$8,$9*
0 Add four rect primitives between the rounded corners*
20,1,$1+$1,$2,$3,$4,$5,0*
20,1,$1+$1,$4,$5,$6,$7,0*
20,1,$1+$1,$6,$7,$8,$9,0*
20,1,$1+$1,$8,$9,$2,$3,0*%
G04 Aperture macros list end*
%TA.AperFunction,ComponentPad*%
%ADD10R,1.700000X1.700000*%
%TD*%
%TA.AperFunction,ComponentPad*%
%ADD11O,1.700000X1.700000*%
%TD*%
%TA.AperFunction,ComponentPad*%
%ADD12C,5.600000*%
%TD*%
%TA.AperFunction,ComponentPad*%
%ADD13RoundRect,0.250000X0.620000X0.845000X-0.620000X0.845000X-0.620000X-0.845000X0.620000X-0.845000X0*%
%TD*%
%TA.AperFunction,ComponentPad*%
%ADD14O,1.740000X2.190000*%
%TD*%
%TA.AperFunction,ComponentPad*%
%ADD15C,1.900000*%
%TD*%
%TA.AperFunction,ComponentPad*%
%ADD16C,1.400000*%
%TD*%
%TA.AperFunction,ComponentPad*%
%ADD17O,1.400000X1.400000*%
%TD*%
%TA.AperFunction,ComponentPad*%
%ADD18R,1.800000X1.800000*%
%TD*%
%TA.AperFunction,ComponentPad*%
%ADD19C,1.800000*%
%TD*%
%TA.AperFunction,Conductor*%
%ADD20C,0.250000*%
%TD*%
G04 APERTURE END LIST*
D10*
%TO.P,J1,1,Pin_1*%
%TO.N,Net-(BT1--)*%
X149186000Y-87738000D03*
D11*
%TO.P,J1,2,Pin_2*%
%TO.N,Net-(D1-A)*%
X151726000Y-87738000D03*
%TO.P,J1,3,Pin_3*%
%TO.N,unconnected-(J1-Pin_3-Pad3)*%
X154266000Y-87738000D03*
%TO.P,J1,4,Pin_4*%
%TO.N,Net-(J1-Pin_4)*%
X156806000Y-87738000D03*
%TO.P,J1,5,Pin_5*%
%TO.N,unconnected-(J1-Pin_5-Pad5)*%
X159346000Y-87738000D03*
%TO.P,J1,6,Pin_6*%
%TO.N,unconnected-(J1-Pin_6-Pad6)*%
X161886000Y-87738000D03*
%TO.P,J1,7,Pin_7*%
%TO.N,Net-(AE1-A)*%
X164426000Y-87738000D03*
%TD*%
D12*
%TO.P,H1,1*%
%TO.N,N/C*%
X156898000Y-96925000D03*
%TD*%
D13*
%TO.P,J2,1,Pin_1*%
%TO.N,Net-(J1-Pin_4)*%
X170562000Y-96088000D03*
D14*
%TO.P,J2,2,Pin_2*%
%TO.N,Net-(BT1--)*%
X168022000Y-96088000D03*
%TO.P,J2,3,Pin_3*%
%TO.N,Net-(D1-A)*%
X165482000Y-96088000D03*
%TO.P,J2,4,Pin_4*%
%TO.N,Net-(BT1-+)*%
X162942000Y-96088000D03*
%TD*%
D15*
%TO.P,BT1,1,+*%
%TO.N,Net-(BT1-+)*%
X165179000Y-84299000D03*
X155179000Y-84299000D03*
%TO.P,BT1,2,-*%
%TO.N,Net-(BT1--)*%
X160179000Y-80599000D03*
%TD*%
D16*
%TO.P,R1,1*%
%TO.N,Net-(BT1--)*%
X169951000Y-91549000D03*
D17*
%TO.P,R1,2*%
%TO.N,Net-(D1-K)*%
X162331000Y-91549000D03*
%TD*%
D10*
%TO.P,AE1,1,A*%
%TO.N,Net-(AE1-A)*%
X168249000Y-87738000D03*
%TD*%
D18*
%TO.P,D1,1,K*%
%TO.N,Net-(D1-K)*%
X150249000Y-95496000D03*
D19*
%TO.P,D1,2,A*%
%TO.N,Net-(D1-A)*%
X150249000Y-98036000D03*
%TD*%
D20*
%TO.N,Net-(AE1-A)*%
X168249000Y-87738000D02*
X164426000Y-87738000D01*
%TO.N,Net-(J1-Pin_4)*%
X157981300Y-88105400D02*
X157981300Y-87738000D01*
X158789200Y-88913300D02*
X157981300Y-88105400D01*
X163387300Y-88913300D02*
X158789200Y-88913300D01*
X170562000Y-96088000D02*
X163387300Y-88913300D01*
X156806000Y-87738000D02*
X157981300Y-87738000D01*
%TO.N,Net-(D1-K)*%
X155421300Y-91549000D02*
X162331000Y-91549000D01*
X151474300Y-95496000D02*
X155421300Y-91549000D01*
X150249000Y-95496000D02*
X151474300Y-95496000D01*
%TO.N,Net-(BT1--)*%
X150361300Y-87297300D02*
X150361300Y-87738000D01*
X157059600Y-80599000D02*
X150361300Y-87297300D01*
X160179000Y-80599000D02*
X157059600Y-80599000D01*
X149186000Y-87738000D02*
X150361300Y-87738000D01*
%TO.N,Net-(BT1-+)*%
X155179000Y-84299000D02*
X165179000Y-84299000D01*
%TD*%
M02*
