%TF.GenerationSoftware,KiCad,Pcbnew,7.0.2*%
%TF.CreationDate,2023-12-15T19:23:06+00:00*%
%TF.ProjectId,rxhardware,72786861-7264-4776-9172-652e6b696361,rev?*%
%TF.SameCoordinates,Original*%
%TF.FileFunction,Legend,Top*%
%TF.FilePolarity,Positive*%
%FSLAX46Y46*%
G04 Gerber Fmt 4.6, Leading zero omitted, Abs format (unit mm)*
G04 Created by KiCad (PCBNEW 7.0.2) date 2023-12-15 19:23:06*
%MOMM*%
%LPD*%
G01*
G04 APERTURE LIST*
%ADD10C,0.150000*%
%ADD11C,0.108000*%
%ADD12C,0.120000*%
%ADD13C,0.100000*%
G04 APERTURE END LIST*
D10*
X150101428Y-89783809D02*
X150244285Y-89831428D01*
X150244285Y-89831428D02*
X150291904Y-89879047D01*
X150291904Y-89879047D02*
X150339523Y-89974285D01*
X150339523Y-89974285D02*
X150339523Y-90117142D01*
X150339523Y-90117142D02*
X150291904Y-90212380D01*
X150291904Y-90212380D02*
X150244285Y-90260000D01*
X150244285Y-90260000D02*
X150149047Y-90307619D01*
X150149047Y-90307619D02*
X149768095Y-90307619D01*
X149768095Y-90307619D02*
X149768095Y-89307619D01*
X149768095Y-89307619D02*
X150101428Y-89307619D01*
X150101428Y-89307619D02*
X150196666Y-89355238D01*
X150196666Y-89355238D02*
X150244285Y-89402857D01*
X150244285Y-89402857D02*
X150291904Y-89498095D01*
X150291904Y-89498095D02*
X150291904Y-89593333D01*
X150291904Y-89593333D02*
X150244285Y-89688571D01*
X150244285Y-89688571D02*
X150196666Y-89736190D01*
X150196666Y-89736190D02*
X150101428Y-89783809D01*
X150101428Y-89783809D02*
X149768095Y-89783809D01*
X150720476Y-90021904D02*
X151196666Y-90021904D01*
X150625238Y-90307619D02*
X150958571Y-89307619D01*
X150958571Y-89307619D02*
X151291904Y-90307619D01*
X152196666Y-90212380D02*
X152149047Y-90260000D01*
X152149047Y-90260000D02*
X152006190Y-90307619D01*
X152006190Y-90307619D02*
X151910952Y-90307619D01*
X151910952Y-90307619D02*
X151768095Y-90260000D01*
X151768095Y-90260000D02*
X151672857Y-90164761D01*
X151672857Y-90164761D02*
X151625238Y-90069523D01*
X151625238Y-90069523D02*
X151577619Y-89879047D01*
X151577619Y-89879047D02*
X151577619Y-89736190D01*
X151577619Y-89736190D02*
X151625238Y-89545714D01*
X151625238Y-89545714D02*
X151672857Y-89450476D01*
X151672857Y-89450476D02*
X151768095Y-89355238D01*
X151768095Y-89355238D02*
X151910952Y-89307619D01*
X151910952Y-89307619D02*
X152006190Y-89307619D01*
X152006190Y-89307619D02*
X152149047Y-89355238D01*
X152149047Y-89355238D02*
X152196666Y-89402857D01*
X152625238Y-90307619D02*
X152625238Y-89307619D01*
X153196666Y-90307619D02*
X152768095Y-89736190D01*
X153196666Y-89307619D02*
X152625238Y-89879047D01*
X154577619Y-89307619D02*
X154768095Y-89307619D01*
X154768095Y-89307619D02*
X154863333Y-89355238D01*
X154863333Y-89355238D02*
X154958571Y-89450476D01*
X154958571Y-89450476D02*
X155006190Y-89640952D01*
X155006190Y-89640952D02*
X155006190Y-89974285D01*
X155006190Y-89974285D02*
X154958571Y-90164761D01*
X154958571Y-90164761D02*
X154863333Y-90260000D01*
X154863333Y-90260000D02*
X154768095Y-90307619D01*
X154768095Y-90307619D02*
X154577619Y-90307619D01*
X154577619Y-90307619D02*
X154482381Y-90260000D01*
X154482381Y-90260000D02*
X154387143Y-90164761D01*
X154387143Y-90164761D02*
X154339524Y-89974285D01*
X154339524Y-89974285D02*
X154339524Y-89640952D01*
X154339524Y-89640952D02*
X154387143Y-89450476D01*
X154387143Y-89450476D02*
X154482381Y-89355238D01*
X154482381Y-89355238D02*
X154577619Y-89307619D01*
X155768095Y-89783809D02*
X155434762Y-89783809D01*
X155434762Y-90307619D02*
X155434762Y-89307619D01*
X155434762Y-89307619D02*
X155910952Y-89307619D01*
X157053810Y-90307619D02*
X157053810Y-89307619D01*
X157053810Y-89307619D02*
X157387143Y-90021904D01*
X157387143Y-90021904D02*
X157720476Y-89307619D01*
X157720476Y-89307619D02*
X157720476Y-90307619D01*
X158387143Y-89307619D02*
X158577619Y-89307619D01*
X158577619Y-89307619D02*
X158672857Y-89355238D01*
X158672857Y-89355238D02*
X158768095Y-89450476D01*
X158768095Y-89450476D02*
X158815714Y-89640952D01*
X158815714Y-89640952D02*
X158815714Y-89974285D01*
X158815714Y-89974285D02*
X158768095Y-90164761D01*
X158768095Y-90164761D02*
X158672857Y-90260000D01*
X158672857Y-90260000D02*
X158577619Y-90307619D01*
X158577619Y-90307619D02*
X158387143Y-90307619D01*
X158387143Y-90307619D02*
X158291905Y-90260000D01*
X158291905Y-90260000D02*
X158196667Y-90164761D01*
X158196667Y-90164761D02*
X158149048Y-89974285D01*
X158149048Y-89974285D02*
X158149048Y-89640952D01*
X158149048Y-89640952D02*
X158196667Y-89450476D01*
X158196667Y-89450476D02*
X158291905Y-89355238D01*
X158291905Y-89355238D02*
X158387143Y-89307619D01*
X159244286Y-90307619D02*
X159244286Y-89307619D01*
X159244286Y-89307619D02*
X159482381Y-89307619D01*
X159482381Y-89307619D02*
X159625238Y-89355238D01*
X159625238Y-89355238D02*
X159720476Y-89450476D01*
X159720476Y-89450476D02*
X159768095Y-89545714D01*
X159768095Y-89545714D02*
X159815714Y-89736190D01*
X159815714Y-89736190D02*
X159815714Y-89879047D01*
X159815714Y-89879047D02*
X159768095Y-90069523D01*
X159768095Y-90069523D02*
X159720476Y-90164761D01*
X159720476Y-90164761D02*
X159625238Y-90260000D01*
X159625238Y-90260000D02*
X159482381Y-90307619D01*
X159482381Y-90307619D02*
X159244286Y-90307619D01*
X160244286Y-89307619D02*
X160244286Y-90117142D01*
X160244286Y-90117142D02*
X160291905Y-90212380D01*
X160291905Y-90212380D02*
X160339524Y-90260000D01*
X160339524Y-90260000D02*
X160434762Y-90307619D01*
X160434762Y-90307619D02*
X160625238Y-90307619D01*
X160625238Y-90307619D02*
X160720476Y-90260000D01*
X160720476Y-90260000D02*
X160768095Y-90212380D01*
X160768095Y-90212380D02*
X160815714Y-90117142D01*
X160815714Y-90117142D02*
X160815714Y-89307619D01*
X161768095Y-90307619D02*
X161291905Y-90307619D01*
X161291905Y-90307619D02*
X161291905Y-89307619D01*
X162101429Y-89783809D02*
X162434762Y-89783809D01*
X162577619Y-90307619D02*
X162101429Y-90307619D01*
X162101429Y-90307619D02*
X162101429Y-89307619D01*
X162101429Y-89307619D02*
X162577619Y-89307619D01*
%TO.C,J1*%
X147715619Y-90101333D02*
X148429904Y-90101333D01*
X148429904Y-90101333D02*
X148572761Y-90148952D01*
X148572761Y-90148952D02*
X148668000Y-90244190D01*
X148668000Y-90244190D02*
X148715619Y-90387047D01*
X148715619Y-90387047D02*
X148715619Y-90482285D01*
X148715619Y-89101333D02*
X148715619Y-89672761D01*
X148715619Y-89387047D02*
X147715619Y-89387047D01*
X147715619Y-89387047D02*
X147858476Y-89482285D01*
X147858476Y-89482285D02*
X147953714Y-89577523D01*
X147953714Y-89577523D02*
X148001333Y-89672761D01*
%TO.C,H1*%
X144532095Y-93746619D02*
X144532095Y-92746619D01*
X144532095Y-93222809D02*
X145103523Y-93222809D01*
X145103523Y-93746619D02*
X145103523Y-92746619D01*
X146103523Y-93746619D02*
X145532095Y-93746619D01*
X145817809Y-93746619D02*
X145817809Y-92746619D01*
X145817809Y-92746619D02*
X145722571Y-92889476D01*
X145722571Y-92889476D02*
X145627333Y-92984714D01*
X145627333Y-92984714D02*
X145532095Y-93032333D01*
%TO.C,J2*%
X166418666Y-99670619D02*
X166418666Y-100384904D01*
X166418666Y-100384904D02*
X166371047Y-100527761D01*
X166371047Y-100527761D02*
X166275809Y-100623000D01*
X166275809Y-100623000D02*
X166132952Y-100670619D01*
X166132952Y-100670619D02*
X166037714Y-100670619D01*
X166847238Y-99765857D02*
X166894857Y-99718238D01*
X166894857Y-99718238D02*
X166990095Y-99670619D01*
X166990095Y-99670619D02*
X167228190Y-99670619D01*
X167228190Y-99670619D02*
X167323428Y-99718238D01*
X167323428Y-99718238D02*
X167371047Y-99765857D01*
X167371047Y-99765857D02*
X167418666Y-99861095D01*
X167418666Y-99861095D02*
X167418666Y-99956333D01*
X167418666Y-99956333D02*
X167371047Y-100099190D01*
X167371047Y-100099190D02*
X166799619Y-100670619D01*
X166799619Y-100670619D02*
X167418666Y-100670619D01*
X134199475Y-85416380D02*
X134151856Y-85464000D01*
X134151856Y-85464000D02*
X134008999Y-85511619D01*
X134008999Y-85511619D02*
X133913761Y-85511619D01*
X133913761Y-85511619D02*
X133770904Y-85464000D01*
X133770904Y-85464000D02*
X133675666Y-85368761D01*
X133675666Y-85368761D02*
X133628047Y-85273523D01*
X133628047Y-85273523D02*
X133580428Y-85083047D01*
X133580428Y-85083047D02*
X133580428Y-84940190D01*
X133580428Y-84940190D02*
X133628047Y-84749714D01*
X133628047Y-84749714D02*
X133675666Y-84654476D01*
X133675666Y-84654476D02*
X133770904Y-84559238D01*
X133770904Y-84559238D02*
X133913761Y-84511619D01*
X133913761Y-84511619D02*
X134008999Y-84511619D01*
X134008999Y-84511619D02*
X134151856Y-84559238D01*
X134151856Y-84559238D02*
X134199475Y-84606857D01*
X134770904Y-85511619D02*
X134675666Y-85464000D01*
X134675666Y-85464000D02*
X134628047Y-85416380D01*
X134628047Y-85416380D02*
X134580428Y-85321142D01*
X134580428Y-85321142D02*
X134580428Y-85035428D01*
X134580428Y-85035428D02*
X134628047Y-84940190D01*
X134628047Y-84940190D02*
X134675666Y-84892571D01*
X134675666Y-84892571D02*
X134770904Y-84844952D01*
X134770904Y-84844952D02*
X134913761Y-84844952D01*
X134913761Y-84844952D02*
X135008999Y-84892571D01*
X135008999Y-84892571D02*
X135056618Y-84940190D01*
X135056618Y-84940190D02*
X135104237Y-85035428D01*
X135104237Y-85035428D02*
X135104237Y-85321142D01*
X135104237Y-85321142D02*
X135056618Y-85416380D01*
X135056618Y-85416380D02*
X135008999Y-85464000D01*
X135008999Y-85464000D02*
X134913761Y-85511619D01*
X134913761Y-85511619D02*
X134770904Y-85511619D01*
X135532809Y-84844952D02*
X135532809Y-85511619D01*
X135532809Y-84940190D02*
X135580428Y-84892571D01*
X135580428Y-84892571D02*
X135675666Y-84844952D01*
X135675666Y-84844952D02*
X135818523Y-84844952D01*
X135818523Y-84844952D02*
X135913761Y-84892571D01*
X135913761Y-84892571D02*
X135961380Y-84987809D01*
X135961380Y-84987809D02*
X135961380Y-85511619D01*
X136437571Y-84844952D02*
X136437571Y-85511619D01*
X136437571Y-84940190D02*
X136485190Y-84892571D01*
X136485190Y-84892571D02*
X136580428Y-84844952D01*
X136580428Y-84844952D02*
X136723285Y-84844952D01*
X136723285Y-84844952D02*
X136818523Y-84892571D01*
X136818523Y-84892571D02*
X136866142Y-84987809D01*
X136866142Y-84987809D02*
X136866142Y-85511619D01*
X137104238Y-85606857D02*
X137866142Y-85606857D01*
X138294714Y-84511619D02*
X138389952Y-84511619D01*
X138389952Y-84511619D02*
X138485190Y-84559238D01*
X138485190Y-84559238D02*
X138532809Y-84606857D01*
X138532809Y-84606857D02*
X138580428Y-84702095D01*
X138580428Y-84702095D02*
X138628047Y-84892571D01*
X138628047Y-84892571D02*
X138628047Y-85130666D01*
X138628047Y-85130666D02*
X138580428Y-85321142D01*
X138580428Y-85321142D02*
X138532809Y-85416380D01*
X138532809Y-85416380D02*
X138485190Y-85464000D01*
X138485190Y-85464000D02*
X138389952Y-85511619D01*
X138389952Y-85511619D02*
X138294714Y-85511619D01*
X138294714Y-85511619D02*
X138199476Y-85464000D01*
X138199476Y-85464000D02*
X138151857Y-85416380D01*
X138151857Y-85416380D02*
X138104238Y-85321142D01*
X138104238Y-85321142D02*
X138056619Y-85130666D01*
X138056619Y-85130666D02*
X138056619Y-84892571D01*
X138056619Y-84892571D02*
X138104238Y-84702095D01*
X138104238Y-84702095D02*
X138151857Y-84606857D01*
X138151857Y-84606857D02*
X138199476Y-84559238D01*
X138199476Y-84559238D02*
X138294714Y-84511619D01*
X139580428Y-85511619D02*
X139009000Y-85511619D01*
X139294714Y-85511619D02*
X139294714Y-84511619D01*
X139294714Y-84511619D02*
X139199476Y-84654476D01*
X139199476Y-84654476D02*
X139104238Y-84749714D01*
X139104238Y-84749714D02*
X139009000Y-84797333D01*
X139913762Y-85511619D02*
X140437571Y-84844952D01*
X139913762Y-84844952D02*
X140437571Y-85511619D01*
X141009000Y-84511619D02*
X141104238Y-84511619D01*
X141104238Y-84511619D02*
X141199476Y-84559238D01*
X141199476Y-84559238D02*
X141247095Y-84606857D01*
X141247095Y-84606857D02*
X141294714Y-84702095D01*
X141294714Y-84702095D02*
X141342333Y-84892571D01*
X141342333Y-84892571D02*
X141342333Y-85130666D01*
X141342333Y-85130666D02*
X141294714Y-85321142D01*
X141294714Y-85321142D02*
X141247095Y-85416380D01*
X141247095Y-85416380D02*
X141199476Y-85464000D01*
X141199476Y-85464000D02*
X141104238Y-85511619D01*
X141104238Y-85511619D02*
X141009000Y-85511619D01*
X141009000Y-85511619D02*
X140913762Y-85464000D01*
X140913762Y-85464000D02*
X140866143Y-85416380D01*
X140866143Y-85416380D02*
X140818524Y-85321142D01*
X140818524Y-85321142D02*
X140770905Y-85130666D01*
X140770905Y-85130666D02*
X140770905Y-84892571D01*
X140770905Y-84892571D02*
X140818524Y-84702095D01*
X140818524Y-84702095D02*
X140866143Y-84606857D01*
X140866143Y-84606857D02*
X140913762Y-84559238D01*
X140913762Y-84559238D02*
X141009000Y-84511619D01*
X142199476Y-84844952D02*
X142199476Y-85511619D01*
X141961381Y-84464000D02*
X141723286Y-85178285D01*
X141723286Y-85178285D02*
X142342333Y-85178285D01*
X142485191Y-85606857D02*
X143247095Y-85606857D01*
X143485191Y-85511619D02*
X143485191Y-84511619D01*
X143485191Y-84511619D02*
X143866143Y-84511619D01*
X143866143Y-84511619D02*
X143961381Y-84559238D01*
X143961381Y-84559238D02*
X144009000Y-84606857D01*
X144009000Y-84606857D02*
X144056619Y-84702095D01*
X144056619Y-84702095D02*
X144056619Y-84844952D01*
X144056619Y-84844952D02*
X144009000Y-84940190D01*
X144009000Y-84940190D02*
X143961381Y-84987809D01*
X143961381Y-84987809D02*
X143866143Y-85035428D01*
X143866143Y-85035428D02*
X143485191Y-85035428D01*
X144485191Y-85511619D02*
X144485191Y-84844952D01*
X144485191Y-84511619D02*
X144437572Y-84559238D01*
X144437572Y-84559238D02*
X144485191Y-84606857D01*
X144485191Y-84606857D02*
X144532810Y-84559238D01*
X144532810Y-84559238D02*
X144485191Y-84511619D01*
X144485191Y-84511619D02*
X144485191Y-84606857D01*
X144961381Y-84844952D02*
X144961381Y-85511619D01*
X144961381Y-84940190D02*
X145009000Y-84892571D01*
X145009000Y-84892571D02*
X145104238Y-84844952D01*
X145104238Y-84844952D02*
X145247095Y-84844952D01*
X145247095Y-84844952D02*
X145342333Y-84892571D01*
X145342333Y-84892571D02*
X145389952Y-84987809D01*
X145389952Y-84987809D02*
X145389952Y-85511619D01*
X157757666Y-87174619D02*
X157757666Y-87888904D01*
X157757666Y-87888904D02*
X157710047Y-88031761D01*
X157710047Y-88031761D02*
X157614809Y-88127000D01*
X157614809Y-88127000D02*
X157471952Y-88174619D01*
X157471952Y-88174619D02*
X157376714Y-88174619D01*
X158186238Y-87269857D02*
X158233857Y-87222238D01*
X158233857Y-87222238D02*
X158329095Y-87174619D01*
X158329095Y-87174619D02*
X158567190Y-87174619D01*
X158567190Y-87174619D02*
X158662428Y-87222238D01*
X158662428Y-87222238D02*
X158710047Y-87269857D01*
X158710047Y-87269857D02*
X158757666Y-87365095D01*
X158757666Y-87365095D02*
X158757666Y-87460333D01*
X158757666Y-87460333D02*
X158710047Y-87603190D01*
X158710047Y-87603190D02*
X158138619Y-88174619D01*
X158138619Y-88174619D02*
X158757666Y-88174619D01*
%TO.C,BT1*%
X170687714Y-84694190D02*
X170544857Y-84646571D01*
X170544857Y-84646571D02*
X170497238Y-84598952D01*
X170497238Y-84598952D02*
X170449619Y-84503714D01*
X170449619Y-84503714D02*
X170449619Y-84360857D01*
X170449619Y-84360857D02*
X170497238Y-84265619D01*
X170497238Y-84265619D02*
X170544857Y-84218000D01*
X170544857Y-84218000D02*
X170640095Y-84170380D01*
X170640095Y-84170380D02*
X171021047Y-84170380D01*
X171021047Y-84170380D02*
X171021047Y-85170380D01*
X171021047Y-85170380D02*
X170687714Y-85170380D01*
X170687714Y-85170380D02*
X170592476Y-85122761D01*
X170592476Y-85122761D02*
X170544857Y-85075142D01*
X170544857Y-85075142D02*
X170497238Y-84979904D01*
X170497238Y-84979904D02*
X170497238Y-84884666D01*
X170497238Y-84884666D02*
X170544857Y-84789428D01*
X170544857Y-84789428D02*
X170592476Y-84741809D01*
X170592476Y-84741809D02*
X170687714Y-84694190D01*
X170687714Y-84694190D02*
X171021047Y-84694190D01*
X170163904Y-85170380D02*
X169592476Y-85170380D01*
X169878190Y-84170380D02*
X169878190Y-85170380D01*
X168735333Y-84170380D02*
X169306761Y-84170380D01*
X169021047Y-84170380D02*
X169021047Y-85170380D01*
X169021047Y-85170380D02*
X169116285Y-85027523D01*
X169116285Y-85027523D02*
X169211523Y-84932285D01*
X169211523Y-84932285D02*
X169306761Y-84884666D01*
X164299763Y-82624190D02*
X164156906Y-82576571D01*
X164156906Y-82576571D02*
X164109287Y-82528952D01*
X164109287Y-82528952D02*
X164061668Y-82433714D01*
X164061668Y-82433714D02*
X164061668Y-82290857D01*
X164061668Y-82290857D02*
X164109287Y-82195619D01*
X164109287Y-82195619D02*
X164156906Y-82148000D01*
X164156906Y-82148000D02*
X164252144Y-82100380D01*
X164252144Y-82100380D02*
X164633096Y-82100380D01*
X164633096Y-82100380D02*
X164633096Y-83100380D01*
X164633096Y-83100380D02*
X164299763Y-83100380D01*
X164299763Y-83100380D02*
X164204525Y-83052761D01*
X164204525Y-83052761D02*
X164156906Y-83005142D01*
X164156906Y-83005142D02*
X164109287Y-82909904D01*
X164109287Y-82909904D02*
X164109287Y-82814666D01*
X164109287Y-82814666D02*
X164156906Y-82719428D01*
X164156906Y-82719428D02*
X164204525Y-82671809D01*
X164204525Y-82671809D02*
X164299763Y-82624190D01*
X164299763Y-82624190D02*
X164633096Y-82624190D01*
X163204525Y-82100380D02*
X163204525Y-82624190D01*
X163204525Y-82624190D02*
X163252144Y-82719428D01*
X163252144Y-82719428D02*
X163347382Y-82767047D01*
X163347382Y-82767047D02*
X163537858Y-82767047D01*
X163537858Y-82767047D02*
X163633096Y-82719428D01*
X163204525Y-82148000D02*
X163299763Y-82100380D01*
X163299763Y-82100380D02*
X163537858Y-82100380D01*
X163537858Y-82100380D02*
X163633096Y-82148000D01*
X163633096Y-82148000D02*
X163680715Y-82243238D01*
X163680715Y-82243238D02*
X163680715Y-82338476D01*
X163680715Y-82338476D02*
X163633096Y-82433714D01*
X163633096Y-82433714D02*
X163537858Y-82481333D01*
X163537858Y-82481333D02*
X163299763Y-82481333D01*
X163299763Y-82481333D02*
X163204525Y-82528952D01*
X162871191Y-82767047D02*
X162490239Y-82767047D01*
X162728334Y-83100380D02*
X162728334Y-82243238D01*
X162728334Y-82243238D02*
X162680715Y-82148000D01*
X162680715Y-82148000D02*
X162585477Y-82100380D01*
X162585477Y-82100380D02*
X162490239Y-82100380D01*
X162299762Y-82767047D02*
X161918810Y-82767047D01*
X162156905Y-83100380D02*
X162156905Y-82243238D01*
X162156905Y-82243238D02*
X162109286Y-82148000D01*
X162109286Y-82148000D02*
X162014048Y-82100380D01*
X162014048Y-82100380D02*
X161918810Y-82100380D01*
X161204524Y-82148000D02*
X161299762Y-82100380D01*
X161299762Y-82100380D02*
X161490238Y-82100380D01*
X161490238Y-82100380D02*
X161585476Y-82148000D01*
X161585476Y-82148000D02*
X161633095Y-82243238D01*
X161633095Y-82243238D02*
X161633095Y-82624190D01*
X161633095Y-82624190D02*
X161585476Y-82719428D01*
X161585476Y-82719428D02*
X161490238Y-82767047D01*
X161490238Y-82767047D02*
X161299762Y-82767047D01*
X161299762Y-82767047D02*
X161204524Y-82719428D01*
X161204524Y-82719428D02*
X161156905Y-82624190D01*
X161156905Y-82624190D02*
X161156905Y-82528952D01*
X161156905Y-82528952D02*
X161633095Y-82433714D01*
X160728333Y-82100380D02*
X160728333Y-82767047D01*
X160728333Y-82576571D02*
X160680714Y-82671809D01*
X160680714Y-82671809D02*
X160633095Y-82719428D01*
X160633095Y-82719428D02*
X160537857Y-82767047D01*
X160537857Y-82767047D02*
X160442619Y-82767047D01*
X160204523Y-82767047D02*
X159966428Y-82100380D01*
X159728333Y-82767047D02*
X159966428Y-82100380D01*
X159966428Y-82100380D02*
X160061666Y-81862285D01*
X160061666Y-81862285D02*
X160109285Y-81814666D01*
X160109285Y-81814666D02*
X160204523Y-81767047D01*
X159585476Y-82005142D02*
X158823571Y-82005142D01*
X158014047Y-82195619D02*
X158061666Y-82148000D01*
X158061666Y-82148000D02*
X158204523Y-82100380D01*
X158204523Y-82100380D02*
X158299761Y-82100380D01*
X158299761Y-82100380D02*
X158442618Y-82148000D01*
X158442618Y-82148000D02*
X158537856Y-82243238D01*
X158537856Y-82243238D02*
X158585475Y-82338476D01*
X158585475Y-82338476D02*
X158633094Y-82528952D01*
X158633094Y-82528952D02*
X158633094Y-82671809D01*
X158633094Y-82671809D02*
X158585475Y-82862285D01*
X158585475Y-82862285D02*
X158537856Y-82957523D01*
X158537856Y-82957523D02*
X158442618Y-83052761D01*
X158442618Y-83052761D02*
X158299761Y-83100380D01*
X158299761Y-83100380D02*
X158204523Y-83100380D01*
X158204523Y-83100380D02*
X158061666Y-83052761D01*
X158061666Y-83052761D02*
X158014047Y-83005142D01*
X157204523Y-82148000D02*
X157299761Y-82100380D01*
X157299761Y-82100380D02*
X157490237Y-82100380D01*
X157490237Y-82100380D02*
X157585475Y-82148000D01*
X157585475Y-82148000D02*
X157633094Y-82243238D01*
X157633094Y-82243238D02*
X157633094Y-82624190D01*
X157633094Y-82624190D02*
X157585475Y-82719428D01*
X157585475Y-82719428D02*
X157490237Y-82767047D01*
X157490237Y-82767047D02*
X157299761Y-82767047D01*
X157299761Y-82767047D02*
X157204523Y-82719428D01*
X157204523Y-82719428D02*
X157156904Y-82624190D01*
X157156904Y-82624190D02*
X157156904Y-82528952D01*
X157156904Y-82528952D02*
X157633094Y-82433714D01*
X156585475Y-82100380D02*
X156680713Y-82148000D01*
X156680713Y-82148000D02*
X156728332Y-82243238D01*
X156728332Y-82243238D02*
X156728332Y-83100380D01*
X156061665Y-82100380D02*
X156156903Y-82148000D01*
X156156903Y-82148000D02*
X156204522Y-82243238D01*
X156204522Y-82243238D02*
X156204522Y-83100380D01*
X159014714Y-80959000D02*
X156729000Y-80959000D01*
X153464714Y-83809000D02*
X151179000Y-83809000D01*
X152321857Y-82666142D02*
X152321857Y-84951857D01*
X168964714Y-83839000D02*
X166679000Y-83839000D01*
X167821857Y-82696142D02*
X167821857Y-84981857D01*
%TO.C,R1*%
X160461333Y-92215619D02*
X160128000Y-91739428D01*
X159889905Y-92215619D02*
X159889905Y-91215619D01*
X159889905Y-91215619D02*
X160270857Y-91215619D01*
X160270857Y-91215619D02*
X160366095Y-91263238D01*
X160366095Y-91263238D02*
X160413714Y-91310857D01*
X160413714Y-91310857D02*
X160461333Y-91406095D01*
X160461333Y-91406095D02*
X160461333Y-91548952D01*
X160461333Y-91548952D02*
X160413714Y-91644190D01*
X160413714Y-91644190D02*
X160366095Y-91691809D01*
X160366095Y-91691809D02*
X160270857Y-91739428D01*
X160270857Y-91739428D02*
X159889905Y-91739428D01*
X161413714Y-92215619D02*
X160842286Y-92215619D01*
X161128000Y-92215619D02*
X161128000Y-91215619D01*
X161128000Y-91215619D02*
X161032762Y-91358476D01*
X161032762Y-91358476D02*
X160937524Y-91453714D01*
X160937524Y-91453714D02*
X160842286Y-91501333D01*
X170968667Y-90977619D02*
X171587714Y-90977619D01*
X171587714Y-90977619D02*
X171254381Y-91358571D01*
X171254381Y-91358571D02*
X171397238Y-91358571D01*
X171397238Y-91358571D02*
X171492476Y-91406190D01*
X171492476Y-91406190D02*
X171540095Y-91453809D01*
X171540095Y-91453809D02*
X171587714Y-91549047D01*
X171587714Y-91549047D02*
X171587714Y-91787142D01*
X171587714Y-91787142D02*
X171540095Y-91882380D01*
X171540095Y-91882380D02*
X171492476Y-91930000D01*
X171492476Y-91930000D02*
X171397238Y-91977619D01*
X171397238Y-91977619D02*
X171111524Y-91977619D01*
X171111524Y-91977619D02*
X171016286Y-91930000D01*
X171016286Y-91930000D02*
X170968667Y-91882380D01*
X172016286Y-91977619D02*
X172016286Y-90977619D01*
X172587714Y-91977619D02*
X172159143Y-91406190D01*
X172587714Y-90977619D02*
X172016286Y-91549047D01*
D11*
X165988000Y-91870085D02*
X165748000Y-91527228D01*
X165576571Y-91870085D02*
X165576571Y-91150085D01*
X165576571Y-91150085D02*
X165850857Y-91150085D01*
X165850857Y-91150085D02*
X165919428Y-91184371D01*
X165919428Y-91184371D02*
X165953714Y-91218657D01*
X165953714Y-91218657D02*
X165988000Y-91287228D01*
X165988000Y-91287228D02*
X165988000Y-91390085D01*
X165988000Y-91390085D02*
X165953714Y-91458657D01*
X165953714Y-91458657D02*
X165919428Y-91492942D01*
X165919428Y-91492942D02*
X165850857Y-91527228D01*
X165850857Y-91527228D02*
X165576571Y-91527228D01*
X166673714Y-91870085D02*
X166262285Y-91870085D01*
X166468000Y-91870085D02*
X166468000Y-91150085D01*
X166468000Y-91150085D02*
X166399428Y-91252942D01*
X166399428Y-91252942D02*
X166330857Y-91321514D01*
X166330857Y-91321514D02*
X166262285Y-91355800D01*
D10*
%TO.C,AE1*%
X170449333Y-86831904D02*
X170925523Y-86831904D01*
X170354095Y-87117619D02*
X170687428Y-86117619D01*
X170687428Y-86117619D02*
X171020761Y-87117619D01*
X171354095Y-86593809D02*
X171687428Y-86593809D01*
X171830285Y-87117619D02*
X171354095Y-87117619D01*
X171354095Y-87117619D02*
X171354095Y-86117619D01*
X171354095Y-86117619D02*
X171830285Y-86117619D01*
X172782666Y-87117619D02*
X172211238Y-87117619D01*
X172496952Y-87117619D02*
X172496952Y-86117619D01*
X172496952Y-86117619D02*
X172401714Y-86260476D01*
X172401714Y-86260476D02*
X172306476Y-86355714D01*
X172306476Y-86355714D02*
X172211238Y-86403333D01*
X170387095Y-89016904D02*
X170863285Y-89016904D01*
X170291857Y-89302619D02*
X170625190Y-88302619D01*
X170625190Y-88302619D02*
X170958523Y-89302619D01*
X171291857Y-88635952D02*
X171291857Y-89302619D01*
X171291857Y-88731190D02*
X171339476Y-88683571D01*
X171339476Y-88683571D02*
X171434714Y-88635952D01*
X171434714Y-88635952D02*
X171577571Y-88635952D01*
X171577571Y-88635952D02*
X171672809Y-88683571D01*
X171672809Y-88683571D02*
X171720428Y-88778809D01*
X171720428Y-88778809D02*
X171720428Y-89302619D01*
X172053762Y-88635952D02*
X172434714Y-88635952D01*
X172196619Y-88302619D02*
X172196619Y-89159761D01*
X172196619Y-89159761D02*
X172244238Y-89255000D01*
X172244238Y-89255000D02*
X172339476Y-89302619D01*
X172339476Y-89302619D02*
X172434714Y-89302619D01*
X173149000Y-89255000D02*
X173053762Y-89302619D01*
X173053762Y-89302619D02*
X172863286Y-89302619D01*
X172863286Y-89302619D02*
X172768048Y-89255000D01*
X172768048Y-89255000D02*
X172720429Y-89159761D01*
X172720429Y-89159761D02*
X172720429Y-88778809D01*
X172720429Y-88778809D02*
X172768048Y-88683571D01*
X172768048Y-88683571D02*
X172863286Y-88635952D01*
X172863286Y-88635952D02*
X173053762Y-88635952D01*
X173053762Y-88635952D02*
X173149000Y-88683571D01*
X173149000Y-88683571D02*
X173196619Y-88778809D01*
X173196619Y-88778809D02*
X173196619Y-88874047D01*
X173196619Y-88874047D02*
X172720429Y-88969285D01*
X173625191Y-88635952D02*
X173625191Y-89302619D01*
X173625191Y-88731190D02*
X173672810Y-88683571D01*
X173672810Y-88683571D02*
X173768048Y-88635952D01*
X173768048Y-88635952D02*
X173910905Y-88635952D01*
X173910905Y-88635952D02*
X174006143Y-88683571D01*
X174006143Y-88683571D02*
X174053762Y-88778809D01*
X174053762Y-88778809D02*
X174053762Y-89302619D01*
X174529953Y-88635952D02*
X174529953Y-89302619D01*
X174529953Y-88731190D02*
X174577572Y-88683571D01*
X174577572Y-88683571D02*
X174672810Y-88635952D01*
X174672810Y-88635952D02*
X174815667Y-88635952D01*
X174815667Y-88635952D02*
X174910905Y-88683571D01*
X174910905Y-88683571D02*
X174958524Y-88778809D01*
X174958524Y-88778809D02*
X174958524Y-89302619D01*
X175863286Y-89302619D02*
X175863286Y-88778809D01*
X175863286Y-88778809D02*
X175815667Y-88683571D01*
X175815667Y-88683571D02*
X175720429Y-88635952D01*
X175720429Y-88635952D02*
X175529953Y-88635952D01*
X175529953Y-88635952D02*
X175434715Y-88683571D01*
X175863286Y-89255000D02*
X175768048Y-89302619D01*
X175768048Y-89302619D02*
X175529953Y-89302619D01*
X175529953Y-89302619D02*
X175434715Y-89255000D01*
X175434715Y-89255000D02*
X175387096Y-89159761D01*
X175387096Y-89159761D02*
X175387096Y-89064523D01*
X175387096Y-89064523D02*
X175434715Y-88969285D01*
X175434715Y-88969285D02*
X175529953Y-88921666D01*
X175529953Y-88921666D02*
X175768048Y-88921666D01*
X175768048Y-88921666D02*
X175863286Y-88874047D01*
X168425904Y-88904666D02*
X168425904Y-88428476D01*
X168711619Y-88999904D02*
X167711619Y-88666571D01*
X167711619Y-88666571D02*
X168711619Y-88333238D01*
X168187809Y-87999904D02*
X168187809Y-87666571D01*
X168711619Y-87523714D02*
X168711619Y-87999904D01*
X168711619Y-87999904D02*
X167711619Y-87999904D01*
X167711619Y-87999904D02*
X167711619Y-87523714D01*
X168711619Y-86571333D02*
X168711619Y-87142761D01*
X168711619Y-86857047D02*
X167711619Y-86857047D01*
X167711619Y-86857047D02*
X167854476Y-86952285D01*
X167854476Y-86952285D02*
X167949714Y-87047523D01*
X167949714Y-87047523D02*
X167997333Y-87142761D01*
%TO.C,D1*%
X153628619Y-99032094D02*
X152628619Y-99032094D01*
X152628619Y-99032094D02*
X152628619Y-98793999D01*
X152628619Y-98793999D02*
X152676238Y-98651142D01*
X152676238Y-98651142D02*
X152771476Y-98555904D01*
X152771476Y-98555904D02*
X152866714Y-98508285D01*
X152866714Y-98508285D02*
X153057190Y-98460666D01*
X153057190Y-98460666D02*
X153200047Y-98460666D01*
X153200047Y-98460666D02*
X153390523Y-98508285D01*
X153390523Y-98508285D02*
X153485761Y-98555904D01*
X153485761Y-98555904D02*
X153581000Y-98651142D01*
X153581000Y-98651142D02*
X153628619Y-98793999D01*
X153628619Y-98793999D02*
X153628619Y-99032094D01*
X153628619Y-97508285D02*
X153628619Y-98079713D01*
X153628619Y-97793999D02*
X152628619Y-97793999D01*
X152628619Y-97793999D02*
X152771476Y-97889237D01*
X152771476Y-97889237D02*
X152866714Y-97984475D01*
X152866714Y-97984475D02*
X152914333Y-98079713D01*
X148558619Y-99208857D02*
X148558619Y-99685047D01*
X148558619Y-99685047D02*
X147558619Y-99685047D01*
X148034809Y-98875523D02*
X148034809Y-98542190D01*
X148558619Y-98399333D02*
X148558619Y-98875523D01*
X148558619Y-98875523D02*
X147558619Y-98875523D01*
X147558619Y-98875523D02*
X147558619Y-98399333D01*
X148558619Y-97970761D02*
X147558619Y-97970761D01*
X147558619Y-97970761D02*
X147558619Y-97732666D01*
X147558619Y-97732666D02*
X147606238Y-97589809D01*
X147606238Y-97589809D02*
X147701476Y-97494571D01*
X147701476Y-97494571D02*
X147796714Y-97446952D01*
X147796714Y-97446952D02*
X147987190Y-97399333D01*
X147987190Y-97399333D02*
X148130047Y-97399333D01*
X148130047Y-97399333D02*
X148320523Y-97446952D01*
X148320523Y-97446952D02*
X148415761Y-97494571D01*
X148415761Y-97494571D02*
X148511000Y-97589809D01*
X148511000Y-97589809D02*
X148558619Y-97732666D01*
X148558619Y-97732666D02*
X148558619Y-97970761D01*
D12*
%TO.C,J1*%
X150456000Y-89068000D02*
X150456000Y-86408000D01*
X150456000Y-89068000D02*
X165756000Y-89068000D01*
X147856000Y-89068000D02*
X147856000Y-87738000D01*
X165756000Y-89068000D02*
X165756000Y-86408000D01*
X149186000Y-89068000D02*
X147856000Y-89068000D01*
X150456000Y-86408000D02*
X165756000Y-86408000D01*
%TO.C,J2*%
X172232000Y-98088000D02*
X172232000Y-94088000D01*
X171942000Y-99118000D02*
X171942000Y-93098000D01*
X171942000Y-93098000D02*
X161562000Y-93098000D01*
D13*
X171832000Y-99008000D02*
X171832000Y-93208000D01*
X171832000Y-96588000D02*
X171124893Y-96088000D01*
X171832000Y-93208000D02*
X161672000Y-93208000D01*
D12*
X171362000Y-99118000D02*
X171362000Y-98518000D01*
X171362000Y-98518000D02*
X169762000Y-98518000D01*
D13*
X171124893Y-96088000D02*
X171832000Y-95588000D01*
D12*
X170562000Y-94098000D02*
X170312000Y-94628000D01*
X170562000Y-94098000D02*
X162942000Y-94098000D01*
X170562000Y-93098000D02*
X170562000Y-94098000D01*
X170312000Y-94628000D02*
X163192000Y-94628000D01*
X170312000Y-93098000D02*
X170312000Y-94098000D01*
X169762000Y-98518000D02*
X169762000Y-99118000D01*
X168822000Y-99118000D02*
X168822000Y-98518000D01*
X168822000Y-98518000D02*
X167222000Y-98518000D01*
X167222000Y-98518000D02*
X167222000Y-99118000D01*
X166282000Y-99118000D02*
X166282000Y-98518000D01*
X166282000Y-98518000D02*
X164682000Y-98518000D01*
X164682000Y-98518000D02*
X164682000Y-99118000D01*
X163742000Y-99118000D02*
X163742000Y-98518000D01*
X163742000Y-98518000D02*
X162142000Y-98518000D01*
X163192000Y-94628000D02*
X162942000Y-94098000D01*
X163192000Y-93098000D02*
X163192000Y-94098000D01*
X162942000Y-94098000D02*
X162942000Y-93098000D01*
X162142000Y-98518000D02*
X162142000Y-99118000D01*
D13*
X161672000Y-99008000D02*
X171832000Y-99008000D01*
X161672000Y-93208000D02*
X161672000Y-99008000D01*
D12*
X161562000Y-99118000D02*
X171942000Y-99118000D01*
X161562000Y-93098000D02*
X161562000Y-99118000D01*
%TO.C,BT1*%
X171339000Y-85449000D02*
X148119000Y-85449000D01*
X148119000Y-85449000D02*
X148119000Y-79449000D01*
X148119000Y-79449000D02*
X171339000Y-79449000D01*
X171339000Y-79449000D02*
X171339000Y-85449000D01*
D13*
%TO.C,R1*%
X169951000Y-91549000D02*
X167941000Y-91549000D01*
D12*
X169011000Y-91549000D02*
X168061000Y-91549000D01*
X168061000Y-92469000D02*
X168061000Y-90629000D01*
X168061000Y-90629000D02*
X164221000Y-90629000D01*
D13*
X167941000Y-92349000D02*
X167941000Y-90749000D01*
X167941000Y-90749000D02*
X164341000Y-90749000D01*
X164341000Y-92349000D02*
X167941000Y-92349000D01*
X164341000Y-90749000D02*
X164341000Y-92349000D01*
D12*
X164221000Y-92469000D02*
X168061000Y-92469000D01*
X164221000Y-90629000D02*
X164221000Y-92469000D01*
X163271000Y-91549000D02*
X164221000Y-91549000D01*
D13*
X162331000Y-91549000D02*
X164341000Y-91549000D01*
D12*
%TO.C,AE1*%
X166919000Y-86408000D02*
X168249000Y-86408000D01*
X166919000Y-87738000D02*
X166919000Y-86408000D01*
X166919000Y-89008000D02*
X166919000Y-89068000D01*
X166919000Y-89008000D02*
X169579000Y-89008000D01*
X166919000Y-89068000D02*
X169579000Y-89068000D01*
D13*
X166979000Y-87103000D02*
X167614000Y-86468000D01*
X166979000Y-89008000D02*
X166979000Y-87103000D01*
X167614000Y-86468000D02*
X169519000Y-86468000D01*
X169519000Y-86468000D02*
X169519000Y-89008000D01*
X169519000Y-89008000D02*
X166979000Y-89008000D01*
D12*
X169579000Y-89008000D02*
X169579000Y-89068000D01*
%TO.C,D1*%
X151485000Y-95206000D02*
X151329000Y-95206000D01*
X149169000Y-95206000D02*
X149013000Y-95206000D01*
D13*
X151415190Y-95266000D02*
X149082810Y-95266000D01*
D12*
X151327608Y-98438334D02*
G75*
G03*
X151484515Y-95206001I-1078608J1672334D01*
G01*
D13*
X149083525Y-95265446D02*
G75*
G03*
X151415190Y-95266001I1165475J-1500554D01*
G01*
D12*
X151328836Y-97807129D02*
G75*
G03*
X151328999Y-95725040I-1079836J1041129D01*
G01*
X149169001Y-95725040D02*
G75*
G03*
X149169164Y-97807129I1079999J-1040960D01*
G01*
X149013485Y-95206001D02*
G75*
G03*
X149170392Y-98438334I1235515J-1559999D01*
G01*
D13*
X151749000Y-96766000D02*
G75*
G03*
X151749000Y-96766000I-1500000J0D01*
G01*
%TD*%
M02*
