M48
; DRILL file {KiCad 7.0.2} date Fri Dec 15 19:23:08 2023
; FORMAT={-:-/ absolute / inch / decimal}
; #@! TF.CreationDate,2023-12-15T19:23:08+00:00
; #@! TF.GenerationSoftware,Kicad,Pcbnew,7.0.2
; #@! TF.FileFunction,Plated,1,2,PTH
FMAT,2
INCH
; #@! TA.AperFunction,Plated,PTH,ComponentDrill
T1C0.0276
; #@! TA.AperFunction,Plated,PTH,ComponentDrill
T2C0.0354
; #@! TA.AperFunction,Plated,PTH,ComponentDrill
T3C0.0394
; #@! TA.AperFunction,Plated,PTH,ComponentDrill
T4C0.0469
; #@! TA.AperFunction,Plated,PTH,ComponentDrill
T5C0.0591
; #@! TA.AperFunction,Plated,PTH,ComponentDrill
T6C0.1260
%
G90
G05
T1
X6.391Y-3.6043
X6.691Y-3.6043
T2
X5.9153Y-3.7597
X5.9153Y-3.8597
T3
X5.8735Y-3.4543
X5.9735Y-3.4543
X6.0735Y-3.4543
X6.1735Y-3.4543
X6.2735Y-3.4543
X6.3735Y-3.4543
X6.4735Y-3.4543
X6.624Y-3.4543
T4
X6.415Y-3.783
X6.515Y-3.783
X6.615Y-3.783
X6.715Y-3.783
T5
X6.1094Y-3.3189
X6.3063Y-3.1732
X6.5031Y-3.3189
T6
X6.1771Y-3.8159
T0
M30
