M48
; DRILL file {KiCad 7.0.2} date Fri Nov  3 08:34:40 2023
; FORMAT={-:-/ absolute / inch / decimal}
; #@! TF.CreationDate,2023-11-03T08:34:40+00:00
; #@! TF.GenerationSoftware,Kicad,Pcbnew,7.0.2
; #@! TF.FileFunction,Plated,1,2,PTH
FMAT,2
INCH
; #@! TA.AperFunction,Plated,PTH,ViaDrill
T1C0.0157
; #@! TA.AperFunction,Plated,PTH,ComponentDrill
T2C0.0315
; #@! TA.AperFunction,Plated,PTH,ComponentDrill
T3C0.0354
; #@! TA.AperFunction,Plated,PTH,ComponentDrill
T4C0.0394
; #@! TA.AperFunction,Plated,PTH,ComponentDrill
T5C0.0433
; #@! TA.AperFunction,Plated,PTH,ComponentDrill
T6C0.0469
; #@! TA.AperFunction,Plated,PTH,ComponentDrill
T7C0.0512
; #@! TA.AperFunction,Plated,PTH,ComponentDrill
T8C0.1260
%
G90
G05
T1
X3.3345Y-3.5732
X3.3699Y-3.5438
X4.2577Y-3.5433
X4.2934Y-3.5855
X4.2968Y-3.5142
X4.7456Y-3.1878
X6.1645Y-3.3203
T2
X1.0843Y-1.8835
X1.1178Y-2.3528
X1.1843Y-1.8835
X1.2843Y-1.8835
X1.382Y-3.8498
X1.382Y-3.9498
X1.482Y-3.8498
X1.482Y-3.9498
X1.5178Y-2.3528
X1.582Y-3.8498
X1.582Y-3.9498
X1.6088Y-4.2267
X1.682Y-3.8498
X1.682Y-3.9498
X1.7536Y-1.8835
X1.782Y-3.8498
X1.782Y-3.9498
X1.7839Y-2.3531
X1.8057Y-4.2267
X1.8536Y-1.8835
X1.882Y-2.5498
X1.882Y-2.6498
X1.882Y-3.8498
X1.882Y-3.9498
X1.9536Y-1.8835
X1.982Y-2.5498
X1.982Y-2.6498
X1.982Y-3.8498
X1.982Y-3.9498
X2.082Y-2.5498
X2.082Y-2.6498
X2.082Y-3.8498
X2.082Y-3.9498
X2.182Y-2.5498
X2.182Y-2.6498
X2.182Y-3.8498
X2.182Y-3.9498
X2.1839Y-2.3531
X2.282Y-2.5498
X2.282Y-2.6498
X2.282Y-3.8498
X2.282Y-3.9498
X2.382Y-2.5498
X2.382Y-2.6498
X2.382Y-3.8498
X2.382Y-3.9498
X2.4229Y-1.8835
X2.482Y-2.5498
X2.482Y-2.6498
X2.482Y-3.8498
X2.482Y-3.9498
X2.5083Y-2.3583
X2.5229Y-1.8835
X2.582Y-2.5498
X2.582Y-2.6498
X2.582Y-3.8498
X2.582Y-3.9498
X2.6229Y-1.8835
X2.682Y-2.5498
X2.682Y-2.6498
X2.682Y-3.8498
X2.682Y-3.9498
X2.782Y-2.5498
X2.782Y-2.6498
X2.782Y-3.8498
X2.782Y-3.9498
X2.882Y-2.5498
X2.882Y-2.6498
X2.882Y-3.8498
X2.882Y-3.9498
X2.9083Y-2.3583
X2.982Y-2.5498
X2.982Y-2.6498
X2.982Y-3.8498
X2.982Y-3.9498
X3.082Y-2.5498
X3.082Y-2.6498
X3.082Y-3.8498
X3.082Y-3.9498
X3.0922Y-1.8835
X3.1331Y-2.3583
X3.182Y-2.5498
X3.182Y-2.6498
X3.182Y-3.8498
X3.182Y-3.9498
X3.1922Y-1.8835
X3.282Y-2.5498
X3.282Y-2.6498
X3.282Y-2.7498
X3.282Y-2.8498
X3.282Y-2.9498
X3.282Y-3.2498
X3.282Y-3.3498
X3.282Y-3.4498
X3.282Y-3.8498
X3.282Y-3.9498
X3.2922Y-1.8835
X3.382Y-2.5498
X3.382Y-2.6498
X3.382Y-2.7498
X3.382Y-2.8498
X3.382Y-2.9498
X3.382Y-3.2498
X3.382Y-3.3498
X3.382Y-3.4498
X3.382Y-3.8498
X3.382Y-3.9498
X3.5331Y-2.3583
X3.7407Y-3.8304
X3.7615Y-1.8835
X3.7985Y-2.3583
X3.8615Y-1.8835
X3.8676Y-2.7791
X3.8676Y-2.8791
X3.8676Y-2.9791
X3.8676Y-3.0791
X3.9375Y-3.8304
X3.9615Y-1.8835
X4.0989Y-3.8304
X4.1676Y-2.7791
X4.1676Y-2.8791
X4.1676Y-2.9791
X4.1676Y-3.0791
X4.1985Y-2.3583
X4.2958Y-3.8304
X4.4307Y-1.8835
X4.4591Y-2.3583
X4.5307Y-1.8835
X4.6307Y-1.8835
X4.8591Y-2.3583
X5.1Y-1.8835
X5.1402Y-2.3583
X5.2Y-1.8835
X5.3Y-1.8835
X5.5402Y-2.3583
X5.7693Y-1.8835
X5.8461Y-2.3583
X5.8693Y-1.8835
X5.9693Y-1.8835
X6.2461Y-2.3583
T3
X1.465Y-1.915
X1.565Y-1.915
X2.1343Y-1.915
X2.2343Y-1.915
X2.8036Y-1.915
X2.9036Y-1.915
X3.4729Y-1.915
X3.5729Y-1.915
X4.1422Y-1.915
X4.2422Y-1.915
X4.8115Y-1.915
X4.9115Y-1.915
X5.4807Y-1.915
X5.5807Y-1.915
X6.15Y-1.915
X6.25Y-1.915
T4
X1.027Y-2.6305
X1.027Y-2.7305
X1.027Y-2.8305
X1.027Y-2.9305
X1.027Y-3.0305
X1.027Y-3.1305
X1.027Y-3.2305
X1.027Y-3.3305
X1.027Y-3.4305
X1.1221Y-1.5799
X1.127Y-2.6305
X1.127Y-2.7305
X1.127Y-2.8305
X1.127Y-2.9305
X1.127Y-3.0305
X1.127Y-3.1305
X1.127Y-3.2305
X1.127Y-3.3305
X1.127Y-3.4305
X1.5945Y-1.5799
X1.7914Y-1.5799
X2.0187Y-4.2352
X2.1187Y-4.2352
X2.2187Y-4.2352
X2.2638Y-1.5799
X2.3187Y-4.2352
X2.4187Y-4.2352
X2.4607Y-1.5799
X2.5187Y-4.2352
X2.6187Y-4.2352
X2.7187Y-4.2352
X2.8187Y-4.2352
X2.9187Y-4.2352
X2.9331Y-1.5799
X3.13Y-1.5799
X3.1568Y-4.2274
X3.2568Y-4.2274
X3.3568Y-4.2274
X3.4568Y-4.2274
X3.6024Y-1.5799
X3.7993Y-1.5799
X3.9091Y-3.4035
X4.0091Y-3.4035
X4.1091Y-3.4035
X4.2717Y-1.5799
X4.4685Y-1.5799
X4.941Y-1.5799
X5.0593Y-3.5767
X5.0593Y-3.6767
X5.0593Y-3.7767
X5.0593Y-3.8767
X5.0593Y-3.9767
X5.0593Y-4.0767
X5.0593Y-4.1767
X5.1378Y-1.5799
X5.3743Y-3.5767
X5.3743Y-3.6767
X5.3743Y-3.7767
X5.3743Y-3.8767
X5.3743Y-3.9767
X5.3743Y-4.0767
X5.3743Y-4.1767
X5.6103Y-1.5799
X5.6892Y-3.5767
X5.6892Y-3.6767
X5.6892Y-3.7767
X5.6892Y-3.8767
X5.6892Y-3.9767
X5.6892Y-4.0767
X5.6892Y-4.1767
X5.8071Y-1.5799
X6.0042Y-3.5767
X6.0042Y-3.6767
X6.0042Y-3.7767
X6.0042Y-3.8767
X6.0042Y-3.9767
X6.0042Y-4.0767
X6.0042Y-4.1767
X6.2796Y-1.5799
X6.544Y-2.7818
X6.644Y-2.7818
X6.7264Y-0.9909
X6.7264Y-1.3058
X6.7264Y-1.6208
X6.7264Y-1.9357
X6.744Y-2.7818
X6.8264Y-0.9909
X6.8264Y-1.3058
X6.8264Y-1.6208
X6.8264Y-1.9357
X6.844Y-2.7818
X6.9264Y-0.9909
X6.9264Y-1.3058
X6.9264Y-1.6208
X6.9264Y-1.9357
X6.944Y-2.7818
X7.0264Y-0.9909
X7.0264Y-1.3058
X7.0264Y-1.6208
X7.0264Y-1.9357
X7.044Y-2.7818
X7.1264Y-0.9909
X7.1264Y-1.3058
X7.1264Y-1.6208
X7.1264Y-1.9357
X7.144Y-2.7818
X7.2264Y-0.9909
X7.2264Y-1.3058
X7.2264Y-1.6208
X7.2264Y-1.9357
X7.244Y-2.7818
X7.3264Y-0.9909
X7.3264Y-1.3058
X7.3264Y-1.6208
X7.3264Y-1.9357
X7.344Y-2.7818
X7.444Y-2.7818
X7.544Y-2.7818
X7.644Y-2.7818
T5
X1.1233Y-2.1673
X1.5233Y-2.1673
X1.7926Y-2.1673
X2.1926Y-2.1673
X2.4619Y-2.1673
X2.8619Y-2.1673
X3.1311Y-2.1673
X3.5311Y-2.1673
X3.8004Y-2.1673
X3.8332Y-3.969
X3.9253Y-4.1969
X4.0253Y-4.1969
X4.1253Y-4.1969
X4.2004Y-2.1673
X4.2332Y-3.969
X4.4697Y-2.1673
X4.8697Y-2.1673
X5.139Y-2.1673
X5.539Y-2.1673
X5.8083Y-2.1673
X6.2083Y-2.1673
T6
X1.3Y-0.7118
X1.4Y-0.7118
X1.9693Y-0.7118
X2.0693Y-0.7118
X2.6386Y-0.7118
X2.7386Y-0.7118
X3.3079Y-0.7118
X3.4079Y-0.7118
X3.9772Y-0.7118
X4.0772Y-0.7118
X4.6465Y-0.7118
X4.7465Y-0.7118
X5.3158Y-0.7118
X5.4158Y-0.7118
X5.9851Y-0.7118
X6.0851Y-0.7118
T7
X1.3563Y-1.6567
X1.5945Y-1.0996
X2.0256Y-1.6567
X2.2638Y-1.0996
X2.6949Y-1.6567
X2.9331Y-1.0996
X3.3642Y-1.6567
X3.6024Y-1.0996
X4.0335Y-1.6567
X4.2717Y-1.0996
X4.7028Y-1.6567
X4.941Y-1.0996
X5.3721Y-1.6567
X5.6103Y-1.0996
X6.0414Y-1.6567
X6.2796Y-1.0996
T8
X1.0489Y-0.6657
X1.0489Y-4.2299
X7.4271Y-4.0922
X7.7774Y-0.6657
T4
G00X4.5883Y-3.802
M15
G01X4.667Y-3.802
M16
G05
G00X4.5883Y-4.0383
M15
G01X4.667Y-4.0383
M16
G05
G00X4.8127Y-3.9595
M15
G01X4.8127Y-3.8808
M16
G05
T0
M30
