%TF.GenerationSoftware,KiCad,Pcbnew,(5.1.7)-1*%
%TF.CreationDate,2023-02-24T20:45:29+00:00*%
%TF.ProjectId,quizbuzzer,7175697a-6275-47a7-9a65-722e6b696361,V0.1.0*%
%TF.SameCoordinates,Original*%
%TF.FileFunction,Soldermask,Bot*%
%TF.FilePolarity,Negative*%
%FSLAX46Y46*%
G04 Gerber Fmt 4.6, Leading zero omitted, Abs format (unit mm)*
G04 Created by KiCad (PCBNEW (5.1.7)-1) date 2023-02-24 20:45:29*
%MOMM*%
%LPD*%
G01*
G04 APERTURE LIST*
%ADD10C,5.600000*%
%ADD11O,1.700000X1.700000*%
%ADD12R,1.700000X1.700000*%
%ADD13R,1.500000X1.500000*%
%ADD14C,1.500000*%
%ADD15C,1.676400*%
%ADD16O,1.905000X2.000000*%
%ADD17R,1.905000X2.000000*%
%ADD18O,1.600000X1.600000*%
%ADD19C,1.600000*%
%ADD20C,3.000000*%
%ADD21C,2.500000*%
%ADD22O,1.740000X2.190000*%
%ADD23R,3.500000X3.500000*%
%ADD24C,1.800000*%
%ADD25R,1.800000X1.800000*%
%ADD26O,2.200000X2.200000*%
%ADD27R,2.200000X2.200000*%
G04 APERTURE END LIST*
D10*
%TO.C,H4*%
X203970000Y-16410000D03*
%TD*%
%TO.C,H3*%
X35950000Y-16410000D03*
%TD*%
%TO.C,H2*%
X203970000Y-107940000D03*
%TD*%
%TO.C,H1*%
X35950000Y-107940000D03*
%TD*%
D11*
%TO.C,J2*%
X126890000Y-106950000D03*
X124350000Y-106950000D03*
X121810000Y-106950000D03*
X119270000Y-106950000D03*
X116730000Y-106950000D03*
X114190000Y-106950000D03*
X111650000Y-106950000D03*
X109110000Y-106950000D03*
X106570000Y-106950000D03*
X104030000Y-106950000D03*
X101490000Y-106950000D03*
D12*
X98950000Y-106950000D03*
%TD*%
D13*
%TO.C,Q10*%
X194400000Y-47870000D03*
D14*
X189320000Y-47870000D03*
X191860000Y-47870000D03*
%TD*%
D13*
%TO.C,Q9*%
X177400000Y-47870000D03*
D14*
X172320000Y-47870000D03*
X174860000Y-47870000D03*
%TD*%
D13*
%TO.C,Q8*%
X160400000Y-47870000D03*
D14*
X155320000Y-47870000D03*
X157860000Y-47870000D03*
%TD*%
D13*
%TO.C,Q7*%
X143400000Y-47870000D03*
D14*
X138320000Y-47870000D03*
X140860000Y-47870000D03*
%TD*%
D13*
%TO.C,Q6*%
X126400000Y-47870000D03*
D14*
X121320000Y-47870000D03*
X123860000Y-47870000D03*
%TD*%
D13*
%TO.C,Q5*%
X109400000Y-47870000D03*
D14*
X104320000Y-47870000D03*
X106860000Y-47870000D03*
%TD*%
D13*
%TO.C,Q4*%
X92400000Y-47870000D03*
D14*
X87320000Y-47870000D03*
X89860000Y-47870000D03*
%TD*%
D13*
%TO.C,Q3*%
X75400000Y-47870000D03*
D14*
X70320000Y-47870000D03*
X72860000Y-47870000D03*
%TD*%
D13*
%TO.C,Q2*%
X58400000Y-47870000D03*
D14*
X53320000Y-47870000D03*
X55860000Y-47870000D03*
%TD*%
D13*
%TO.C,Q1*%
X41400000Y-47870000D03*
D14*
X36320000Y-47870000D03*
X38860000Y-47870000D03*
%TD*%
D15*
%TO.C,XA1*%
X87730000Y-67090000D03*
X87730000Y-64550000D03*
X85190000Y-67090000D03*
X85190000Y-64550000D03*
X82650000Y-64550000D03*
X82650000Y-67090000D03*
X80110000Y-67090000D03*
X80110000Y-64550000D03*
X77570000Y-64550000D03*
X77570000Y-67090000D03*
X75030000Y-67090000D03*
X75030000Y-64550000D03*
X72490000Y-64550000D03*
X69950000Y-64550000D03*
X67410000Y-64550000D03*
X64870000Y-64550000D03*
X62330000Y-64550000D03*
X59790000Y-64550000D03*
X57250000Y-64550000D03*
X54710000Y-64550000D03*
X52170000Y-64550000D03*
X49630000Y-64550000D03*
X72490000Y-67090000D03*
X69950000Y-67090000D03*
X67410000Y-67090000D03*
X64870000Y-67090000D03*
X62330000Y-67090000D03*
X59790000Y-67090000D03*
X57250000Y-67090000D03*
X54710000Y-67090000D03*
X52170000Y-67090000D03*
X49630000Y-67090000D03*
X47090000Y-64550000D03*
X44550000Y-64550000D03*
X42010000Y-64550000D03*
X39470000Y-64550000D03*
X36930000Y-64550000D03*
X36930000Y-67090000D03*
X39470000Y-67090000D03*
X42010000Y-67090000D03*
X44550000Y-67090000D03*
X47090000Y-67090000D03*
X75030000Y-97570000D03*
X75030000Y-100110000D03*
X72490000Y-100110000D03*
X72490000Y-97570000D03*
X69950000Y-97570000D03*
X69950000Y-100110000D03*
X67410000Y-100110000D03*
X67410000Y-97570000D03*
X64870000Y-100110000D03*
X64870000Y-97570000D03*
X62330000Y-100110000D03*
X62330000Y-97570000D03*
X59790000Y-100110000D03*
X59790000Y-97570000D03*
X57250000Y-100110000D03*
X57250000Y-97570000D03*
X54710000Y-100110000D03*
X54710000Y-97570000D03*
X52170000Y-100110000D03*
X52170000Y-97570000D03*
X49630000Y-100110000D03*
X49630000Y-97570000D03*
X47090000Y-100110000D03*
X47090000Y-97570000D03*
X44550000Y-100110000D03*
X44550000Y-97570000D03*
X42010000Y-100110000D03*
X42010000Y-97570000D03*
X39470000Y-100110000D03*
X39470000Y-97570000D03*
X36930000Y-100110000D03*
X36930000Y-97570000D03*
X36930000Y-95030000D03*
X39470000Y-95030000D03*
X39470000Y-92490000D03*
X36930000Y-92490000D03*
X36930000Y-89950000D03*
X39470000Y-89950000D03*
X39470000Y-77250000D03*
X36930000Y-77250000D03*
X39470000Y-79790000D03*
X39470000Y-82330000D03*
X36930000Y-82330000D03*
X36930000Y-79790000D03*
%TD*%
D16*
%TO.C,U1*%
X179980000Y-107420000D03*
X177440000Y-107420000D03*
D17*
X174900000Y-107420000D03*
%TD*%
D18*
%TO.C,R18*%
X200380000Y-62490000D03*
D19*
X190220000Y-62490000D03*
%TD*%
D18*
%TO.C,R17*%
X183570000Y-62530000D03*
D19*
X173410000Y-62530000D03*
%TD*%
D18*
%TO.C,R16*%
X167430000Y-62920000D03*
D19*
X157270000Y-62920000D03*
%TD*%
D18*
%TO.C,R15*%
X149500000Y-63570000D03*
D19*
X139340000Y-63570000D03*
%TD*%
D18*
%TO.C,R14*%
X132200000Y-63180000D03*
D19*
X122040000Y-63180000D03*
%TD*%
D18*
%TO.C,R13*%
X115420000Y-63440000D03*
D19*
X105260000Y-63440000D03*
%TD*%
D18*
%TO.C,R12*%
X98520000Y-59930000D03*
D19*
X88360000Y-59930000D03*
%TD*%
D18*
%TO.C,R11*%
X82650000Y-59930000D03*
D19*
X72490000Y-59930000D03*
%TD*%
D18*
%TO.C,R10*%
X64250000Y-59800000D03*
D19*
X54090000Y-59800000D03*
%TD*%
D18*
%TO.C,R9*%
X47330000Y-59790000D03*
D19*
X37170000Y-59790000D03*
%TD*%
D20*
%TO.C,K10*%
X196230000Y-42110000D03*
D21*
X190280000Y-40160000D03*
D20*
X202280000Y-27960000D03*
D21*
X202280000Y-40160000D03*
%TD*%
D20*
%TO.C,K9*%
X179230000Y-42110000D03*
D21*
X173280000Y-40160000D03*
D20*
X185280000Y-27960000D03*
D21*
X185280000Y-40160000D03*
%TD*%
D20*
%TO.C,K8*%
X162230000Y-42110000D03*
D21*
X156280000Y-40160000D03*
D20*
X168280000Y-27960000D03*
D21*
X168280000Y-40160000D03*
%TD*%
D20*
%TO.C,K7*%
X145230000Y-42110000D03*
D21*
X139280000Y-40160000D03*
D20*
X151280000Y-27960000D03*
D21*
X151280000Y-40160000D03*
%TD*%
D20*
%TO.C,K6*%
X128230000Y-42110000D03*
D21*
X122280000Y-40160000D03*
D20*
X134280000Y-27960000D03*
D21*
X134280000Y-40160000D03*
%TD*%
D20*
%TO.C,K5*%
X111230000Y-42110000D03*
D21*
X105280000Y-40160000D03*
D20*
X117280000Y-27960000D03*
D21*
X117280000Y-40160000D03*
%TD*%
D20*
%TO.C,K4*%
X94230000Y-42110000D03*
D21*
X88280000Y-40160000D03*
D20*
X100280000Y-27960000D03*
D21*
X100280000Y-40160000D03*
%TD*%
D20*
%TO.C,K3*%
X77230000Y-42110000D03*
D21*
X71280000Y-40160000D03*
D20*
X83280000Y-27960000D03*
D21*
X83280000Y-40160000D03*
%TD*%
D20*
%TO.C,K2*%
X60230000Y-42110000D03*
D21*
X54280000Y-40160000D03*
D20*
X66280000Y-27960000D03*
D21*
X66280000Y-40160000D03*
%TD*%
D20*
%TO.C,K1*%
X43230000Y-42110000D03*
D21*
X37280000Y-40160000D03*
D20*
X49280000Y-27960000D03*
D21*
X49280000Y-40160000D03*
%TD*%
D22*
%TO.C,J24*%
X197340000Y-18110000D03*
G36*
G01*
X193930000Y-18955001D02*
X193930000Y-17264999D01*
G75*
G02*
X194179999Y-17015000I249999J0D01*
G01*
X195420001Y-17015000D01*
G75*
G02*
X195670000Y-17264999I0J-249999D01*
G01*
X195670000Y-18955001D01*
G75*
G02*
X195420001Y-19205000I-249999J0D01*
G01*
X194179999Y-19205000D01*
G75*
G02*
X193930000Y-18955001I0J249999D01*
G01*
G37*
%TD*%
%TO.C,J23*%
X180340000Y-18110000D03*
G36*
G01*
X176930000Y-18955001D02*
X176930000Y-17264999D01*
G75*
G02*
X177179999Y-17015000I249999J0D01*
G01*
X178420001Y-17015000D01*
G75*
G02*
X178670000Y-17264999I0J-249999D01*
G01*
X178670000Y-18955001D01*
G75*
G02*
X178420001Y-19205000I-249999J0D01*
G01*
X177179999Y-19205000D01*
G75*
G02*
X176930000Y-18955001I0J249999D01*
G01*
G37*
%TD*%
%TO.C,J22*%
X163340000Y-18110000D03*
G36*
G01*
X159930000Y-18955001D02*
X159930000Y-17264999D01*
G75*
G02*
X160179999Y-17015000I249999J0D01*
G01*
X161420001Y-17015000D01*
G75*
G02*
X161670000Y-17264999I0J-249999D01*
G01*
X161670000Y-18955001D01*
G75*
G02*
X161420001Y-19205000I-249999J0D01*
G01*
X160179999Y-19205000D01*
G75*
G02*
X159930000Y-18955001I0J249999D01*
G01*
G37*
%TD*%
%TO.C,J21*%
X146340000Y-18110000D03*
G36*
G01*
X142930000Y-18955001D02*
X142930000Y-17264999D01*
G75*
G02*
X143179999Y-17015000I249999J0D01*
G01*
X144420001Y-17015000D01*
G75*
G02*
X144670000Y-17264999I0J-249999D01*
G01*
X144670000Y-18955001D01*
G75*
G02*
X144420001Y-19205000I-249999J0D01*
G01*
X143179999Y-19205000D01*
G75*
G02*
X142930000Y-18955001I0J249999D01*
G01*
G37*
%TD*%
%TO.C,J20*%
X129340000Y-18110000D03*
G36*
G01*
X125930000Y-18955001D02*
X125930000Y-17264999D01*
G75*
G02*
X126179999Y-17015000I249999J0D01*
G01*
X127420001Y-17015000D01*
G75*
G02*
X127670000Y-17264999I0J-249999D01*
G01*
X127670000Y-18955001D01*
G75*
G02*
X127420001Y-19205000I-249999J0D01*
G01*
X126179999Y-19205000D01*
G75*
G02*
X125930000Y-18955001I0J249999D01*
G01*
G37*
%TD*%
%TO.C,J19*%
X112340000Y-18110000D03*
G36*
G01*
X108930000Y-18955001D02*
X108930000Y-17264999D01*
G75*
G02*
X109179999Y-17015000I249999J0D01*
G01*
X110420001Y-17015000D01*
G75*
G02*
X110670000Y-17264999I0J-249999D01*
G01*
X110670000Y-18955001D01*
G75*
G02*
X110420001Y-19205000I-249999J0D01*
G01*
X109179999Y-19205000D01*
G75*
G02*
X108930000Y-18955001I0J249999D01*
G01*
G37*
%TD*%
%TO.C,J18*%
X95340000Y-18110000D03*
G36*
G01*
X91930000Y-18955001D02*
X91930000Y-17264999D01*
G75*
G02*
X92179999Y-17015000I249999J0D01*
G01*
X93420001Y-17015000D01*
G75*
G02*
X93670000Y-17264999I0J-249999D01*
G01*
X93670000Y-18955001D01*
G75*
G02*
X93420001Y-19205000I-249999J0D01*
G01*
X92179999Y-19205000D01*
G75*
G02*
X91930000Y-18955001I0J249999D01*
G01*
G37*
%TD*%
%TO.C,J17*%
X78340000Y-18110000D03*
G36*
G01*
X74930000Y-18955001D02*
X74930000Y-17264999D01*
G75*
G02*
X75179999Y-17015000I249999J0D01*
G01*
X76420001Y-17015000D01*
G75*
G02*
X76670000Y-17264999I0J-249999D01*
G01*
X76670000Y-18955001D01*
G75*
G02*
X76420001Y-19205000I-249999J0D01*
G01*
X75179999Y-19205000D01*
G75*
G02*
X74930000Y-18955001I0J249999D01*
G01*
G37*
%TD*%
%TO.C,J16*%
X61340000Y-18110000D03*
G36*
G01*
X57930000Y-18955001D02*
X57930000Y-17264999D01*
G75*
G02*
X58179999Y-17015000I249999J0D01*
G01*
X59420001Y-17015000D01*
G75*
G02*
X59670000Y-17264999I0J-249999D01*
G01*
X59670000Y-18955001D01*
G75*
G02*
X59420001Y-19205000I-249999J0D01*
G01*
X58179999Y-19205000D01*
G75*
G02*
X57930000Y-18955001I0J249999D01*
G01*
G37*
%TD*%
%TO.C,J15*%
X44340000Y-18110000D03*
G36*
G01*
X40930000Y-18955001D02*
X40930000Y-17264999D01*
G75*
G02*
X41179999Y-17015000I249999J0D01*
G01*
X42420001Y-17015000D01*
G75*
G02*
X42670000Y-17264999I0J-249999D01*
G01*
X42670000Y-18955001D01*
G75*
G02*
X42420001Y-19205000I-249999J0D01*
G01*
X41179999Y-19205000D01*
G75*
G02*
X40930000Y-18955001I0J249999D01*
G01*
G37*
%TD*%
D11*
%TO.C,J14*%
X200590000Y-89450000D03*
X200590000Y-86910000D03*
X200590000Y-84370000D03*
X200590000Y-81830000D03*
X200590000Y-79290000D03*
X200590000Y-76750000D03*
D12*
X200590000Y-74210000D03*
%TD*%
D11*
%TO.C,J13*%
X186590000Y-89450000D03*
X186590000Y-86910000D03*
X186590000Y-84370000D03*
X186590000Y-81830000D03*
X186590000Y-79290000D03*
X186590000Y-76750000D03*
D12*
X186590000Y-74210000D03*
%TD*%
D11*
%TO.C,J12*%
X179590000Y-89450000D03*
X179590000Y-86910000D03*
X179590000Y-84370000D03*
X179590000Y-81830000D03*
X179590000Y-79290000D03*
X179590000Y-76750000D03*
D12*
X179590000Y-74210000D03*
%TD*%
D11*
%TO.C,J11*%
X172590000Y-89450000D03*
X172590000Y-86910000D03*
X172590000Y-84370000D03*
X172590000Y-81830000D03*
X172590000Y-79290000D03*
X172590000Y-76750000D03*
D12*
X172590000Y-74210000D03*
%TD*%
D11*
%TO.C,J10*%
X165590000Y-89450000D03*
X165590000Y-86910000D03*
X165590000Y-84370000D03*
X165590000Y-81830000D03*
X165590000Y-79290000D03*
X165590000Y-76750000D03*
D12*
X165590000Y-74210000D03*
%TD*%
D11*
%TO.C,J9*%
X193590000Y-89450000D03*
X193590000Y-86910000D03*
X193590000Y-84370000D03*
X193590000Y-81830000D03*
X193590000Y-79290000D03*
X193590000Y-76750000D03*
D12*
X193590000Y-74210000D03*
%TD*%
D11*
%TO.C,J8*%
X158590000Y-89450000D03*
X158590000Y-86910000D03*
X158590000Y-84370000D03*
X158590000Y-81830000D03*
X158590000Y-79290000D03*
X158590000Y-76750000D03*
D12*
X158590000Y-74210000D03*
%TD*%
D11*
%TO.C,J7*%
X151590000Y-89450000D03*
X151590000Y-86910000D03*
X151590000Y-84370000D03*
X151590000Y-81830000D03*
X151590000Y-79290000D03*
X151590000Y-76750000D03*
D12*
X151590000Y-74210000D03*
%TD*%
D11*
%TO.C,J6*%
X144590000Y-89450000D03*
X144590000Y-86910000D03*
X144590000Y-84370000D03*
X144590000Y-81830000D03*
X144590000Y-79290000D03*
X144590000Y-76750000D03*
D12*
X144590000Y-74210000D03*
%TD*%
D11*
%TO.C,J5*%
X137590000Y-89450000D03*
X137590000Y-86910000D03*
X137590000Y-84370000D03*
X137590000Y-81830000D03*
X137590000Y-79290000D03*
X137590000Y-76750000D03*
D12*
X137590000Y-74210000D03*
%TD*%
%TO.C,J4*%
G36*
G01*
X198315000Y-102140000D02*
X196565000Y-102140000D01*
G75*
G02*
X195690000Y-101265000I0J875000D01*
G01*
X195690000Y-99515000D01*
G75*
G02*
X196565000Y-98640000I875000J0D01*
G01*
X198315000Y-98640000D01*
G75*
G02*
X199190000Y-99515000I0J-875000D01*
G01*
X199190000Y-101265000D01*
G75*
G02*
X198315000Y-102140000I-875000J0D01*
G01*
G37*
G36*
G01*
X193740000Y-104890000D02*
X191740000Y-104890000D01*
G75*
G02*
X190990000Y-104140000I0J750000D01*
G01*
X190990000Y-102640000D01*
G75*
G02*
X191740000Y-101890000I750000J0D01*
G01*
X193740000Y-101890000D01*
G75*
G02*
X194490000Y-102640000I0J-750000D01*
G01*
X194490000Y-104140000D01*
G75*
G02*
X193740000Y-104890000I-750000J0D01*
G01*
G37*
D23*
X192740000Y-97390000D03*
%TD*%
D11*
%TO.C,J3*%
X160440000Y-100720000D03*
X157900000Y-100720000D03*
X155360000Y-100720000D03*
X152820000Y-100720000D03*
D12*
X150280000Y-100720000D03*
%TD*%
D11*
%TO.C,J1*%
X160800000Y-106600000D03*
X158260000Y-106600000D03*
X155720000Y-106600000D03*
X153180000Y-106600000D03*
X150640000Y-106600000D03*
X148100000Y-106600000D03*
X145560000Y-106600000D03*
X143020000Y-106600000D03*
X140480000Y-106600000D03*
D12*
X137940000Y-106600000D03*
%TD*%
D24*
%TO.C,D21*%
X201530000Y-48670000D03*
D25*
X198990000Y-48670000D03*
%TD*%
D26*
%TO.C,D20*%
X190310000Y-55080000D03*
D27*
X200470000Y-55080000D03*
%TD*%
D24*
%TO.C,D19*%
X184530000Y-48670000D03*
D25*
X181990000Y-48670000D03*
%TD*%
D26*
%TO.C,D18*%
X173310000Y-55080000D03*
D27*
X183470000Y-55080000D03*
%TD*%
D24*
%TO.C,D17*%
X167530000Y-48670000D03*
D25*
X164990000Y-48670000D03*
%TD*%
D24*
%TO.C,D16*%
X150530000Y-48670000D03*
D25*
X147990000Y-48670000D03*
%TD*%
D24*
%TO.C,D15*%
X133530000Y-48670000D03*
D25*
X130990000Y-48670000D03*
%TD*%
D24*
%TO.C,D14*%
X116530000Y-48670000D03*
D25*
X113990000Y-48670000D03*
%TD*%
D26*
%TO.C,D13*%
X156310000Y-55080000D03*
D27*
X166470000Y-55080000D03*
%TD*%
D26*
%TO.C,D12*%
X139310000Y-55080000D03*
D27*
X149470000Y-55080000D03*
%TD*%
D26*
%TO.C,D11*%
X122310000Y-55080000D03*
D27*
X132470000Y-55080000D03*
%TD*%
D26*
%TO.C,D10*%
X105310000Y-55080000D03*
D27*
X115470000Y-55080000D03*
%TD*%
D24*
%TO.C,D9*%
X99530000Y-48670000D03*
D25*
X96990000Y-48670000D03*
%TD*%
D24*
%TO.C,D8*%
X82530000Y-48670000D03*
D25*
X79990000Y-48670000D03*
%TD*%
D24*
%TO.C,D7*%
X65530000Y-48670000D03*
D25*
X62990000Y-48670000D03*
%TD*%
D24*
%TO.C,D6*%
X48530000Y-48670000D03*
D25*
X45990000Y-48670000D03*
%TD*%
D26*
%TO.C,D5*%
X88310000Y-55080000D03*
D27*
X98470000Y-55080000D03*
%TD*%
D26*
%TO.C,D4*%
X71310000Y-55080000D03*
D27*
X81470000Y-55080000D03*
%TD*%
D26*
%TO.C,D3*%
X54310000Y-55080000D03*
D27*
X64470000Y-55080000D03*
%TD*%
D26*
%TO.C,D2*%
X37310000Y-55080000D03*
D27*
X47470000Y-55080000D03*
%TD*%
D26*
%TO.C,D1*%
X182720000Y-101630000D03*
D27*
X172560000Y-101630000D03*
%TD*%
D19*
%TO.C,C3*%
X179310000Y-98110000D03*
X184310000Y-98110000D03*
%TD*%
%TO.C,C2*%
X175210000Y-98110000D03*
X170210000Y-98110000D03*
%TD*%
%TO.C,C1*%
X91630000Y-66030000D03*
X96630000Y-66030000D03*
%TD*%
M02*
