%TF.GenerationSoftware,KiCad,Pcbnew,(5.1.7)-1*%
%TF.CreationDate,2023-02-24T20:45:29+00:00*%
%TF.ProjectId,quizbuzzer,7175697a-6275-47a7-9a65-722e6b696361,V0.1.0*%
%TF.SameCoordinates,Original*%
%TF.FileFunction,Copper,L2,Bot*%
%TF.FilePolarity,Positive*%
%FSLAX46Y46*%
G04 Gerber Fmt 4.6, Leading zero omitted, Abs format (unit mm)*
G04 Created by KiCad (PCBNEW (5.1.7)-1) date 2023-02-24 20:45:29*
%MOMM*%
%LPD*%
G01*
G04 APERTURE LIST*
%TA.AperFunction,ComponentPad*%
%ADD10C,5.600000*%
%TD*%
%TA.AperFunction,ComponentPad*%
%ADD11O,1.700000X1.700000*%
%TD*%
%TA.AperFunction,ComponentPad*%
%ADD12R,1.700000X1.700000*%
%TD*%
%TA.AperFunction,ComponentPad*%
%ADD13R,1.500000X1.500000*%
%TD*%
%TA.AperFunction,ComponentPad*%
%ADD14C,1.500000*%
%TD*%
%TA.AperFunction,ComponentPad*%
%ADD15C,1.676400*%
%TD*%
%TA.AperFunction,ComponentPad*%
%ADD16O,1.905000X2.000000*%
%TD*%
%TA.AperFunction,ComponentPad*%
%ADD17R,1.905000X2.000000*%
%TD*%
%TA.AperFunction,ComponentPad*%
%ADD18O,1.600000X1.600000*%
%TD*%
%TA.AperFunction,ComponentPad*%
%ADD19C,1.600000*%
%TD*%
%TA.AperFunction,ComponentPad*%
%ADD20C,3.000000*%
%TD*%
%TA.AperFunction,ComponentPad*%
%ADD21C,2.500000*%
%TD*%
%TA.AperFunction,ComponentPad*%
%ADD22O,1.740000X2.190000*%
%TD*%
%TA.AperFunction,ComponentPad*%
%ADD23R,3.500000X3.500000*%
%TD*%
%TA.AperFunction,ComponentPad*%
%ADD24C,1.800000*%
%TD*%
%TA.AperFunction,ComponentPad*%
%ADD25R,1.800000X1.800000*%
%TD*%
%TA.AperFunction,ComponentPad*%
%ADD26O,2.200000X2.200000*%
%TD*%
%TA.AperFunction,ComponentPad*%
%ADD27R,2.200000X2.200000*%
%TD*%
%TA.AperFunction,ViaPad*%
%ADD28C,0.800000*%
%TD*%
%TA.AperFunction,Conductor*%
%ADD29C,0.250000*%
%TD*%
G04 APERTURE END LIST*
D10*
%TO.P,H4,1*%
%TO.N,GND*%
X203970000Y-16410000D03*
%TD*%
%TO.P,H3,1*%
%TO.N,GND*%
X35950000Y-16410000D03*
%TD*%
%TO.P,H2,1*%
%TO.N,GND*%
X203970000Y-107940000D03*
%TD*%
%TO.P,H1,1*%
%TO.N,GND*%
X35950000Y-107940000D03*
%TD*%
D11*
%TO.P,J2,12*%
%TO.N,GND*%
X126890000Y-106950000D03*
%TO.P,J2,11*%
%TO.N,Net-(J2-Pad11)*%
X124350000Y-106950000D03*
%TO.P,J2,10*%
%TO.N,Net-(J2-Pad10)*%
X121810000Y-106950000D03*
%TO.P,J2,9*%
%TO.N,Net-(J2-Pad9)*%
X119270000Y-106950000D03*
%TO.P,J2,8*%
%TO.N,Net-(J2-Pad8)*%
X116730000Y-106950000D03*
%TO.P,J2,7*%
%TO.N,Net-(J2-Pad7)*%
X114190000Y-106950000D03*
%TO.P,J2,6*%
%TO.N,Net-(J2-Pad6)*%
X111650000Y-106950000D03*
%TO.P,J2,5*%
%TO.N,Net-(J2-Pad5)*%
X109110000Y-106950000D03*
%TO.P,J2,4*%
%TO.N,Net-(J2-Pad4)*%
X106570000Y-106950000D03*
%TO.P,J2,3*%
%TO.N,Net-(J2-Pad3)*%
X104030000Y-106950000D03*
%TO.P,J2,2*%
%TO.N,+5V*%
X101490000Y-106950000D03*
D12*
%TO.P,J2,1*%
%TO.N,GND*%
X98950000Y-106950000D03*
%TD*%
D13*
%TO.P,Q10,1*%
%TO.N,GND*%
X194400000Y-47870000D03*
D14*
%TO.P,Q10,3*%
%TO.N,Net-(D20-Pad2)*%
X189320000Y-47870000D03*
%TO.P,Q10,2*%
%TO.N,Net-(D21-Pad1)*%
X191860000Y-47870000D03*
%TD*%
D13*
%TO.P,Q9,1*%
%TO.N,GND*%
X177400000Y-47870000D03*
D14*
%TO.P,Q9,3*%
%TO.N,Net-(D18-Pad2)*%
X172320000Y-47870000D03*
%TO.P,Q9,2*%
%TO.N,Net-(D19-Pad1)*%
X174860000Y-47870000D03*
%TD*%
D13*
%TO.P,Q8,1*%
%TO.N,GND*%
X160400000Y-47870000D03*
D14*
%TO.P,Q8,3*%
%TO.N,Net-(D13-Pad2)*%
X155320000Y-47870000D03*
%TO.P,Q8,2*%
%TO.N,Net-(D17-Pad1)*%
X157860000Y-47870000D03*
%TD*%
D13*
%TO.P,Q7,1*%
%TO.N,GND*%
X143400000Y-47870000D03*
D14*
%TO.P,Q7,3*%
%TO.N,Net-(D12-Pad2)*%
X138320000Y-47870000D03*
%TO.P,Q7,2*%
%TO.N,Net-(D16-Pad1)*%
X140860000Y-47870000D03*
%TD*%
D13*
%TO.P,Q6,1*%
%TO.N,GND*%
X126400000Y-47870000D03*
D14*
%TO.P,Q6,3*%
%TO.N,Net-(D11-Pad2)*%
X121320000Y-47870000D03*
%TO.P,Q6,2*%
%TO.N,Net-(D15-Pad1)*%
X123860000Y-47870000D03*
%TD*%
D13*
%TO.P,Q5,1*%
%TO.N,GND*%
X109400000Y-47870000D03*
D14*
%TO.P,Q5,3*%
%TO.N,Net-(D10-Pad2)*%
X104320000Y-47870000D03*
%TO.P,Q5,2*%
%TO.N,Net-(D14-Pad1)*%
X106860000Y-47870000D03*
%TD*%
D13*
%TO.P,Q4,1*%
%TO.N,GND*%
X92400000Y-47870000D03*
D14*
%TO.P,Q4,3*%
%TO.N,Net-(D5-Pad2)*%
X87320000Y-47870000D03*
%TO.P,Q4,2*%
%TO.N,Net-(D9-Pad1)*%
X89860000Y-47870000D03*
%TD*%
D13*
%TO.P,Q3,1*%
%TO.N,GND*%
X75400000Y-47870000D03*
D14*
%TO.P,Q3,3*%
%TO.N,Net-(D4-Pad2)*%
X70320000Y-47870000D03*
%TO.P,Q3,2*%
%TO.N,Net-(D8-Pad1)*%
X72860000Y-47870000D03*
%TD*%
D13*
%TO.P,Q2,1*%
%TO.N,GND*%
X58400000Y-47870000D03*
D14*
%TO.P,Q2,3*%
%TO.N,Net-(D3-Pad2)*%
X53320000Y-47870000D03*
%TO.P,Q2,2*%
%TO.N,Net-(D7-Pad1)*%
X55860000Y-47870000D03*
%TD*%
D13*
%TO.P,Q1,1*%
%TO.N,GND*%
X41400000Y-47870000D03*
D14*
%TO.P,Q1,3*%
%TO.N,Net-(D2-Pad2)*%
X36320000Y-47870000D03*
%TO.P,Q1,2*%
%TO.N,Net-(D6-Pad1)*%
X38860000Y-47870000D03*
%TD*%
D15*
%TO.P,XA1,VIN*%
%TO.N,Net-(XA1-PadVIN)*%
X87730000Y-67090000D03*
X87730000Y-64550000D03*
%TO.P,XA1,GND1*%
%TO.N,GND*%
X85190000Y-67090000D03*
%TO.P,XA1,GND2*%
X85190000Y-64550000D03*
%TO.P,XA1,5V2*%
%TO.N,+5V*%
X82650000Y-64550000D03*
%TO.P,XA1,5V1*%
X82650000Y-67090000D03*
%TO.P,XA1,3V3*%
%TO.N,Net-(XA1-Pad3V3)*%
X80110000Y-67090000D03*
X80110000Y-64550000D03*
%TO.P,XA1,RST*%
%TO.N,N/C*%
X77570000Y-64550000D03*
%TO.P,XA1,AREF*%
%TO.N,Net-(XA1-PadAREF)*%
X77570000Y-67090000D03*
%TO.P,XA1,D0*%
%TO.N,Net-(XA1-PadD0)*%
X75030000Y-67090000D03*
%TO.P,XA1,D1*%
%TO.N,Net-(XA1-PadD1)*%
X75030000Y-64550000D03*
%TO.P,XA1,D3*%
%TO.N,Net-(XA1-PadD3)*%
X72490000Y-64550000D03*
%TO.P,XA1,D5*%
%TO.N,Net-(J2-Pad4)*%
X69950000Y-64550000D03*
%TO.P,XA1,D7*%
%TO.N,Net-(J2-Pad6)*%
X67410000Y-64550000D03*
%TO.P,XA1,D9*%
%TO.N,Net-(J2-Pad8)*%
X64870000Y-64550000D03*
%TO.P,XA1,D11*%
%TO.N,Net-(J2-Pad10)*%
X62330000Y-64550000D03*
%TO.P,XA1,D13*%
%TO.N,Lamp1*%
X59790000Y-64550000D03*
%TO.P,XA1,D15*%
%TO.N,Net-(XA1-PadD15)*%
X57250000Y-64550000D03*
%TO.P,XA1,D17*%
%TO.N,Net-(XA1-PadD17)*%
X54710000Y-64550000D03*
%TO.P,XA1,D19*%
%TO.N,Net-(XA1-PadD19)*%
X52170000Y-64550000D03*
%TO.P,XA1,D21*%
%TO.N,SCL*%
X49630000Y-64550000D03*
%TO.P,XA1,D2*%
%TO.N,Net-(XA1-PadD2)*%
X72490000Y-67090000D03*
%TO.P,XA1,D4*%
%TO.N,Net-(J2-Pad3)*%
X69950000Y-67090000D03*
%TO.P,XA1,D6*%
%TO.N,Net-(J2-Pad5)*%
X67410000Y-67090000D03*
%TO.P,XA1,D8*%
%TO.N,Net-(J2-Pad7)*%
X64870000Y-67090000D03*
%TO.P,XA1,D10*%
%TO.N,Net-(J2-Pad9)*%
X62330000Y-67090000D03*
%TO.P,XA1,D12*%
%TO.N,Net-(J2-Pad11)*%
X59790000Y-67090000D03*
%TO.P,XA1,D14*%
%TO.N,Net-(XA1-PadD14)*%
X57250000Y-67090000D03*
%TO.P,XA1,D16*%
%TO.N,Net-(XA1-PadD16)*%
X54710000Y-67090000D03*
%TO.P,XA1,D18*%
%TO.N,Net-(XA1-PadD18)*%
X52170000Y-67090000D03*
%TO.P,XA1,D20*%
%TO.N,SDA*%
X49630000Y-67090000D03*
%TO.P,XA1,D23*%
%TO.N,Lamp3*%
X47090000Y-64550000D03*
%TO.P,XA1,D25*%
%TO.N,Lamp5*%
X44550000Y-64550000D03*
%TO.P,XA1,D27*%
%TO.N,Lamp7*%
X42010000Y-64550000D03*
%TO.P,XA1,D29*%
%TO.N,Lamp9*%
X39470000Y-64550000D03*
%TO.P,XA1,D31*%
%TO.N,Net-(J1-Pad2)*%
X36930000Y-64550000D03*
%TO.P,XA1,D30*%
%TO.N,Lamp10*%
X36930000Y-67090000D03*
%TO.P,XA1,D28*%
%TO.N,Lamp8*%
X39470000Y-67090000D03*
%TO.P,XA1,D26*%
%TO.N,Lamp6*%
X42010000Y-67090000D03*
%TO.P,XA1,D24*%
%TO.N,Lamp4*%
X44550000Y-67090000D03*
%TO.P,XA1,D22*%
%TO.N,Lamp2*%
X47090000Y-67090000D03*
%TO.P,XA1,A1*%
%TO.N,Net-(XA1-PadA1)*%
X75030000Y-97570000D03*
%TO.P,XA1,A0*%
%TO.N,Net-(XA1-PadA0)*%
X75030000Y-100110000D03*
%TO.P,XA1,A2*%
%TO.N,Net-(XA1-PadA2)*%
X72490000Y-100110000D03*
%TO.P,XA1,A3*%
%TO.N,Net-(XA1-PadA3)*%
X72490000Y-97570000D03*
%TO.P,XA1,A5*%
%TO.N,Net-(XA1-PadA5)*%
X69950000Y-97570000D03*
%TO.P,XA1,A4*%
%TO.N,Net-(XA1-PadA4)*%
X69950000Y-100110000D03*
%TO.P,XA1,A6*%
%TO.N,Net-(XA1-PadA6)*%
X67410000Y-100110000D03*
%TO.P,XA1,A7*%
%TO.N,Net-(XA1-PadA7)*%
X67410000Y-97570000D03*
%TO.P,XA1,A8*%
%TO.N,Net-(XA1-PadA8)*%
X64870000Y-100110000D03*
%TO.P,XA1,A9*%
%TO.N,Net-(XA1-PadA9)*%
X64870000Y-97570000D03*
%TO.P,XA1,A10*%
%TO.N,Net-(XA1-PadA10)*%
X62330000Y-100110000D03*
%TO.P,XA1,A11*%
%TO.N,Net-(XA1-PadA11)*%
X62330000Y-97570000D03*
%TO.P,XA1,A12*%
%TO.N,Net-(XA1-PadA12)*%
X59790000Y-100110000D03*
%TO.P,XA1,A13*%
%TO.N,Net-(XA1-PadA13)*%
X59790000Y-97570000D03*
%TO.P,XA1,A14*%
%TO.N,Net-(XA1-PadA14)*%
X57250000Y-100110000D03*
%TO.P,XA1,A15*%
%TO.N,Net-(XA1-PadA15)*%
X57250000Y-97570000D03*
%TO.P,XA1,D32*%
%TO.N,Net-(J1-Pad3)*%
X54710000Y-100110000D03*
%TO.P,XA1,D33*%
%TO.N,Net-(J1-Pad4)*%
X54710000Y-97570000D03*
%TO.P,XA1,D34*%
%TO.N,Net-(J1-Pad5)*%
X52170000Y-100110000D03*
%TO.P,XA1,D35*%
%TO.N,Net-(J1-Pad6)*%
X52170000Y-97570000D03*
%TO.P,XA1,D36*%
%TO.N,Net-(J1-Pad7)*%
X49630000Y-100110000D03*
%TO.P,XA1,D37*%
%TO.N,Net-(J1-Pad8)*%
X49630000Y-97570000D03*
%TO.P,XA1,D38*%
%TO.N,Net-(J1-Pad9)*%
X47090000Y-100110000D03*
%TO.P,XA1,D39*%
%TO.N,Net-(XA1-PadD39)*%
X47090000Y-97570000D03*
%TO.P,XA1,D40*%
%TO.N,Net-(XA1-PadD40)*%
X44550000Y-100110000D03*
%TO.P,XA1,D41*%
%TO.N,Net-(XA1-PadD41)*%
X44550000Y-97570000D03*
%TO.P,XA1,D42*%
%TO.N,Net-(XA1-PadD42)*%
X42010000Y-100110000D03*
%TO.P,XA1,D43*%
%TO.N,Net-(XA1-PadD43)*%
X42010000Y-97570000D03*
%TO.P,XA1,D44*%
%TO.N,Rec1*%
X39470000Y-100110000D03*
%TO.P,XA1,D45*%
%TO.N,Rec2*%
X39470000Y-97570000D03*
%TO.P,XA1,D46*%
%TO.N,Rec3*%
X36930000Y-100110000D03*
%TO.P,XA1,D47*%
%TO.N,Rec4*%
X36930000Y-97570000D03*
%TO.P,XA1,D48*%
%TO.N,Rec5*%
X36930000Y-95030000D03*
%TO.P,XA1,D49*%
%TO.N,Rec6*%
X39470000Y-95030000D03*
%TO.P,XA1,D51*%
%TO.N,Rec8*%
X39470000Y-92490000D03*
%TO.P,XA1,D50*%
%TO.N,Rec7*%
X36930000Y-92490000D03*
%TO.P,XA1,D52*%
%TO.N,Rec9*%
X36930000Y-89950000D03*
%TO.P,XA1,D53*%
%TO.N,Rec10*%
X39470000Y-89950000D03*
%TO.P,XA1,RST1*%
%TO.N,Net-(XA1-PadRST1)*%
X39470000Y-77250000D03*
%TO.P,XA1,GND3*%
%TO.N,N/C*%
X36930000Y-77250000D03*
%TO.P,XA1,SCK*%
%TO.N,Net-(XA1-PadSCK)*%
X39470000Y-79790000D03*
%TO.P,XA1,MISO*%
%TO.N,Net-(XA1-PadMISO)*%
X39470000Y-82330000D03*
%TO.P,XA1,5V3*%
%TO.N,+5V*%
X36930000Y-82330000D03*
%TO.P,XA1,MOSI*%
%TO.N,Net-(XA1-PadMOSI)*%
X36930000Y-79790000D03*
%TD*%
D16*
%TO.P,U1,3*%
%TO.N,+5V*%
X179980000Y-107420000D03*
%TO.P,U1,2*%
%TO.N,GND*%
X177440000Y-107420000D03*
D17*
%TO.P,U1,1*%
%TO.N,+12V*%
X174900000Y-107420000D03*
%TD*%
D18*
%TO.P,R18,2*%
%TO.N,Net-(D21-Pad2)*%
X200380000Y-62490000D03*
D19*
%TO.P,R18,1*%
%TO.N,Lamp10*%
X190220000Y-62490000D03*
%TD*%
D18*
%TO.P,R17,2*%
%TO.N,Net-(D19-Pad2)*%
X183570000Y-62530000D03*
D19*
%TO.P,R17,1*%
%TO.N,Lamp9*%
X173410000Y-62530000D03*
%TD*%
D18*
%TO.P,R16,2*%
%TO.N,Net-(D17-Pad2)*%
X167430000Y-62920000D03*
D19*
%TO.P,R16,1*%
%TO.N,Lamp8*%
X157270000Y-62920000D03*
%TD*%
D18*
%TO.P,R15,2*%
%TO.N,Net-(D16-Pad2)*%
X149500000Y-63570000D03*
D19*
%TO.P,R15,1*%
%TO.N,Lamp6*%
X139340000Y-63570000D03*
%TD*%
D18*
%TO.P,R14,2*%
%TO.N,Net-(D15-Pad2)*%
X132200000Y-63180000D03*
D19*
%TO.P,R14,1*%
%TO.N,Lamp4*%
X122040000Y-63180000D03*
%TD*%
D18*
%TO.P,R13,2*%
%TO.N,Net-(D14-Pad2)*%
X115420000Y-63440000D03*
D19*
%TO.P,R13,1*%
%TO.N,Lamp2*%
X105260000Y-63440000D03*
%TD*%
D18*
%TO.P,R12,2*%
%TO.N,Net-(D9-Pad2)*%
X98520000Y-59930000D03*
D19*
%TO.P,R12,1*%
%TO.N,Lamp7*%
X88360000Y-59930000D03*
%TD*%
D18*
%TO.P,R11,2*%
%TO.N,Net-(D8-Pad2)*%
X82650000Y-59930000D03*
D19*
%TO.P,R11,1*%
%TO.N,Lamp5*%
X72490000Y-59930000D03*
%TD*%
D18*
%TO.P,R10,2*%
%TO.N,Net-(D7-Pad2)*%
X64250000Y-59800000D03*
D19*
%TO.P,R10,1*%
%TO.N,Lamp3*%
X54090000Y-59800000D03*
%TD*%
D18*
%TO.P,R9,2*%
%TO.N,Net-(D6-Pad2)*%
X47330000Y-59790000D03*
D19*
%TO.P,R9,1*%
%TO.N,Lamp1*%
X37170000Y-59790000D03*
%TD*%
D20*
%TO.P,K10,1*%
%TO.N,+12V*%
X196230000Y-42110000D03*
D21*
%TO.P,K10,5*%
%TO.N,Net-(D20-Pad2)*%
X190280000Y-40160000D03*
D20*
%TO.P,K10,3*%
%TO.N,Net-(J24-Pad1)*%
X202280000Y-27960000D03*
D21*
%TO.P,K10,2*%
%TO.N,+5V*%
X202280000Y-40160000D03*
%TD*%
D20*
%TO.P,K9,1*%
%TO.N,+12V*%
X179230000Y-42110000D03*
D21*
%TO.P,K9,5*%
%TO.N,Net-(D18-Pad2)*%
X173280000Y-40160000D03*
D20*
%TO.P,K9,3*%
%TO.N,Net-(J23-Pad1)*%
X185280000Y-27960000D03*
D21*
%TO.P,K9,2*%
%TO.N,+5V*%
X185280000Y-40160000D03*
%TD*%
D20*
%TO.P,K8,1*%
%TO.N,+12V*%
X162230000Y-42110000D03*
D21*
%TO.P,K8,5*%
%TO.N,Net-(D13-Pad2)*%
X156280000Y-40160000D03*
D20*
%TO.P,K8,3*%
%TO.N,Net-(J22-Pad1)*%
X168280000Y-27960000D03*
D21*
%TO.P,K8,2*%
%TO.N,+5V*%
X168280000Y-40160000D03*
%TD*%
D20*
%TO.P,K7,1*%
%TO.N,+12V*%
X145230000Y-42110000D03*
D21*
%TO.P,K7,5*%
%TO.N,Net-(D12-Pad2)*%
X139280000Y-40160000D03*
D20*
%TO.P,K7,3*%
%TO.N,Net-(J21-Pad1)*%
X151280000Y-27960000D03*
D21*
%TO.P,K7,2*%
%TO.N,+5V*%
X151280000Y-40160000D03*
%TD*%
D20*
%TO.P,K6,1*%
%TO.N,+12V*%
X128230000Y-42110000D03*
D21*
%TO.P,K6,5*%
%TO.N,Net-(D11-Pad2)*%
X122280000Y-40160000D03*
D20*
%TO.P,K6,3*%
%TO.N,Net-(J20-Pad1)*%
X134280000Y-27960000D03*
D21*
%TO.P,K6,2*%
%TO.N,+5V*%
X134280000Y-40160000D03*
%TD*%
D20*
%TO.P,K5,1*%
%TO.N,+12V*%
X111230000Y-42110000D03*
D21*
%TO.P,K5,5*%
%TO.N,Net-(D10-Pad2)*%
X105280000Y-40160000D03*
D20*
%TO.P,K5,3*%
%TO.N,Net-(J19-Pad1)*%
X117280000Y-27960000D03*
D21*
%TO.P,K5,2*%
%TO.N,+5V*%
X117280000Y-40160000D03*
%TD*%
D20*
%TO.P,K4,1*%
%TO.N,+12V*%
X94230000Y-42110000D03*
D21*
%TO.P,K4,5*%
%TO.N,Net-(D5-Pad2)*%
X88280000Y-40160000D03*
D20*
%TO.P,K4,3*%
%TO.N,Net-(J18-Pad1)*%
X100280000Y-27960000D03*
D21*
%TO.P,K4,2*%
%TO.N,+5V*%
X100280000Y-40160000D03*
%TD*%
D20*
%TO.P,K3,1*%
%TO.N,+12V*%
X77230000Y-42110000D03*
D21*
%TO.P,K3,5*%
%TO.N,Net-(D4-Pad2)*%
X71280000Y-40160000D03*
D20*
%TO.P,K3,3*%
%TO.N,Net-(J17-Pad1)*%
X83280000Y-27960000D03*
D21*
%TO.P,K3,2*%
%TO.N,+5V*%
X83280000Y-40160000D03*
%TD*%
D20*
%TO.P,K2,1*%
%TO.N,+12V*%
X60230000Y-42110000D03*
D21*
%TO.P,K2,5*%
%TO.N,Net-(D3-Pad2)*%
X54280000Y-40160000D03*
D20*
%TO.P,K2,3*%
%TO.N,Net-(J16-Pad1)*%
X66280000Y-27960000D03*
D21*
%TO.P,K2,2*%
%TO.N,+5V*%
X66280000Y-40160000D03*
%TD*%
D20*
%TO.P,K1,1*%
%TO.N,+12V*%
X43230000Y-42110000D03*
D21*
%TO.P,K1,5*%
%TO.N,Net-(D2-Pad2)*%
X37280000Y-40160000D03*
D20*
%TO.P,K1,3*%
%TO.N,Net-(J15-Pad1)*%
X49280000Y-27960000D03*
D21*
%TO.P,K1,2*%
%TO.N,+5V*%
X49280000Y-40160000D03*
%TD*%
D22*
%TO.P,J24,2*%
%TO.N,GND*%
X197340000Y-18110000D03*
%TO.P,J24,1*%
%TO.N,Net-(J24-Pad1)*%
%TA.AperFunction,ComponentPad*%
G36*
G01*
X193930000Y-18955001D02*
X193930000Y-17264999D01*
G75*
G02*
X194179999Y-17015000I249999J0D01*
G01*
X195420001Y-17015000D01*
G75*
G02*
X195670000Y-17264999I0J-249999D01*
G01*
X195670000Y-18955001D01*
G75*
G02*
X195420001Y-19205000I-249999J0D01*
G01*
X194179999Y-19205000D01*
G75*
G02*
X193930000Y-18955001I0J249999D01*
G01*
G37*
%TD.AperFunction*%
%TD*%
%TO.P,J23,2*%
%TO.N,GND*%
X180340000Y-18110000D03*
%TO.P,J23,1*%
%TO.N,Net-(J23-Pad1)*%
%TA.AperFunction,ComponentPad*%
G36*
G01*
X176930000Y-18955001D02*
X176930000Y-17264999D01*
G75*
G02*
X177179999Y-17015000I249999J0D01*
G01*
X178420001Y-17015000D01*
G75*
G02*
X178670000Y-17264999I0J-249999D01*
G01*
X178670000Y-18955001D01*
G75*
G02*
X178420001Y-19205000I-249999J0D01*
G01*
X177179999Y-19205000D01*
G75*
G02*
X176930000Y-18955001I0J249999D01*
G01*
G37*
%TD.AperFunction*%
%TD*%
%TO.P,J22,2*%
%TO.N,GND*%
X163340000Y-18110000D03*
%TO.P,J22,1*%
%TO.N,Net-(J22-Pad1)*%
%TA.AperFunction,ComponentPad*%
G36*
G01*
X159930000Y-18955001D02*
X159930000Y-17264999D01*
G75*
G02*
X160179999Y-17015000I249999J0D01*
G01*
X161420001Y-17015000D01*
G75*
G02*
X161670000Y-17264999I0J-249999D01*
G01*
X161670000Y-18955001D01*
G75*
G02*
X161420001Y-19205000I-249999J0D01*
G01*
X160179999Y-19205000D01*
G75*
G02*
X159930000Y-18955001I0J249999D01*
G01*
G37*
%TD.AperFunction*%
%TD*%
%TO.P,J21,2*%
%TO.N,GND*%
X146340000Y-18110000D03*
%TO.P,J21,1*%
%TO.N,Net-(J21-Pad1)*%
%TA.AperFunction,ComponentPad*%
G36*
G01*
X142930000Y-18955001D02*
X142930000Y-17264999D01*
G75*
G02*
X143179999Y-17015000I249999J0D01*
G01*
X144420001Y-17015000D01*
G75*
G02*
X144670000Y-17264999I0J-249999D01*
G01*
X144670000Y-18955001D01*
G75*
G02*
X144420001Y-19205000I-249999J0D01*
G01*
X143179999Y-19205000D01*
G75*
G02*
X142930000Y-18955001I0J249999D01*
G01*
G37*
%TD.AperFunction*%
%TD*%
%TO.P,J20,2*%
%TO.N,GND*%
X129340000Y-18110000D03*
%TO.P,J20,1*%
%TO.N,Net-(J20-Pad1)*%
%TA.AperFunction,ComponentPad*%
G36*
G01*
X125930000Y-18955001D02*
X125930000Y-17264999D01*
G75*
G02*
X126179999Y-17015000I249999J0D01*
G01*
X127420001Y-17015000D01*
G75*
G02*
X127670000Y-17264999I0J-249999D01*
G01*
X127670000Y-18955001D01*
G75*
G02*
X127420001Y-19205000I-249999J0D01*
G01*
X126179999Y-19205000D01*
G75*
G02*
X125930000Y-18955001I0J249999D01*
G01*
G37*
%TD.AperFunction*%
%TD*%
%TO.P,J19,2*%
%TO.N,GND*%
X112340000Y-18110000D03*
%TO.P,J19,1*%
%TO.N,Net-(J19-Pad1)*%
%TA.AperFunction,ComponentPad*%
G36*
G01*
X108930000Y-18955001D02*
X108930000Y-17264999D01*
G75*
G02*
X109179999Y-17015000I249999J0D01*
G01*
X110420001Y-17015000D01*
G75*
G02*
X110670000Y-17264999I0J-249999D01*
G01*
X110670000Y-18955001D01*
G75*
G02*
X110420001Y-19205000I-249999J0D01*
G01*
X109179999Y-19205000D01*
G75*
G02*
X108930000Y-18955001I0J249999D01*
G01*
G37*
%TD.AperFunction*%
%TD*%
%TO.P,J18,2*%
%TO.N,GND*%
X95340000Y-18110000D03*
%TO.P,J18,1*%
%TO.N,Net-(J18-Pad1)*%
%TA.AperFunction,ComponentPad*%
G36*
G01*
X91930000Y-18955001D02*
X91930000Y-17264999D01*
G75*
G02*
X92179999Y-17015000I249999J0D01*
G01*
X93420001Y-17015000D01*
G75*
G02*
X93670000Y-17264999I0J-249999D01*
G01*
X93670000Y-18955001D01*
G75*
G02*
X93420001Y-19205000I-249999J0D01*
G01*
X92179999Y-19205000D01*
G75*
G02*
X91930000Y-18955001I0J249999D01*
G01*
G37*
%TD.AperFunction*%
%TD*%
%TO.P,J17,2*%
%TO.N,GND*%
X78340000Y-18110000D03*
%TO.P,J17,1*%
%TO.N,Net-(J17-Pad1)*%
%TA.AperFunction,ComponentPad*%
G36*
G01*
X74930000Y-18955001D02*
X74930000Y-17264999D01*
G75*
G02*
X75179999Y-17015000I249999J0D01*
G01*
X76420001Y-17015000D01*
G75*
G02*
X76670000Y-17264999I0J-249999D01*
G01*
X76670000Y-18955001D01*
G75*
G02*
X76420001Y-19205000I-249999J0D01*
G01*
X75179999Y-19205000D01*
G75*
G02*
X74930000Y-18955001I0J249999D01*
G01*
G37*
%TD.AperFunction*%
%TD*%
%TO.P,J16,2*%
%TO.N,GND*%
X61340000Y-18110000D03*
%TO.P,J16,1*%
%TO.N,Net-(J16-Pad1)*%
%TA.AperFunction,ComponentPad*%
G36*
G01*
X57930000Y-18955001D02*
X57930000Y-17264999D01*
G75*
G02*
X58179999Y-17015000I249999J0D01*
G01*
X59420001Y-17015000D01*
G75*
G02*
X59670000Y-17264999I0J-249999D01*
G01*
X59670000Y-18955001D01*
G75*
G02*
X59420001Y-19205000I-249999J0D01*
G01*
X58179999Y-19205000D01*
G75*
G02*
X57930000Y-18955001I0J249999D01*
G01*
G37*
%TD.AperFunction*%
%TD*%
%TO.P,J15,2*%
%TO.N,GND*%
X44340000Y-18110000D03*
%TO.P,J15,1*%
%TO.N,Net-(J15-Pad1)*%
%TA.AperFunction,ComponentPad*%
G36*
G01*
X40930000Y-18955001D02*
X40930000Y-17264999D01*
G75*
G02*
X41179999Y-17015000I249999J0D01*
G01*
X42420001Y-17015000D01*
G75*
G02*
X42670000Y-17264999I0J-249999D01*
G01*
X42670000Y-18955001D01*
G75*
G02*
X42420001Y-19205000I-249999J0D01*
G01*
X41179999Y-19205000D01*
G75*
G02*
X40930000Y-18955001I0J249999D01*
G01*
G37*
%TD.AperFunction*%
%TD*%
D11*
%TO.P,J14,7*%
%TO.N,Net-(J14-Pad7)*%
X200590000Y-89450000D03*
%TO.P,J14,6*%
%TO.N,Rec10*%
X200590000Y-86910000D03*
%TO.P,J14,5*%
%TO.N,Net-(J14-Pad5)*%
X200590000Y-84370000D03*
%TO.P,J14,4*%
%TO.N,Net-(J14-Pad4)*%
X200590000Y-81830000D03*
%TO.P,J14,3*%
%TO.N,Net-(J14-Pad3)*%
X200590000Y-79290000D03*
%TO.P,J14,2*%
%TO.N,+5V*%
X200590000Y-76750000D03*
D12*
%TO.P,J14,1*%
%TO.N,GND*%
X200590000Y-74210000D03*
%TD*%
D11*
%TO.P,J13,7*%
%TO.N,Net-(J13-Pad7)*%
X186590000Y-89450000D03*
%TO.P,J13,6*%
%TO.N,Rec8*%
X186590000Y-86910000D03*
%TO.P,J13,5*%
%TO.N,Net-(J13-Pad5)*%
X186590000Y-84370000D03*
%TO.P,J13,4*%
%TO.N,Net-(J13-Pad4)*%
X186590000Y-81830000D03*
%TO.P,J13,3*%
%TO.N,Net-(J13-Pad3)*%
X186590000Y-79290000D03*
%TO.P,J13,2*%
%TO.N,+5V*%
X186590000Y-76750000D03*
D12*
%TO.P,J13,1*%
%TO.N,GND*%
X186590000Y-74210000D03*
%TD*%
D11*
%TO.P,J12,7*%
%TO.N,Net-(J12-Pad7)*%
X179590000Y-89450000D03*
%TO.P,J12,6*%
%TO.N,Rec7*%
X179590000Y-86910000D03*
%TO.P,J12,5*%
%TO.N,Net-(J12-Pad5)*%
X179590000Y-84370000D03*
%TO.P,J12,4*%
%TO.N,Net-(J12-Pad4)*%
X179590000Y-81830000D03*
%TO.P,J12,3*%
%TO.N,Net-(J12-Pad3)*%
X179590000Y-79290000D03*
%TO.P,J12,2*%
%TO.N,+5V*%
X179590000Y-76750000D03*
D12*
%TO.P,J12,1*%
%TO.N,GND*%
X179590000Y-74210000D03*
%TD*%
D11*
%TO.P,J11,7*%
%TO.N,Net-(J11-Pad7)*%
X172590000Y-89450000D03*
%TO.P,J11,6*%
%TO.N,Rec6*%
X172590000Y-86910000D03*
%TO.P,J11,5*%
%TO.N,Net-(J11-Pad5)*%
X172590000Y-84370000D03*
%TO.P,J11,4*%
%TO.N,Net-(J11-Pad4)*%
X172590000Y-81830000D03*
%TO.P,J11,3*%
%TO.N,Net-(J11-Pad3)*%
X172590000Y-79290000D03*
%TO.P,J11,2*%
%TO.N,+5V*%
X172590000Y-76750000D03*
D12*
%TO.P,J11,1*%
%TO.N,GND*%
X172590000Y-74210000D03*
%TD*%
D11*
%TO.P,J10,7*%
%TO.N,Net-(J10-Pad7)*%
X165590000Y-89450000D03*
%TO.P,J10,6*%
%TO.N,Rec5*%
X165590000Y-86910000D03*
%TO.P,J10,5*%
%TO.N,Net-(J10-Pad5)*%
X165590000Y-84370000D03*
%TO.P,J10,4*%
%TO.N,Net-(J10-Pad4)*%
X165590000Y-81830000D03*
%TO.P,J10,3*%
%TO.N,Net-(J10-Pad3)*%
X165590000Y-79290000D03*
%TO.P,J10,2*%
%TO.N,+5V*%
X165590000Y-76750000D03*
D12*
%TO.P,J10,1*%
%TO.N,GND*%
X165590000Y-74210000D03*
%TD*%
D11*
%TO.P,J9,7*%
%TO.N,Net-(J9-Pad7)*%
X193590000Y-89450000D03*
%TO.P,J9,6*%
%TO.N,Rec9*%
X193590000Y-86910000D03*
%TO.P,J9,5*%
%TO.N,Net-(J9-Pad5)*%
X193590000Y-84370000D03*
%TO.P,J9,4*%
%TO.N,Net-(J9-Pad4)*%
X193590000Y-81830000D03*
%TO.P,J9,3*%
%TO.N,Net-(J9-Pad3)*%
X193590000Y-79290000D03*
%TO.P,J9,2*%
%TO.N,+5V*%
X193590000Y-76750000D03*
D12*
%TO.P,J9,1*%
%TO.N,GND*%
X193590000Y-74210000D03*
%TD*%
D11*
%TO.P,J8,7*%
%TO.N,Net-(J8-Pad7)*%
X158590000Y-89450000D03*
%TO.P,J8,6*%
%TO.N,Rec4*%
X158590000Y-86910000D03*
%TO.P,J8,5*%
%TO.N,Net-(J8-Pad5)*%
X158590000Y-84370000D03*
%TO.P,J8,4*%
%TO.N,Net-(J8-Pad4)*%
X158590000Y-81830000D03*
%TO.P,J8,3*%
%TO.N,Net-(J8-Pad3)*%
X158590000Y-79290000D03*
%TO.P,J8,2*%
%TO.N,+5V*%
X158590000Y-76750000D03*
D12*
%TO.P,J8,1*%
%TO.N,GND*%
X158590000Y-74210000D03*
%TD*%
D11*
%TO.P,J7,7*%
%TO.N,Net-(J7-Pad7)*%
X151590000Y-89450000D03*
%TO.P,J7,6*%
%TO.N,Rec3*%
X151590000Y-86910000D03*
%TO.P,J7,5*%
%TO.N,Net-(J7-Pad5)*%
X151590000Y-84370000D03*
%TO.P,J7,4*%
%TO.N,Net-(J7-Pad4)*%
X151590000Y-81830000D03*
%TO.P,J7,3*%
%TO.N,Net-(J7-Pad3)*%
X151590000Y-79290000D03*
%TO.P,J7,2*%
%TO.N,+5V*%
X151590000Y-76750000D03*
D12*
%TO.P,J7,1*%
%TO.N,GND*%
X151590000Y-74210000D03*
%TD*%
D11*
%TO.P,J6,7*%
%TO.N,Net-(J6-Pad7)*%
X144590000Y-89450000D03*
%TO.P,J6,6*%
%TO.N,Rec2*%
X144590000Y-86910000D03*
%TO.P,J6,5*%
%TO.N,Net-(J6-Pad5)*%
X144590000Y-84370000D03*
%TO.P,J6,4*%
%TO.N,Net-(J6-Pad4)*%
X144590000Y-81830000D03*
%TO.P,J6,3*%
%TO.N,Net-(J6-Pad3)*%
X144590000Y-79290000D03*
%TO.P,J6,2*%
%TO.N,+5V*%
X144590000Y-76750000D03*
D12*
%TO.P,J6,1*%
%TO.N,Net-(J6-Pad1)*%
X144590000Y-74210000D03*
%TD*%
D11*
%TO.P,J5,7*%
%TO.N,Net-(J5-Pad7)*%
X137590000Y-89450000D03*
%TO.P,J5,6*%
%TO.N,Rec1*%
X137590000Y-86910000D03*
%TO.P,J5,5*%
%TO.N,Net-(J5-Pad5)*%
X137590000Y-84370000D03*
%TO.P,J5,4*%
%TO.N,Net-(J5-Pad4)*%
X137590000Y-81830000D03*
%TO.P,J5,3*%
%TO.N,Net-(J5-Pad3)*%
X137590000Y-79290000D03*
%TO.P,J5,2*%
%TO.N,+5V*%
X137590000Y-76750000D03*
D12*
%TO.P,J5,1*%
%TO.N,GND*%
X137590000Y-74210000D03*
%TD*%
%TO.P,J4,3*%
%TO.N,N/C*%
%TA.AperFunction,ComponentPad*%
G36*
G01*
X198315000Y-102140000D02*
X196565000Y-102140000D01*
G75*
G02*
X195690000Y-101265000I0J875000D01*
G01*
X195690000Y-99515000D01*
G75*
G02*
X196565000Y-98640000I875000J0D01*
G01*
X198315000Y-98640000D01*
G75*
G02*
X199190000Y-99515000I0J-875000D01*
G01*
X199190000Y-101265000D01*
G75*
G02*
X198315000Y-102140000I-875000J0D01*
G01*
G37*
%TD.AperFunction*%
%TO.P,J4,2*%
%TO.N,+12V*%
%TA.AperFunction,ComponentPad*%
G36*
G01*
X193740000Y-104890000D02*
X191740000Y-104890000D01*
G75*
G02*
X190990000Y-104140000I0J750000D01*
G01*
X190990000Y-102640000D01*
G75*
G02*
X191740000Y-101890000I750000J0D01*
G01*
X193740000Y-101890000D01*
G75*
G02*
X194490000Y-102640000I0J-750000D01*
G01*
X194490000Y-104140000D01*
G75*
G02*
X193740000Y-104890000I-750000J0D01*
G01*
G37*
%TD.AperFunction*%
D23*
%TO.P,J4,1*%
%TO.N,GND*%
X192740000Y-97390000D03*
%TD*%
D11*
%TO.P,J3,5*%
%TO.N,N/C*%
X160440000Y-100720000D03*
%TO.P,J3,4*%
%TO.N,+5V*%
X157900000Y-100720000D03*
%TO.P,J3,3*%
%TO.N,GND*%
X155360000Y-100720000D03*
%TO.P,J3,2*%
%TO.N,SDA*%
X152820000Y-100720000D03*
D12*
%TO.P,J3,1*%
%TO.N,SCL*%
X150280000Y-100720000D03*
%TD*%
D11*
%TO.P,J1,10*%
%TO.N,GND*%
X160800000Y-106600000D03*
%TO.P,J1,9*%
%TO.N,Net-(J1-Pad9)*%
X158260000Y-106600000D03*
%TO.P,J1,8*%
%TO.N,Net-(J1-Pad8)*%
X155720000Y-106600000D03*
%TO.P,J1,7*%
%TO.N,Net-(J1-Pad7)*%
X153180000Y-106600000D03*
%TO.P,J1,6*%
%TO.N,Net-(J1-Pad6)*%
X150640000Y-106600000D03*
%TO.P,J1,5*%
%TO.N,Net-(J1-Pad5)*%
X148100000Y-106600000D03*
%TO.P,J1,4*%
%TO.N,Net-(J1-Pad4)*%
X145560000Y-106600000D03*
%TO.P,J1,3*%
%TO.N,Net-(J1-Pad3)*%
X143020000Y-106600000D03*
%TO.P,J1,2*%
%TO.N,Net-(J1-Pad2)*%
X140480000Y-106600000D03*
D12*
%TO.P,J1,1*%
%TO.N,+5V*%
X137940000Y-106600000D03*
%TD*%
D24*
%TO.P,D21,2*%
%TO.N,Net-(D21-Pad2)*%
X201530000Y-48670000D03*
D25*
%TO.P,D21,1*%
%TO.N,Net-(D21-Pad1)*%
X198990000Y-48670000D03*
%TD*%
D26*
%TO.P,D20,2*%
%TO.N,Net-(D20-Pad2)*%
X190310000Y-55080000D03*
D27*
%TO.P,D20,1*%
%TO.N,+5V*%
X200470000Y-55080000D03*
%TD*%
D24*
%TO.P,D19,2*%
%TO.N,Net-(D19-Pad2)*%
X184530000Y-48670000D03*
D25*
%TO.P,D19,1*%
%TO.N,Net-(D19-Pad1)*%
X181990000Y-48670000D03*
%TD*%
D26*
%TO.P,D18,2*%
%TO.N,Net-(D18-Pad2)*%
X173310000Y-55080000D03*
D27*
%TO.P,D18,1*%
%TO.N,+5V*%
X183470000Y-55080000D03*
%TD*%
D24*
%TO.P,D17,2*%
%TO.N,Net-(D17-Pad2)*%
X167530000Y-48670000D03*
D25*
%TO.P,D17,1*%
%TO.N,Net-(D17-Pad1)*%
X164990000Y-48670000D03*
%TD*%
D24*
%TO.P,D16,2*%
%TO.N,Net-(D16-Pad2)*%
X150530000Y-48670000D03*
D25*
%TO.P,D16,1*%
%TO.N,Net-(D16-Pad1)*%
X147990000Y-48670000D03*
%TD*%
D24*
%TO.P,D15,2*%
%TO.N,Net-(D15-Pad2)*%
X133530000Y-48670000D03*
D25*
%TO.P,D15,1*%
%TO.N,Net-(D15-Pad1)*%
X130990000Y-48670000D03*
%TD*%
D24*
%TO.P,D14,2*%
%TO.N,Net-(D14-Pad2)*%
X116530000Y-48670000D03*
D25*
%TO.P,D14,1*%
%TO.N,Net-(D14-Pad1)*%
X113990000Y-48670000D03*
%TD*%
D26*
%TO.P,D13,2*%
%TO.N,Net-(D13-Pad2)*%
X156310000Y-55080000D03*
D27*
%TO.P,D13,1*%
%TO.N,+5V*%
X166470000Y-55080000D03*
%TD*%
D26*
%TO.P,D12,2*%
%TO.N,Net-(D12-Pad2)*%
X139310000Y-55080000D03*
D27*
%TO.P,D12,1*%
%TO.N,+5V*%
X149470000Y-55080000D03*
%TD*%
D26*
%TO.P,D11,2*%
%TO.N,Net-(D11-Pad2)*%
X122310000Y-55080000D03*
D27*
%TO.P,D11,1*%
%TO.N,+5V*%
X132470000Y-55080000D03*
%TD*%
D26*
%TO.P,D10,2*%
%TO.N,Net-(D10-Pad2)*%
X105310000Y-55080000D03*
D27*
%TO.P,D10,1*%
%TO.N,+5V*%
X115470000Y-55080000D03*
%TD*%
D24*
%TO.P,D9,2*%
%TO.N,Net-(D9-Pad2)*%
X99530000Y-48670000D03*
D25*
%TO.P,D9,1*%
%TO.N,Net-(D9-Pad1)*%
X96990000Y-48670000D03*
%TD*%
D24*
%TO.P,D8,2*%
%TO.N,Net-(D8-Pad2)*%
X82530000Y-48670000D03*
D25*
%TO.P,D8,1*%
%TO.N,Net-(D8-Pad1)*%
X79990000Y-48670000D03*
%TD*%
D24*
%TO.P,D7,2*%
%TO.N,Net-(D7-Pad2)*%
X65530000Y-48670000D03*
D25*
%TO.P,D7,1*%
%TO.N,Net-(D7-Pad1)*%
X62990000Y-48670000D03*
%TD*%
D24*
%TO.P,D6,2*%
%TO.N,Net-(D6-Pad2)*%
X48530000Y-48670000D03*
D25*
%TO.P,D6,1*%
%TO.N,Net-(D6-Pad1)*%
X45990000Y-48670000D03*
%TD*%
D26*
%TO.P,D5,2*%
%TO.N,Net-(D5-Pad2)*%
X88310000Y-55080000D03*
D27*
%TO.P,D5,1*%
%TO.N,+5V*%
X98470000Y-55080000D03*
%TD*%
D26*
%TO.P,D4,2*%
%TO.N,Net-(D4-Pad2)*%
X71310000Y-55080000D03*
D27*
%TO.P,D4,1*%
%TO.N,+5V*%
X81470000Y-55080000D03*
%TD*%
D26*
%TO.P,D3,2*%
%TO.N,Net-(D3-Pad2)*%
X54310000Y-55080000D03*
D27*
%TO.P,D3,1*%
%TO.N,+5V*%
X64470000Y-55080000D03*
%TD*%
D26*
%TO.P,D2,2*%
%TO.N,Net-(D2-Pad2)*%
X37310000Y-55080000D03*
D27*
%TO.P,D2,1*%
%TO.N,+5V*%
X47470000Y-55080000D03*
%TD*%
D26*
%TO.P,D1,2*%
%TO.N,+5V*%
X182720000Y-101630000D03*
D27*
%TO.P,D1,1*%
%TO.N,+12V*%
X172560000Y-101630000D03*
%TD*%
D19*
%TO.P,C3,2*%
%TO.N,GND*%
X179310000Y-98110000D03*
%TO.P,C3,1*%
%TO.N,+5V*%
X184310000Y-98110000D03*
%TD*%
%TO.P,C2,2*%
%TO.N,GND*%
X175210000Y-98110000D03*
%TO.P,C2,1*%
%TO.N,+12V*%
X170210000Y-98110000D03*
%TD*%
%TO.P,C1,2*%
%TO.N,+5V*%
X91630000Y-66030000D03*
%TO.P,C1,1*%
%TO.N,GND*%
X96630000Y-66030000D03*
%TD*%
D28*
%TO.N,Net-(J1-Pad2)*%
X113364900Y-80420200D03*
%TO.N,Rec1*%
X58618400Y-86910000D03*
%TO.N,Rec2*%
X48954700Y-88085300D03*
%TO.N,Lamp1*%
X56432400Y-61192400D03*
%TO.N,Net-(J2-Pad11)*%
X78412800Y-68321800D03*
%TD*%
D29*
%TO.N,GND*%
X193590000Y-74210000D02*
X193590000Y-73034700D01*
X194400000Y-47870000D02*
X194400000Y-72224700D01*
X194400000Y-72224700D02*
X193590000Y-73034700D01*
X96630000Y-66030000D02*
X109400000Y-53260000D01*
X109400000Y-53260000D02*
X109400000Y-47870000D01*
X192370400Y-76237600D02*
X192370400Y-94945100D01*
X192370400Y-94945100D02*
X192740000Y-95314700D01*
X193590000Y-75385300D02*
X193222700Y-75385300D01*
X193222700Y-75385300D02*
X192370400Y-76237600D01*
X186590000Y-74210000D02*
X190342800Y-74210000D01*
X190342800Y-74210000D02*
X192370400Y-76237600D01*
X192740000Y-97390000D02*
X192740000Y-95314700D01*
X193590000Y-74210000D02*
X193590000Y-75385300D01*
X177440000Y-99045000D02*
X176145000Y-99045000D01*
X176145000Y-99045000D02*
X175210000Y-98110000D01*
X179310000Y-98110000D02*
X178375000Y-99045000D01*
X178375000Y-99045000D02*
X177440000Y-99045000D01*
X177440000Y-99045000D02*
X177440000Y-107420000D01*
X85190000Y-64550000D02*
X85190000Y-67090000D01*
X41400000Y-47870000D02*
X41400000Y-48945300D01*
X41400000Y-48945300D02*
X40740000Y-49605300D01*
X40740000Y-49605300D02*
X40740000Y-69876100D01*
X40740000Y-69876100D02*
X35734500Y-74881600D01*
X35734500Y-74881600D02*
X35734500Y-107724500D01*
X35734500Y-107724500D02*
X35950000Y-107940000D01*
X192740000Y-97390000D02*
X192740000Y-99465300D01*
X192740000Y-99465300D02*
X201214700Y-107940000D01*
X201214700Y-107940000D02*
X203970000Y-107940000D01*
X155360000Y-100720000D02*
X156535300Y-100720000D01*
X160800000Y-106600000D02*
X160800000Y-105424700D01*
X160800000Y-105424700D02*
X156535300Y-101160000D01*
X156535300Y-101160000D02*
X156535300Y-100720000D01*
%TO.N,+12V*%
X162230000Y-42110000D02*
X162230000Y-90130000D01*
X162230000Y-90130000D02*
X170210000Y-98110000D01*
X170210000Y-98110000D02*
X172304700Y-100204700D01*
X172304700Y-100204700D02*
X172560000Y-100204700D01*
X172560000Y-100917300D02*
X174900000Y-103257300D01*
X174900000Y-103257300D02*
X174900000Y-107420000D01*
X172560000Y-100917300D02*
X172560000Y-100204700D01*
X172560000Y-101630000D02*
X172560000Y-100917300D01*
%TO.N,+5V*%
X91630000Y-62990700D02*
X83779000Y-62990700D01*
X98470000Y-56505300D02*
X91984600Y-62990700D01*
X91984600Y-62990700D02*
X91630000Y-62990700D01*
X91630000Y-62990700D02*
X91630000Y-66030000D01*
X83779000Y-62990700D02*
X83779000Y-63421000D01*
X83779000Y-63421000D02*
X82650000Y-64550000D01*
X81470000Y-56505300D02*
X83779000Y-58814300D01*
X83779000Y-58814300D02*
X83779000Y-62990700D01*
X166470000Y-55080000D02*
X166470000Y-53654700D01*
X166470000Y-53654700D02*
X166279000Y-53463700D01*
X166279000Y-53463700D02*
X166279000Y-42161000D01*
X166279000Y-42161000D02*
X168280000Y-40160000D01*
X64470000Y-55080000D02*
X64470000Y-53654700D01*
X64470000Y-53654700D02*
X64279000Y-53463700D01*
X64279000Y-53463700D02*
X64279000Y-42161000D01*
X64279000Y-42161000D02*
X66280000Y-40160000D01*
X199219800Y-75012500D02*
X199219800Y-57755500D01*
X199219800Y-57755500D02*
X200470000Y-56505300D01*
X200590000Y-75574700D02*
X199782000Y-75574700D01*
X199782000Y-75574700D02*
X199219800Y-75012500D01*
X199219800Y-75012500D02*
X197482300Y-76750000D01*
X197482300Y-76750000D02*
X193590000Y-76750000D01*
X184310000Y-79838000D02*
X186222700Y-77925300D01*
X186222700Y-77925300D02*
X186590000Y-77925300D01*
X184310000Y-98110000D02*
X184310000Y-79838000D01*
X184310000Y-79838000D02*
X181222000Y-76750000D01*
X181222000Y-76750000D02*
X179590000Y-76750000D01*
X183470000Y-55080000D02*
X183470000Y-53654700D01*
X183470000Y-53654700D02*
X183279000Y-53463700D01*
X183279000Y-53463700D02*
X183279000Y-42161000D01*
X183279000Y-42161000D02*
X185280000Y-40160000D01*
X149470000Y-53654700D02*
X149279000Y-53463700D01*
X149279000Y-53463700D02*
X149279000Y-42161000D01*
X149279000Y-42161000D02*
X151280000Y-40160000D01*
X157414700Y-78733200D02*
X158222600Y-77925300D01*
X158222600Y-77925300D02*
X158590000Y-77925300D01*
X157900000Y-99544700D02*
X157414700Y-99059400D01*
X157414700Y-99059400D02*
X157414700Y-78733200D01*
X157414700Y-78733200D02*
X155431500Y-76750000D01*
X155431500Y-76750000D02*
X151590000Y-76750000D01*
X47470000Y-53654700D02*
X47279000Y-53463700D01*
X47279000Y-53463700D02*
X47279000Y-42161000D01*
X47279000Y-42161000D02*
X49280000Y-40160000D01*
X82650000Y-67090000D02*
X82650000Y-64550000D01*
X47470000Y-55080000D02*
X47470000Y-56505300D01*
X36930000Y-82330000D02*
X38200000Y-81060000D01*
X38200000Y-81060000D02*
X38200000Y-74485300D01*
X38200000Y-74485300D02*
X43280000Y-69405300D01*
X43280000Y-69405300D02*
X43280000Y-60695300D01*
X43280000Y-60695300D02*
X47470000Y-56505300D01*
X182720000Y-101630000D02*
X182720000Y-99700000D01*
X182720000Y-99700000D02*
X184310000Y-98110000D01*
X186590000Y-76750000D02*
X186590000Y-77925300D01*
X98470000Y-55080000D02*
X98470000Y-53654700D01*
X100280000Y-40160000D02*
X98279000Y-42161000D01*
X98279000Y-42161000D02*
X98279000Y-53463700D01*
X98279000Y-53463700D02*
X98470000Y-53654700D01*
X81470000Y-55080000D02*
X81470000Y-53654700D01*
X83280000Y-40160000D02*
X83769300Y-40649300D01*
X83769300Y-40649300D02*
X83769300Y-51355400D01*
X83769300Y-51355400D02*
X81470000Y-53654700D01*
X200470000Y-55080000D02*
X200470000Y-56505300D01*
X200590000Y-76750000D02*
X200590000Y-75574700D01*
X158590000Y-76750000D02*
X158590000Y-77925300D01*
X157900000Y-100720000D02*
X157900000Y-99544700D01*
X200470000Y-55080000D02*
X200470000Y-53654700D01*
X200470000Y-53654700D02*
X200279000Y-53463700D01*
X200279000Y-53463700D02*
X200279000Y-42161000D01*
X200279000Y-42161000D02*
X202280000Y-40160000D01*
X149470000Y-55080000D02*
X149470000Y-53654700D01*
X132470000Y-55080000D02*
X132470000Y-53654700D01*
X132470000Y-53654700D02*
X132279000Y-53463700D01*
X132279000Y-53463700D02*
X132279000Y-42161000D01*
X132279000Y-42161000D02*
X134280000Y-40160000D01*
X115470000Y-55080000D02*
X115470000Y-53654700D01*
X115470000Y-53654700D02*
X115279000Y-53463700D01*
X115279000Y-53463700D02*
X115279000Y-42161000D01*
X115279000Y-42161000D02*
X117280000Y-40160000D01*
X98470000Y-55080000D02*
X98470000Y-56505300D01*
X81470000Y-55080000D02*
X81470000Y-56505300D01*
X47470000Y-55080000D02*
X47470000Y-53654700D01*
X182720000Y-101630000D02*
X182720000Y-103055300D01*
X182720000Y-103055300D02*
X179980000Y-105795300D01*
X179980000Y-105795300D02*
X179980000Y-107420000D01*
%TO.N,Net-(D2-Pad2)*%
X36320000Y-47870000D02*
X36320000Y-41120000D01*
X36320000Y-41120000D02*
X37280000Y-40160000D01*
X37310000Y-53654700D02*
X36320000Y-52664700D01*
X36320000Y-52664700D02*
X36320000Y-47870000D01*
X37310000Y-55080000D02*
X37310000Y-53654700D01*
%TO.N,Net-(D3-Pad2)*%
X53320000Y-47870000D02*
X53320000Y-41120000D01*
X53320000Y-41120000D02*
X54280000Y-40160000D01*
X54310000Y-53654700D02*
X53320000Y-52664700D01*
X53320000Y-52664700D02*
X53320000Y-47870000D01*
X54310000Y-55080000D02*
X54310000Y-53654700D01*
%TO.N,Net-(D4-Pad2)*%
X70320000Y-47870000D02*
X70320000Y-41120000D01*
X70320000Y-41120000D02*
X71280000Y-40160000D01*
X71310000Y-53654700D02*
X70320000Y-52664700D01*
X70320000Y-52664700D02*
X70320000Y-47870000D01*
X71310000Y-55080000D02*
X71310000Y-53654700D01*
%TO.N,Net-(D5-Pad2)*%
X87320000Y-47870000D02*
X87320000Y-41120000D01*
X87320000Y-41120000D02*
X88280000Y-40160000D01*
X88310000Y-53654700D02*
X87320000Y-52664700D01*
X87320000Y-52664700D02*
X87320000Y-47870000D01*
X88310000Y-55080000D02*
X88310000Y-53654700D01*
%TO.N,Net-(D6-Pad2)*%
X47330000Y-59790000D02*
X47330000Y-58664700D01*
X48530000Y-48670000D02*
X48895400Y-49035400D01*
X48895400Y-49035400D02*
X48895400Y-57099300D01*
X48895400Y-57099300D02*
X47330000Y-58664700D01*
%TO.N,Net-(D7-Pad2)*%
X64250000Y-59800000D02*
X64250000Y-58674700D01*
X65530000Y-48670000D02*
X65895400Y-49035400D01*
X65895400Y-49035400D02*
X65895400Y-57029300D01*
X65895400Y-57029300D02*
X64250000Y-58674700D01*
%TO.N,Net-(D8-Pad2)*%
X82650000Y-59930000D02*
X82650000Y-58804700D01*
X82530000Y-48670000D02*
X80044600Y-51155400D01*
X80044600Y-51155400D02*
X80044600Y-56340000D01*
X80044600Y-56340000D02*
X82509300Y-58804700D01*
X82509300Y-58804700D02*
X82650000Y-58804700D01*
%TO.N,Net-(D8-Pad1)*%
X79990000Y-48670000D02*
X78764700Y-48670000D01*
X78764700Y-48670000D02*
X78467700Y-48967000D01*
X78467700Y-48967000D02*
X73957000Y-48967000D01*
X73957000Y-48967000D02*
X72860000Y-47870000D01*
%TO.N,Net-(D9-Pad2)*%
X98520000Y-59930000D02*
X98520000Y-58804700D01*
X99530000Y-48670000D02*
X99895400Y-49035400D01*
X99895400Y-49035400D02*
X99895400Y-57429300D01*
X99895400Y-57429300D02*
X98520000Y-58804700D01*
%TO.N,Net-(D9-Pad1)*%
X96990000Y-48670000D02*
X95764700Y-48670000D01*
X95764700Y-48670000D02*
X95489300Y-48945400D01*
X95489300Y-48945400D02*
X90935400Y-48945400D01*
X90935400Y-48945400D02*
X89860000Y-47870000D01*
%TO.N,Net-(D10-Pad2)*%
X105280000Y-40160000D02*
X105280000Y-46910000D01*
X105280000Y-46910000D02*
X104320000Y-47870000D01*
X105310000Y-55080000D02*
X105310000Y-53654700D01*
X105310000Y-53654700D02*
X104320000Y-52664700D01*
X104320000Y-52664700D02*
X104320000Y-47870000D01*
%TO.N,Net-(D11-Pad2)*%
X121320000Y-47870000D02*
X121320000Y-41120000D01*
X121320000Y-41120000D02*
X122280000Y-40160000D01*
X122310000Y-53654700D02*
X121320000Y-52664700D01*
X121320000Y-52664700D02*
X121320000Y-47870000D01*
X122310000Y-55080000D02*
X122310000Y-53654700D01*
%TO.N,Net-(D12-Pad2)*%
X138320000Y-47870000D02*
X138320000Y-41120000D01*
X138320000Y-41120000D02*
X139280000Y-40160000D01*
X139310000Y-53654700D02*
X138320000Y-52664700D01*
X138320000Y-52664700D02*
X138320000Y-47870000D01*
X139310000Y-55080000D02*
X139310000Y-53654700D01*
%TO.N,Net-(D13-Pad2)*%
X155320000Y-47870000D02*
X155320000Y-41120000D01*
X155320000Y-41120000D02*
X156280000Y-40160000D01*
X156310000Y-53654700D02*
X155320000Y-52664700D01*
X155320000Y-52664700D02*
X155320000Y-47870000D01*
X156310000Y-55080000D02*
X156310000Y-53654700D01*
%TO.N,Net-(D14-Pad2)*%
X115420000Y-63440000D02*
X115420000Y-62314700D01*
X116530000Y-48670000D02*
X116895400Y-49035400D01*
X116895400Y-49035400D02*
X116895400Y-60839300D01*
X116895400Y-60839300D02*
X115420000Y-62314700D01*
%TO.N,Net-(D15-Pad2)*%
X132200000Y-63180000D02*
X132200000Y-62054700D01*
X133530000Y-48670000D02*
X133895400Y-49035400D01*
X133895400Y-49035400D02*
X133895400Y-60359300D01*
X133895400Y-60359300D02*
X132200000Y-62054700D01*
%TO.N,Net-(D16-Pad2)*%
X149500000Y-63570000D02*
X149500000Y-62444700D01*
X150530000Y-48670000D02*
X150895400Y-49035400D01*
X150895400Y-49035400D02*
X150895400Y-61049300D01*
X150895400Y-61049300D02*
X149500000Y-62444700D01*
%TO.N,Net-(D17-Pad2)*%
X167430000Y-62920000D02*
X167430000Y-61794700D01*
X167530000Y-48670000D02*
X167895400Y-49035400D01*
X167895400Y-49035400D02*
X167895400Y-61329300D01*
X167895400Y-61329300D02*
X167430000Y-61794700D01*
%TO.N,Net-(D18-Pad2)*%
X172320000Y-47870000D02*
X172320000Y-41120000D01*
X172320000Y-41120000D02*
X173280000Y-40160000D01*
X173310000Y-53654700D02*
X172320000Y-52664700D01*
X172320000Y-52664700D02*
X172320000Y-47870000D01*
X173310000Y-55080000D02*
X173310000Y-53654700D01*
%TO.N,Net-(D19-Pad2)*%
X183570000Y-62530000D02*
X183570000Y-61404700D01*
X184530000Y-48670000D02*
X184895400Y-49035400D01*
X184895400Y-49035400D02*
X184895400Y-60079300D01*
X184895400Y-60079300D02*
X183570000Y-61404700D01*
%TO.N,Net-(D20-Pad2)*%
X189320000Y-47870000D02*
X189320000Y-41120000D01*
X189320000Y-41120000D02*
X190280000Y-40160000D01*
X190310000Y-53654700D02*
X189320000Y-52664700D01*
X189320000Y-52664700D02*
X189320000Y-47870000D01*
X190310000Y-55080000D02*
X190310000Y-53654700D01*
%TO.N,Net-(D21-Pad2)*%
X200380000Y-62490000D02*
X200380000Y-61364700D01*
X201530000Y-48670000D02*
X201895400Y-49035400D01*
X201895400Y-49035400D02*
X201895400Y-59849300D01*
X201895400Y-59849300D02*
X200380000Y-61364700D01*
%TO.N,Net-(J1-Pad8)*%
X155720000Y-106600000D02*
X154544700Y-106600000D01*
X154544700Y-106600000D02*
X154544700Y-106967300D01*
X154544700Y-106967300D02*
X151082900Y-110429100D01*
X151082900Y-110429100D02*
X63367500Y-110429100D01*
X63367500Y-110429100D02*
X53333600Y-100395200D01*
X53333600Y-100395200D02*
X53333600Y-99574500D01*
X53333600Y-99574500D02*
X52599100Y-98840000D01*
X52599100Y-98840000D02*
X50900000Y-98840000D01*
X50900000Y-98840000D02*
X49630000Y-97570000D01*
%TO.N,Net-(J1-Pad4)*%
X144384700Y-106600000D02*
X144384700Y-106967300D01*
X144384700Y-106967300D02*
X141373300Y-109978700D01*
X141373300Y-109978700D02*
X88701200Y-109978700D01*
X88701200Y-109978700D02*
X77562500Y-98840000D01*
X77562500Y-98840000D02*
X55980000Y-98840000D01*
X55980000Y-98840000D02*
X54710000Y-97570000D01*
X145560000Y-106600000D02*
X144384700Y-106600000D01*
%TO.N,Net-(J1-Pad2)*%
X139304700Y-106600000D02*
X139304700Y-105792000D01*
X139304700Y-105792000D02*
X113932900Y-80420200D01*
X113932900Y-80420200D02*
X113364900Y-80420200D01*
X140480000Y-106600000D02*
X139304700Y-106600000D01*
%TO.N,Net-(J2-Pad10)*%
X121810000Y-106950000D02*
X120634700Y-106950000D01*
X62330000Y-64550000D02*
X64025600Y-62854400D01*
X64025600Y-62854400D02*
X72487100Y-62854400D01*
X72487100Y-62854400D02*
X73653600Y-64020900D01*
X73653600Y-64020900D02*
X73653600Y-64822100D01*
X73653600Y-64822100D02*
X74664900Y-65833400D01*
X74664900Y-65833400D02*
X75465600Y-65833400D01*
X75465600Y-65833400D02*
X76300000Y-66667800D01*
X76300000Y-66667800D02*
X76300000Y-67481100D01*
X76300000Y-67481100D02*
X114070300Y-105251400D01*
X114070300Y-105251400D02*
X119303400Y-105251400D01*
X119303400Y-105251400D02*
X120634700Y-106582700D01*
X120634700Y-106582700D02*
X120634700Y-106950000D01*
%TO.N,Net-(J2-Pad9)*%
X62330000Y-67090000D02*
X97098200Y-101858200D01*
X97098200Y-101858200D02*
X97098200Y-107989400D01*
X97098200Y-107989400D02*
X98619800Y-109511000D01*
X98619800Y-109511000D02*
X115901000Y-109511000D01*
X115901000Y-109511000D02*
X118094700Y-107317300D01*
X118094700Y-107317300D02*
X118094700Y-106950000D01*
X119270000Y-106950000D02*
X118094700Y-106950000D01*
%TO.N,Net-(J2-Pad8)*%
X116730000Y-106950000D02*
X115554700Y-106950000D01*
X64870000Y-64550000D02*
X66066900Y-63353100D01*
X66066900Y-63353100D02*
X70420500Y-63353100D01*
X70420500Y-63353100D02*
X71113600Y-64046200D01*
X71113600Y-64046200D02*
X71113600Y-64846700D01*
X71113600Y-64846700D02*
X72193300Y-65926400D01*
X72193300Y-65926400D02*
X73025400Y-65926400D01*
X73025400Y-65926400D02*
X73760000Y-66661000D01*
X73760000Y-66661000D02*
X73760000Y-67467300D01*
X73760000Y-67467300D02*
X112067400Y-105774700D01*
X112067400Y-105774700D02*
X114746800Y-105774700D01*
X114746800Y-105774700D02*
X115554700Y-106582600D01*
X115554700Y-106582600D02*
X115554700Y-106950000D01*
%TO.N,Net-(J2-Pad7)*%
X114190000Y-106950000D02*
X113014700Y-106950000D01*
X64870000Y-67090000D02*
X97663600Y-99883600D01*
X97663600Y-99883600D02*
X97663600Y-107834400D01*
X97663600Y-107834400D02*
X98889800Y-109060600D01*
X98889800Y-109060600D02*
X111271400Y-109060600D01*
X111271400Y-109060600D02*
X113014700Y-107317300D01*
X113014700Y-107317300D02*
X113014700Y-106950000D01*
%TO.N,Net-(J2-Pad6)*%
X67410000Y-64550000D02*
X66209400Y-65750600D01*
X66209400Y-65750600D02*
X66209400Y-67534800D01*
X66209400Y-67534800D02*
X100125400Y-101450800D01*
X100125400Y-101450800D02*
X100125400Y-107266700D01*
X100125400Y-107266700D02*
X101452500Y-108593800D01*
X101452500Y-108593800D02*
X109198200Y-108593800D01*
X109198200Y-108593800D02*
X110474700Y-107317300D01*
X110474700Y-107317300D02*
X110474700Y-106950000D01*
X111650000Y-106950000D02*
X110474700Y-106950000D01*
%TO.N,Net-(J2-Pad5)*%
X109110000Y-106950000D02*
X107934700Y-106950000D01*
X67410000Y-67090000D02*
X102760000Y-102440000D01*
X102760000Y-102440000D02*
X102760000Y-107382900D01*
X102760000Y-107382900D02*
X103502400Y-108125300D01*
X103502400Y-108125300D02*
X107126800Y-108125300D01*
X107126800Y-108125300D02*
X107934700Y-107317400D01*
X107934700Y-107317400D02*
X107934700Y-106950000D01*
%TO.N,Net-(J2-Pad4)*%
X69950000Y-64550000D02*
X71220000Y-65820000D01*
X71220000Y-65820000D02*
X71220000Y-67465500D01*
X71220000Y-67465500D02*
X106570000Y-102815500D01*
X106570000Y-102815500D02*
X106570000Y-106950000D01*
%TO.N,Net-(J2-Pad3)*%
X69950000Y-67090000D02*
X104030000Y-101170000D01*
X104030000Y-101170000D02*
X104030000Y-106950000D01*
%TO.N,SDA*%
X152820000Y-100720000D02*
X151644700Y-100720000D01*
X151644700Y-100720000D02*
X151644700Y-99912000D01*
X151644700Y-99912000D02*
X143697600Y-91964900D01*
X143697600Y-91964900D02*
X136414600Y-91964900D01*
X136414600Y-91964900D02*
X113094100Y-68644400D01*
X113094100Y-68644400D02*
X82480000Y-68644400D01*
X82480000Y-68644400D02*
X81380000Y-67544400D01*
X81380000Y-67544400D02*
X81380000Y-64093200D01*
X81380000Y-64093200D02*
X78484400Y-61197600D01*
X78484400Y-61197600D02*
X63461900Y-61197600D01*
X63461900Y-61197600D02*
X62246000Y-59981700D01*
X62246000Y-59981700D02*
X55729800Y-59981700D01*
X55729800Y-59981700D02*
X54786100Y-60925400D01*
X54786100Y-60925400D02*
X51586200Y-60925400D01*
X51586200Y-60925400D02*
X48439400Y-64072200D01*
X48439400Y-64072200D02*
X48439400Y-65899400D01*
X48439400Y-65899400D02*
X49630000Y-67090000D01*
%TO.N,SCL*%
X49630000Y-64550000D02*
X51136000Y-63044000D01*
X51136000Y-63044000D02*
X53304400Y-63044000D01*
X53304400Y-63044000D02*
X55916300Y-60432100D01*
X55916300Y-60432100D02*
X57100400Y-60432100D01*
X57100400Y-60432100D02*
X58766600Y-62098300D01*
X58766600Y-62098300D02*
X74230000Y-62098300D01*
X74230000Y-62098300D02*
X76211400Y-64079700D01*
X76211400Y-64079700D02*
X76211400Y-64890400D01*
X76211400Y-64890400D02*
X77247400Y-65926400D01*
X77247400Y-65926400D02*
X78105400Y-65926400D01*
X78105400Y-65926400D02*
X78840000Y-66661000D01*
X78840000Y-66661000D02*
X78840000Y-67469600D01*
X78840000Y-67469600D02*
X90732700Y-79362300D01*
X90732700Y-79362300D02*
X113969800Y-79362300D01*
X113969800Y-79362300D02*
X135327500Y-100720000D01*
X135327500Y-100720000D02*
X149104700Y-100720000D01*
X150280000Y-100720000D02*
X149104700Y-100720000D01*
%TO.N,Rec1*%
X39470000Y-100110000D02*
X40740000Y-98840000D01*
X40740000Y-98840000D02*
X47471100Y-98840000D01*
X47471100Y-98840000D02*
X48253600Y-98057500D01*
X48253600Y-98057500D02*
X48253600Y-97274800D01*
X48253600Y-97274800D02*
X58618400Y-86910000D01*
%TO.N,Rec2*%
X39470000Y-97570000D02*
X48954700Y-88085300D01*
%TO.N,Net-(J15-Pad1)*%
X41800000Y-18110000D02*
X49280000Y-25590000D01*
X49280000Y-25590000D02*
X49280000Y-27960000D01*
%TO.N,Net-(J16-Pad1)*%
X58800000Y-18110000D02*
X58800000Y-20480000D01*
X58800000Y-20480000D02*
X66280000Y-27960000D01*
%TO.N,Net-(J17-Pad1)*%
X75800000Y-18110000D02*
X75800000Y-20480000D01*
X75800000Y-20480000D02*
X83280000Y-27960000D01*
%TO.N,Net-(J18-Pad1)*%
X92800000Y-18110000D02*
X92800000Y-20480000D01*
X92800000Y-20480000D02*
X100280000Y-27960000D01*
%TO.N,Net-(J19-Pad1)*%
X109800000Y-18110000D02*
X109800000Y-20480000D01*
X109800000Y-20480000D02*
X117280000Y-27960000D01*
%TO.N,Net-(J20-Pad1)*%
X126800000Y-18110000D02*
X126800000Y-20480000D01*
X126800000Y-20480000D02*
X134280000Y-27960000D01*
%TO.N,Net-(J21-Pad1)*%
X143800000Y-18110000D02*
X143800000Y-20480000D01*
X143800000Y-20480000D02*
X151280000Y-27960000D01*
%TO.N,Net-(J22-Pad1)*%
X160800000Y-18110000D02*
X160800000Y-20480000D01*
X160800000Y-20480000D02*
X168280000Y-27960000D01*
%TO.N,Net-(J23-Pad1)*%
X177800000Y-18110000D02*
X177800000Y-20480000D01*
X177800000Y-20480000D02*
X185280000Y-27960000D01*
%TO.N,Net-(J24-Pad1)*%
X194800000Y-18110000D02*
X194800000Y-20480000D01*
X194800000Y-20480000D02*
X202280000Y-27960000D01*
%TO.N,Lamp1*%
X56432400Y-61192400D02*
X59790000Y-64550000D01*
%TO.N,Lamp3*%
X54090000Y-59800000D02*
X51840000Y-59800000D01*
X51840000Y-59800000D02*
X47090000Y-64550000D01*
%TO.N,Net-(XA1-PadVIN)*%
X87730000Y-64550000D02*
X87730000Y-67090000D01*
%TO.N,Net-(XA1-Pad3V3)*%
X80110000Y-64550000D02*
X80110000Y-67090000D01*
%TO.N,Net-(J2-Pad11)*%
X123174700Y-106950000D02*
X123174700Y-106582700D01*
X123174700Y-106582700D02*
X114553200Y-97961200D01*
X114553200Y-97961200D02*
X108052200Y-97961200D01*
X108052200Y-97961200D02*
X78412800Y-68321800D01*
X124350000Y-106950000D02*
X123174700Y-106950000D01*
%TD*%
M02*
